<?xml version="1.0" encoding="utf-8"?>
<!-- Generator: Adobe Illustrator 21.0.0, SVG Export Plug-In . SVG Version: 6.00 Build 0)  -->
<svg version="1.1" xmlns="http://www.w3.org/2000/svg" xmlns:xlink="http://www.w3.org/1999/xlink" x="0px" y="0px"
	 viewBox="0 0 1400 1400" style="enable-background:new 0 0 1400 1400;" xml:space="preserve">
<style type="text/css">
	.st0{fill:#F8FFFF;}
	.st1{fill:#CDEBFF;}
	.st2{fill:#D8D8DB;}
	.st3{fill:#8DA4B5;}
	.st4{fill:#597882;}
	.st5{fill:#444E51;}
	.st6{fill:#F5F5F2;}
	.st7{fill:#7F4E50;}
	.st8{fill:#3C4F6E;}
	.st9{fill:#51585B;}
	.st10{fill:#393E41;}
	.st11{fill:#A5B4C2;}
	.st12{fill:#849084;}
	.st13{fill:#647889;}
	.st14{fill:#F4695E;}
	.st15{fill:#F4C995;}
	.st16{fill:#FBB040;}
	.st17{fill:#C49A6C;}
	.st18{fill:#26382D;}
	.st19{fill:#BCBEC0;}
	.st20{fill:#EB1B4B;}
	.st21{fill:#80E4DC;}
	.st22{fill:#88C7D0;}
	.st23{fill:#74B1B5;}
	.st24{fill:#A6ACB7;}
	.st25{fill:#88909E;}
	.st26{fill:#FFFFFF;}
	.st27{fill:#3C3B38;}
	.st28{fill:#262623;}
	.st29{fill:#FCB184;}
	.st30{fill:#E8E3E3;}
	.st31{fill:#D82A27;}
	.st32{fill:#B71A1A;}
	.st33{fill:#991010;}
	.st34{fill:#333332;}
	.st35{fill:#DD8C64;}
	.st36{fill:#FFFEFE;}
	.st37{fill:#B0662F;}
	.st38{fill:#623321;}
	.st39{fill:#EFD2C5;}
	.st40{fill:#8C4C38;}
	.st41{fill:#6D3526;}
	.st42{fill:#D5D4DB;}
	.st43{fill:#C0BECC;}
	.st44{fill:#D9F7FF;}
	.st45{fill:#C1E3EA;}
	.st46{fill:#99B6C6;}
	.st47{fill:#D5DCE0;}
	.st48{fill:#939598;}
	.st49{fill:#25313A;}
	.st50{fill:#47595B;}
	.st51{fill:#3A4849;}
	.st52{fill:#0F576D;}
	.st53{fill:#186D87;}
	.st54{fill:#13617F;}
	.st55{fill:#F9E1DF;}
	.st56{fill:#3E4A54;}
	.st57{fill:#58595B;}
	.st58{fill:#4F5B67;}
	.st59{fill:#384651;}
	.st60{fill:#DEE8E7;}
	.st61{fill:#B9C6C4;}
	.st62{fill:#A3AFAD;}
	.st63{fill:#7F9998;}
	.st64{fill:#536B6B;}
	.st65{fill:#FAC88F;}
	.st66{fill:#4F6657;}
	.st67{fill:#EFC9B6;}
	.st68{fill:#385141;}
</style>
<g id="background">
	<rect class="st0" width="1400" height="1400"/>
</g>
<g id="object">
	<g>
		<path class="st44" d="M164.5,951.7c0,0,73.4-277.9,49.5-361.3s79-332.6,234.1-324s227.9,69,373.3,52.4s297.6-38.8,369.3,27.8
			c71.7,66.6-5.1,505.3,8.5,544.5c13.7,39.3,6.8,119.9-42.7,141.3C1107.1,1054,164.5,951.7,164.5,951.7z"/>
		<g>
			<polygon class="st45" points="1021.1,521 797.6,521 797.6,833.8 969.1,833.8 1021.1,833.8 1155.4,833.8 1155.4,604 1021.1,604 
							"/>
			<rect x="589.1" y="461.8" class="st45" width="158.1" height="371.9"/>
			<path class="st45" d="M337.5,833.8h148.3V483.8H337.5v106.6H214c13.5,47.3-4.2,157.1-22.1,243.3H337.5z"/>
		</g>
		<path class="st46" d="M994.1,833.8V302.9c-6.2,0.3-12.5,0.7-18.8,1.1v529.9H657V306.6c-6.3-1.5-12.5-3-18.8-4.6v531.8H319.8V321.5
			c-6.5,6.3-12.8,13-18.8,20v492.3H191.9c-1.3,6.4-2.7,12.7-4,18.8h1010.3c0.3-5.8,0.7-12,1.2-18.8H994.1z"/>
		<path class="st47" d="M189.2,846.5c-12.7,59.7-24.8,105.2-24.8,105.2s61.9,3.7,155.9,8.9l892.6,27.2c3.2-20.2-5.1-72-13.7-96.7
			c-2.1-6.1-2.1-22-0.7-44.6H189.2z"/>
		<path class="st46" d="M164.5,951.7c0,0,559.2-35.5,815.6-13.1c256.4,22.4,283.5,28.8,278.9,58.6c-4.6,29.8-225.1,96.5-505,124.6
			s-575.9,3.2-550.8-40.1c25-43.3,86.5-55,18.2-66.2C153.1,1004.3,111.9,954.8,164.5,951.7z"/>
		<g>
			<g>
				<rect x="599" y="872.7" class="st24" width="23.1" height="62.4"/>
				<rect x="600.1" y="873.4" class="st25" width="8.3" height="62.4"/>
				<rect x="617.7" y="886" class="st26" width="3.4" height="49.9"/>
				<circle class="st27" cx="692.7" cy="990.2" r="13.8"/>
				<path class="st28" d="M552.4,843.7c0,0,11.4,27.6,53.1,27.6c35.5,0,62.3-13.5,61.9-30.6C667,823.5,552.4,843.7,552.4,843.7z"/>
				<rect x="595.1" y="858.4" class="st28" width="30.8" height="25.6"/>
				<path class="st28" d="M625.5,931.7h-30.1c-1,0-1.9,0.8-1.9,1.9v24.3c0,1,0.8,1.9,1.9,1.9h30.1c1,0,1.9-0.8,1.9-1.9v-24.3
					C627.4,932.5,626.6,931.7,625.5,931.7z"/>
				<path class="st28" d="M618.7,942.4c0,0,75.8,17.4,78.8,18.2c2.9,0.8,5.6,18.4,5.6,18.4h-19.3c0,0-4.6-10.8-10.1-12.1
					c-5.4-1.3-55-7.2-55-7.2V942.4z"/>
				<path class="st28" d="M601.3,941.4c0,0-75.8,17.4-78.8,18.2c-2.9,0.8-5.6,18.4-5.6,18.4h19.3c0,0,4.6-10.8,10.1-12.1
					c5.4-1.3,55-7.2,55-7.2V941.4z"/>
				<path class="st28" d="M617,941.4c0,0-34.1,17.4-35.4,18.2c-1.3,0.8-2.5,18.4-2.5,18.4h8.7c0,0,2.1-10.8,4.5-12.1
					s24.7-7.2,24.7-7.2V941.4z"/>
				<path class="st28" d="M713,989.3c-0.5-10.8-9.4-19.4-20.3-19.4s-19.8,8.6-20.3,19.4H713z"/>
				<circle class="st27" cx="527.8" cy="990.2" r="13.8"/>
				<path class="st28" d="M548.2,989.3c-0.5-10.8-9.4-19.4-20.3-19.4s-19.8,8.6-20.3,19.4H548.2z"/>
				<path class="st27" d="M587.3,977.1c-1.6,0-3.1,1.7-4.1,4.5c-1-2.7-2.5-4.5-4.1-4.5c-3.1,0-5.6,6.2-5.6,13.8
					c0,7.6,2.5,13.8,5.6,13.8c1.6,0,6.7,0,8.3,0c3.1,0,5.6-6.2,5.6-13.8C593,983.2,590.5,977.1,587.3,977.1z"/>
				<path class="st28" d="M587.3,970.5c-1.5,0-2.9,1-4.1,2.7c-1.2-1.7-2.6-2.7-4.1-2.7c-4.5,0-8.1,8.6-8.3,19.4h8.3h8.3h8.3
					C595.4,979.1,591.8,970.5,587.3,970.5z"/>
			</g>
			<path class="st18" d="M575.7,531.7c0,0,9.3,2,10.8,8.1s-5.1,26.4-5.1,26.4l-10.7-31.9L575.7,531.7z"/>
			<path class="st18" d="M443,742.8h-14.2v-8.2c0-1.2,1-2.2,2.2-2.2h9.8c1.2,0,2.2,1,2.2,2.2V742.8z"/>
			<path class="st48" d="M770.4,965.4l7.8,22.5c0,0,30.2-5.4,27.2-7.7c-9.7-7.5-16.1-29.4-16.1-29.4L770.4,965.4z"/>
			<path class="st49" d="M773.1,1007.5h110.7v-6.8c0,0-11.9-13.5-21.1-16.4c-9.1-2.9-32.8-2.9-38.5-3.2c-5.6-0.3-10.2-6.1-14.7-7.7
				c-4.6-1.6-6.5-2.2-6.5-2.2s-5.7,6.4-8,9c-2.3,2.6-13.9,3.2-16.8,3.2c-2.8,0-2.8,0-2.8,0S768.6,1002.7,773.1,1007.5z"/>
			<path class="st49" d="M785.3,859.9c0,0,17.4,24.8,19.9,27.3s12.2,4,12.2,4l8-2c0,0-0.9-22.2-11.1-30.4
				c-10.2-8.3-13.1-13.4-13.1-13.4L785.3,859.9z"/>
			<polygon class="st50" points="676.2,853.5 666.9,841.2 538.3,841.2 438,547.4 549.9,547.4 			"/>
			<path class="st51" d="M431.6,549.9l6.4-2.5l88,230.1l-24.7,2.5l-77.4-213C421.4,560.1,424.8,552.5,431.6,549.9z"/>
			<polygon class="st52" points="759.5,823.5 797.6,961.8 769.4,971.2 715.5,858.8 666.5,852.9 678.3,849 755,823.5 			"/>
			<path class="st53" d="M604.5,626.5c0,0,9.6,5,14.3,12.7c4.7,7.7,41.4,83.7,41.4,83.7l3-57.9c0,0,19.1-5.1,25.2,2.8l2.2,104.4
				l-61.5-13L604.5,626.5z"/>
			<path class="st52" d="M616.3,689.9c0.4,1.2,49.9,80.2,53.5,72.7s8.4-82.3,8.4-82.3l5.3,0.7c0,0,7.2,92.8,1.5,95.8
				s-51.7-6.7-53.8-12.1C629.1,759.4,616.3,689.9,616.3,689.9z"/>
			<path class="st35" d="M682.9,659.6l6.5-36.7l-1-1.7c0,0-3.9,2.1-4.2,3.9c-0.4,1.8-1.9,6.4-1.9,6.4s2.7-29.7,2.9-30.9
				c0.2-1.3-3.2-3.9-4.1-2.8s-5.6,23.5-5.6,23.5s-2.9-28.9-3-30.2c-0.1-1.3-3.6-1.3-4.7-0.7c-1.1,0.6-2.1,26.1-2.1,26.1
				s-9.9-25.7-10.1-26.7s-3.9-2.9-5-1.3c-1.1,1.5,6.3,40.8,6.3,40.8l-0.3,9.9l-0.9,6.3c0,0,8.4,9.7,10.8,10.7l0.1,13.1l16.6,1.5
				L682.9,659.6z"/>
			<path class="st29" d="M631.2,655.3c0,0,5.9-11.3,8.7-20.7c2.8-9.4,8.2-46,8.2-46s4-0.9,4.4,0.6c0.4,1.5,0,27-0.2,28
				c-0.1,0.9-0.1,0.9-0.1,0.9s11.7-23.4,14.5-29.6c0,0,4,0.9,3.2,3.2c-0.8,2.3-7.6,28.6-7.6,28.6l18.8-22.7c0,0,2.6,2,1.2,4.8
				s-13.7,23.9-13.7,23.9l19.8-5.3c0,0,0.4,2-2,3.9s-20.7,12.9-21.2,14.1c-0.5,1.2-7,11.6-9,12.8c-2.1,1.1-5.4,3.2-5.4,3.2l-8.4,14
				L631.2,655.3z"/>
			<path class="st54" d="M540.7,615.6h33.8c26.2,8.4,40,12.2,44.4,31.9c7.8,34.8-8.2,77.4,44.3,118c0,0-98.6,36-127.1,9.8
				c-19.6-17.9-30.6-106.3-33.3-121.7C500.1,638.2,540.7,615.6,540.7,615.6z"/>
			<path class="st29" d="M576.4,619.3c0,0-5.3-35-5.5-35.5c-0.2-0.5-34.2-7.4-34.2-7.4l3.7,42.9l31.4,6.2L576.4,619.3z"/>
			<path class="st35" d="M574.5,607.1c-0.2-1.6-0.5-3.3-0.8-5l-17.4-21.5c-9.3-2-19.7-4-19.7-4l3.7,42.9l16.1,3.2l-10-17.5
				c0,0,0,0,6.1,1.8C557.1,608.2,568.9,607.5,574.5,607.1z"/>
			<path class="st52" d="M504.5,645.7c0,0,25.5,13.4,45.3,52.7c19.4,38.3,52.7,63,52.7,63l-66.9,1.3l-33-107
				C502.7,655.7,501.9,653.1,504.5,645.7z"/>
			<path class="st55" d="M539.7,613.2l-2.9,4.7c0,0,37.9,39.4,49.8,67.2c0,0-0.9-53.2-5.4-66.2l-5.6-6.3l-6,9.8l-21.1-9.8
				L539.7,613.2z"/>
			<path class="st53" d="M501.9,653.6c0,0,5.1-12,14.1-9.9c8.9,2.1,25.7,35.2,30,48.5s17.9,43.8,17.9,43.8l63.5-84.4l21.4,14.6
				c0,0-47.8,109.3-63.9,117.1c-16.1,7.8-34,18.1-48.8-1.1C521.3,762.9,497,669.2,501.9,653.6z"/>
			<path class="st52" d="M640.6,660.6c-9.2,15.5-56.9,95.1-69.2,102c-13.6,7.7-21.9,15.6-35.4-15.2c-3.3-7.6-25.4-72.9-32.3-97.2
				c-1.2,1.8-1.9,3.3-1.9,3.3c-4.9,15.6,19.5,109.3,34.2,128.5c14.8,19.2,32.6,8.9,48.8,1.1s63.9-117.1,63.9-117.1L640.6,660.6z"/>
			<rect x="579.6" y="783.4" class="st56" width="241.8" height="80.2"/>
			<g>
				<rect x="982.6" y="680.4" class="st15" width="2.5" height="45.6"/>
				<rect x="980.1" y="680.4" class="st16" width="2.5" height="45.6"/>
				<path class="st17" d="M982.6,672.2l-2.5,8.2c1.5,1.5,2.5,0,2.5,0s1,1.5,2.5,0L982.6,672.2z"/>
				<polygon class="st18" points="982.6,672.2 981.4,676.2 983.8,676.2 				"/>
			</g>
			<g>
				<path class="st18" d="M1009.3,688.5l-0.8-0.4c-0.7-0.4-1.6-0.1-2,0.6l-2.7,5.2l3.5,1.8l2.7-5.2
					C1010.3,689.8,1010.1,688.9,1009.3,688.5z"/>
				
					<rect x="992.5" y="694.8" transform="matrix(0.8881 0.4596 -0.4596 0.8881 439.106 -378.1546)" class="st18" width="7.4" height="36"/>
				
					<rect x="1000.8" y="694.4" transform="matrix(0.8881 0.4596 -0.4596 0.8881 432.2359 -384.1365)" class="st19" width="8.5" height="2.5"/>
				
					<rect x="1004.7" y="695.7" transform="matrix(0.8881 0.4596 -0.4596 0.8881 436.944 -383.1152)" class="st19" width="1.3" height="20.3"/>
			</g>
			<g>
				<path class="st20" d="M991.7,686.3l-0.9-0.2c-0.8-0.2-1.6,0.4-1.7,1.2l-1.1,5.8l3.9,0.7l1.1-5.8
					C993,687.2,992.5,686.4,991.7,686.3z"/>
				
					<rect x="982.5" y="695.3" transform="matrix(0.983 0.1835 -0.1835 0.983 147.6391 -168.8587)" class="st20" width="7.4" height="36"/>
				
					<rect x="985.5" y="693.1" transform="matrix(0.983 0.1835 -0.1835 0.983 144.2255 -169.8286)" class="st19" width="8.5" height="2.5"/>
				
					<rect x="992.2" y="693.9" transform="matrix(0.983 0.1835 -0.1835 0.983 146.0546 -170.2491)" class="st19" width="1.3" height="20.3"/>
			</g>
			<g>
				<path class="st21" d="M968,686.2l-0.9,0.3c-0.8,0.3-1.2,1.2-0.9,1.9l2.1,5.5l3.7-1.4L970,687C969.7,686.3,968.8,685.9,968,686.2
					z"/>
				
					<rect x="973.6" y="694.1" transform="matrix(0.9361 -0.3518 0.3518 0.9361 -188.0433 389.2995)" class="st21" width="7.4" height="36"/>
				
					<rect x="966.3" y="692.9" transform="matrix(0.9361 -0.3518 0.3518 0.9361 -182.1355 385.7646)" class="st19" width="8.5" height="2.5"/>
				
					<rect x="977.6" y="690.6" transform="matrix(0.9361 -0.3518 0.3518 0.9361 -183.9724 388.9083)" class="st19" width="1.3" height="20.3"/>
			</g>
			<rect x="966" y="713.4" class="st57" width="37" height="47"/>
			<g>
				<path class="st42" d="M911,727.5h45.6c0,0,1.4,29.3-22.8,29.3C908.7,756.8,911,727.5,911,727.5z"/>
				<path class="st43" d="M915.1,730.7h30.3c0,0,0.9,25.5-15.1,25.5C913.6,756.2,915.1,730.7,915.1,730.7z"/>
				<path class="st43" d="M954.2,755.5h-40.8c-1.8,0-2.7,2.2-1.5,3.4l0.8,0.8c0.4,0.4,0.9,0.6,1.5,0.6h39.3c0.6,0,1.2-0.3,1.5-0.7
					l0.7-0.8C956.9,757.5,955.9,755.5,954.2,755.5z"/>
			</g>
			<rect x="367.6" y="758.9" class="st58" width="665.8" height="29.6"/>
			<rect x="821.4" y="788.4" class="st58" width="190.6" height="208.8"/>
			<g>
				<rect x="825.5" y="997.3" class="st59" width="13" height="11.9"/>
				<rect x="995" y="997.3" class="st59" width="13" height="11.9"/>
			</g>
			<rect x="389" y="788.4" class="st58" width="190.6" height="208.8"/>
			<rect x="821.4" y="788.4" class="st59" width="190.6" height="28.3"/>
			<rect x="389" y="788.4" class="st59" width="190.6" height="28.3"/>
			<g>
				<rect x="393" y="997.3" class="st59" width="13" height="11.9"/>
				<rect x="562.6" y="997.3" class="st59" width="13" height="11.9"/>
			</g>
			<path class="st60" d="M669.7,758.9c0,0,6.9-9.3,18.8-10.8c11.9-1.5,25.6,3.2,29.3,6.3c3.6,3.2,3.8,4.5,3.8,4.5H669.7z"/>
			<path class="st61" d="M965.7,573.8H741.9c-4,0-7.2,3.2-7.2,7.2v134.4c0,4,3.2,7.2,7.2,7.2h223.8c4,0,7.2-3.2,7.2-7.2V581
				C972.9,577,969.7,573.8,965.7,573.8z"/>
			<path class="st60" d="M965.7,573.8H741.9c-0.5,0-0.9,0-1.4,0.1c-0.4,0.9-0.7,2-0.7,3.1v134.4c0,4,3.2,7.2,7.2,7.2h223.8
				c0.5,0,0.9,0,1.4-0.1c0.4-0.9,0.7-2,0.7-3.1V581C972.9,577,969.7,573.8,965.7,573.8z"/>
			<circle class="st61" cx="857.7" cy="639.6" r="13.6"/>
			<rect x="730.1" y="754.8" class="st61" width="102.1" height="4"/>
			<rect x="814.4" y="748.2" class="st62" width="52.6" height="10.6"/>
			<rect x="836.7" y="748.2" class="st62" width="52.6" height="10.6"/>
			<rect x="833.6" y="722.7" class="st61" width="48.3" height="36.2"/>
			
				<rect x="830.9" y="722.7" transform="matrix(-1 -1.224647e-16 1.224647e-16 -1 1664.4916 1481.51)" class="st62" width="2.7" height="36.2"/>
			<rect x="833.6" y="737.6" class="st60" width="48.3" height="21.3"/>
			<path class="st29" d="M575.3,531.7c-15.3-15.6-54.5-0.6-54.5,11.4c0,5.9,2.4,14.9,5.5,23.8c-2.7,1.7-6.7,4.6-6.8,6.3
				c-0.3,2.7,15.6,14.6,15.6,14.6v0c0.5,1,0.9,1.8,1.4,2.7c6,11.4,15.3,12.2,27.5,13.3c12.2,1.1,21.3-4.5,23.5-11.6
				C589.6,585.1,575.3,531.7,575.3,531.7z"/>
			<g>
				<path class="st63" d="M451,740h-30.3c-3,0-5.5,4.4-5.5,9.9h41.2C456.5,744.4,454,740,451,740z"/>
				<path class="st64" d="M443.7,742.8h-25.4c-0.2,0-0.5,0-0.7,0.1c-0.8,1.8-1.3,4.3-1.3,7h31.9
					C447.6,745.8,445.8,742.8,443.7,742.8z"/>
				<path class="st63" d="M463.2,749h-54.8c-5.4,0-9.9,4.4-9.9,9.9h74.5C473.1,753.4,468.7,749,463.2,749z"/>
				<path class="st64" d="M450.4,751.8h-41.9c-0.4,0-0.8,0-1.1,0.1c-1.4,1.8-2.2,4.3-2.2,7h52.4
					C456.8,754.8,453.9,751.8,450.4,751.8z"/>
			</g>
			<g>
				<polygon class="st18" points="433,738.1 415.8,647 490.3,590.5 493.7,595 422,649.4 438.6,737.1 				"/>
			</g>
			<g>
				
					<ellipse transform="matrix(0.9134 -0.407 0.407 0.9134 -204.4885 260.9183)" class="st65" cx="511.1" cy="611.2" rx="8.3" ry="8.3"/>
				<g>
					<path class="st63" d="M503.6,575.1l-16.2,7.2c-1.6,0.7,0.2,8.2,3.9,16.7l22.1-9.8C509.6,580.6,505.2,574.3,503.6,575.1z"/>
					<path class="st64" d="M500.5,581.6l-11.1,4.9c-0.1,0-0.2,0.2-0.2,0.3c0.9,3,2.4,6.9,4.3,11.2l13.9-6.2
						C504.2,585.5,501.4,581.2,500.5,581.6z"/>
					<path class="st63" d="M513.9,587.2L489,598.4c-3.3,1.5-4.8,16-1,24.5l45.4-20.2C529.6,594.2,517.3,585.8,513.9,587.2z"/>
					<path class="st64" d="M508,595l-18.9,8.4c-0.2,0.1-2.2,8.7,0.7,18.6l29.6-13.2C516,602.7,510.1,594.1,508,595z"/>
				</g>
			</g>
			<circle class="st18" cx="419.3" cy="650.3" r="9.4"/>
			<circle class="st66" cx="419.3" cy="650.3" r="4.5"/>
			<path class="st18" d="M536,550.4c0,0,10-9.2,31.1-0.9c8.5,3.3,12.4-3.1,12.4-3.1s3-5.9,1.4-13.1c-1.5-7.2-15.2-23.9-42.7-16.2
				c-12.3,3.4-16.5,15.6-16.5,15.6s1.3-10.4,3.4-12.1c0,0-10.8,11.4-11.8,18s0,7.9,0,7.9s-3,14,0,21.4c4.6,11.6,21.9,20.4,21.9,20.4
				s-5-7.4-7.2-11.8c-2.3-4.4,3.2-8.4,5.3-7.3c2.1,1.1,4.6,5.8,4.6,5.8s1.9-11,1.1-15.6S536,550.4,536,550.4z"/>
			<path class="st67" d="M570.1,566.4c0,0,6.3,6.3,8,7.5c1.7,1.1-0.6,3.1-1,3.3c-0.4,0.1-0.8-1.4-1.9-2.3
				C574,574,568.2,564.5,570.1,566.4z"/>
			<path class="st18" d="M562.9,587.1c-0.4-0.3,4.9-5.8,7.9-6.5c2.9-0.7,7.2-2.6,9.9-1.3c2.7,1.4,4.9,2.8,4.9,3.7s-1.1,1.1-1.7,1.4
				c-0.6,0.3-2.4,0-3.1-0.1c-0.6-0.1-2-1.3-2-1.3s0.6,1.4-1,1.6s-2.6,0.4-3.5,0.8c-0.9,0.4-3.5,1.2-4.9,2.1
				c-1.4,0.9-3.9,1.4-5.1,1.4S562.9,587.1,562.9,587.1z"/>
			
				<ellipse transform="matrix(0.9248 -0.3804 0.3804 0.9248 -175.8074 253.766)" class="st18" cx="554" cy="571.6" rx="1.8" ry="2.6"/>
			
				<ellipse transform="matrix(0.9248 -0.3804 0.3804 0.9248 -172.032 261.3164)" class="st18" cx="575" cy="565.8" rx="1.8" ry="2.6"/>
			<path class="st18" d="M571,562.2c0,0,1-3.1,4-3.5c3-0.4,6.2,1.3,6.3,0.9c0-0.4-0.7-1.1-2.7-1.9c-2-0.7-3.8-1.4-5-0.5
				C572.4,558,569.1,563.7,571,562.2z"/>
			<path class="st18" d="M560.8,565.2c0,0-2.5-2.8-5.9-1.8c-3.3,1-5.9,4.4-6.2,4s0.2-1.5,2-3.3c1.8-1.7,3.3-3.3,5-3
				C557.4,561.5,563.6,565.8,560.8,565.2z"/>
			<path class="st68" d="M574.2,546.4c-0.1-0.9,1.6-14.4-10.5-16.2c-12.1-1.8-22.6-3.6-27.7,0s-11,11-12.1,10s5.1-16.2,12.9-18.9
				c7.8-2.7,23.1-5.5,30.7-0.9c7.5,4.7,11.8,10.1,12.1,14.2C579.8,538.7,574.2,546.4,574.2,546.4z"/>
		</g>
	</g>
</g>
<g id="text">
</g>
</svg>
