<?xml version="1.0" encoding="utf-8"?>
<!-- Generator: Adobe Illustrator 22.1.0, SVG Export Plug-In . SVG Version: 6.00 Build 0)  -->
<svg version="1.1" xmlns="http://www.w3.org/2000/svg" xmlns:xlink="http://www.w3.org/1999/xlink" x="0px" y="0px"
	 viewBox="0 0 1400 1000" style="enable-background:new 0 0 1400 1000;" xml:space="preserve">
<style type="text/css">
	.st0{fill:#F9F9F9;}
	.st1{fill:#E8EAE4;}
	.st2{fill:#5E92B6;}
	.st3{fill:#61D8D0;}
	.st4{fill:#83EAE0;}
	.st5{fill:#FF7B4A;}
	.st6{fill:#CACCC0;}
	.st7{fill:#FFFFFF;}
	.st8{opacity:5.000000e-02;fill:#070707;}
	.st9{fill:#F9A755;}
	.st10{opacity:5.000000e-02;}
	.st11{fill:#070707;}
	.st12{fill:#B75B60;}
	.st13{fill:#FFD194;}
	.st14{fill:#F2B370;}
	.st15{fill:#FF7945;}
	.st16{fill:#D6D6D4;}
	.st17{fill:#9E9D9D;}
	.st18{fill:#313E65;}
	.st19{fill:#AEC6CE;}
	.st20{fill:#94AAAF;}
	.st21{fill:#EEFFFF;}
	.st22{fill:#F49C76;}
	.st23{fill:#004D71;}
	.st24{fill:#FCCB54;}
	.st25{fill:#FFD829;}
	.st26{opacity:0.1;}
	.st27{opacity:0.15;}
	.st28{fill:#33C1B3;}
	.st29{opacity:0.38;}
	.st30{fill:#D48C1D;}
</style>
<g id="BACKGROUND">
	<rect class="st0" width="1400" height="1000"/>
</g>
<g id="OBJECTS">
	<g>
		<g>
			<path class="st1" d="M253.8,887.8l843.3-13.7c261.1-51.1,242.4-283.6,132.9-410.7c-118-136.9,107.4-259.1-44.2-351.8
				s-353.9,8.4-499.2,54.8S484.3,44.2,216.8,120s-4.2,290.7-115.9,524.5C34.1,784.5,146.6,877.6,253.8,887.8z"/>
			<g>
				<path class="st2" d="M285.2,527.6h-6.9v-42.4c0-1.9,1.5-3.4,3.4-3.4l0,0c1.9,0,3.4,1.5,3.4,3.4V527.6z"/>
			</g>
			<g>
				<g>
					
						<rect x="301.4" y="484.5" transform="matrix(0.9987 5.154097e-02 -5.154097e-02 0.9987 26.8065 -15.0694)" class="st3" width="8.3" height="55.4"/>
				</g>
				<g>
					
						<rect x="310.1" y="486.5" transform="matrix(0.9987 5.154971e-02 -5.154971e-02 0.9987 25.7212 -15.3966)" class="st3" width="2.6" height="8.8"/>
				</g>
				<g>
					<path class="st3" d="M314.6,508.7L314.6,508.7c-1.9-0.1-3.4-1.7-3.3-3.7l1-20.3l3.5,0.2L314.6,508.7z"/>
				</g>
				<g>
					<path class="st3" d="M309.2,487.5l-5-0.3l0.2-3.5c0.1-1.4,1.3-2.5,2.6-2.4l0,0c1.4,0.1,2.5,1.3,2.4,2.6L309.2,487.5z"/>
				</g>
			</g>
			<g>
				<polygon class="st4" points="280.8,573.9 273.1,574.6 264.8,483.2 267.9,474.4 272.5,482.5 				"/>
			</g>
			<g>
				<polygon class="st5" points="297.3,574.7 289.6,574.7 289.5,482.9 293.4,474.4 297.3,482.8 				"/>
			</g>
			<g>
				<g>
					<rect x="995.9" y="233.9" class="st6" width="143.6" height="182"/>
				</g>
				<g>
					
						<rect x="996.4" y="272.8" transform="matrix(-1.836970e-16 1 -1 -1.836970e-16 1392.5562 -742.7951)" class="st7" width="142.6" height="104.2"/>
				</g>
			</g>
			<rect x="1107.4" y="233.9" class="st8" width="32.1" height="182"/>
			<g>
				<g>
					<rect x="804.9" y="233.9" class="st6" width="143.6" height="182"/>
				</g>
				<g>
					
						<rect x="805.4" y="272.8" transform="matrix(-1.836970e-16 1 -1 -1.836970e-16 1201.5649 -551.804)" class="st7" width="142.6" height="104.2"/>
				</g>
			</g>
			<rect x="916" y="233.9" class="st8" width="32.4" height="182"/>
			<g>
				<g>
					<path class="st9" d="M932.4,664.4H740.7V458.1h152.9c21.5,0,38.9,17.4,38.9,38.9V664.4z"/>
				</g>
			</g>
			<g class="st10">
				<path class="st11" d="M893.5,458.1h-19.8c21.5,0,38.9,17.4,38.9,38.9v167.4h19.8V497C932.4,475.5,915,458.1,893.5,458.1z"/>
			</g>
			<g>
				<g>
					<path class="st12" d="M902.2,564.8c-3.5-12.5-13.5-22.9-14.7-35.9c-1.4-15.4,10.1-30.8,5.8-45.7c-0.9-3.2-2.5-6.1-4.5-8.7
						c-11.8-15.5-19.1-34-19.1-53.5v-25.3c0-40.8-33.1-73.9-73.9-73.9h0c-40.8,0-73.9,33.1-73.9,73.9v26.5c0,17.6-6.2,34.5-16.3,49
						c-2.9,4.2-5.1,9-6.3,14.1c-3,13,0.8,27.3,9.7,37.2c5.1,5.6,11.7,9.8,17.3,14.9c5.6,5.1,10.5,11.9,10.6,19.5
						c0.1,4.4-1.5,8.6-2.2,12.9c-3.3,18.7,9,37.6,25.3,47.2c16.4,9.7,36,11.8,55,12.3c21.1,0.5,43.2-1,61.4-11.7
						C894.9,607.2,907.9,585.2,902.2,564.8z"/>
				</g>
			</g>
			<g>
				<g>
					<path class="st13" d="M599.3,658.1c-0.8,0-1.4,0-2.1,0c-8.9-0.2-16-7.5-15.9-16.5c0.2-8.8,7.4-15.9,16.2-15.9
						c0.1,0,0.2,0,0.3,0c12.4,0.2,55.2-1.7,87.8-35.5c23.1-24,29.7-52.1,31.5-66.8c1.1-8.9,9.2-15.1,18.1-14
						c8.9,1.1,15.1,9.2,14,18.1c-2.3,18.6-10.7,54.4-40.3,85.2C668.9,654.2,617.2,658.1,599.3,658.1z"/>
				</g>
			</g>
			<g>
				<g>
					<g>
						<polygon class="st3" points="626.1,661.7 579,661.7 571.2,575.3 633.9,575.3 						"/>
					</g>
				</g>
				<g>
					<g>
						<path class="st3" d="M633.9,643.6h-25.1v-50.2h25.1c13.9,0,25.1,11.3,25.1,25.1S647.8,643.6,633.9,643.6z M618.1,634.3h15.8
							c8.7,0,15.8-7.1,15.8-15.8c0-8.7-7.1-15.8-15.8-15.8h-15.8V634.3z"/>
					</g>
				</g>
			</g>
			<g>
				<g>
					<path class="st13" d="M916.6,595.7c-48.7,0-69.6-43.8-73.9-67.3c-1.6-8.8,4.2-17.2,13-18.8c8.8-1.6,17.2,4.2,18.8,12.9
						c0.8,4.3,9,41.6,43.3,40.9c8.9-0.1,16.3,6.9,16.6,15.8c0.2,8.9-6.9,16.3-15.8,16.6C917.9,595.7,917.3,595.7,916.6,595.7z"/>
				</g>
			</g>
			<g>
				<polygon class="st13" points="813.9,510.4 777.7,510.4 784,475.7 813.9,475.7 				"/>
			</g>
			<g>
				<path class="st14" d="M784,475.7l-3.9,21.9c3.5,0.7,7.2,1,10.9,1c8.2,0,15.9-1.7,23-4.7v-18.3H784z"/>
			</g>
			<g>
				<g>
					<path class="st15" d="M856.9,671.6H725.1l4.5-150.8c0.2-7.2,6.1-12.9,13.3-12.9H848c7.5,0,13.5,6.2,13.3,13.7L856.9,671.6z"/>
				</g>
			</g>
			<g>
				<g>
					<g>
						<path class="st16" d="M913.1,562.6L913.1,562.6c-5.7,0-10.2-4.6-10.2-10.2v-28.9h-72.2v39.1v41v0.9
							c0,15.1,12.3,27.4,27.4,27.4h85.4v-38.9C943.5,576.2,929.9,562.6,913.1,562.6z"/>
					</g>
				</g>
				<g>
					<g>
						<g>
							<path class="st16" d="M851.4,539.7h-20.7v-30.9c0-0.9,0.7-1.6,1.6-1.6l0,0c10.5,0,19,8.5,19,19V539.7z"/>
						</g>
					</g>
					<g>
						<g>
							<path class="st16" d="M882.2,539.7h20.7v-30.9c0-0.9-0.7-1.6-1.6-1.6l0,0c-10.5,0-19,8.5-19,19V539.7z"/>
						</g>
					</g>
				</g>
				<g>
					<g>
						<g>
							<path class="st17" d="M859.7,536.4L859.7,536.4c-1.5,0-2.6-1.2-2.6-2.6v-10.3h5.3v10.3C862.4,535.3,861.2,536.4,859.7,536.4z
								"/>
						</g>
					</g>
					<g>
						<g>
							<path class="st17" d="M869.9,536.4L869.9,536.4c-1.5,0-2.6-1.2-2.6-2.6v-10.3h5.3v10.3C872.5,535.3,871.4,536.4,869.9,536.4z
								"/>
						</g>
					</g>
				</g>
				<g>
					<g>
						<g>
							<g>
								<path class="st7" d="M885,545.3c0,2.9-2.4,5.3-5.3,5.3c-2.9,0-5.3-2.4-5.3-5.3c0-2.9,2.4-5.3,5.3-5.3
									C882.6,540,885,542.4,885,545.3z"/>
							</g>
						</g>
						<g>
							<g>
								<path class="st18" d="M881.6,545.3c0,1.7-1.4,3-3,3c-1.7,0-3-1.4-3-3c0-1.7,1.4-3,3-3C880.3,542.3,881.6,543.6,881.6,545.3z
									"/>
							</g>
						</g>
					</g>
					<g>
						<g>
							<g>
								<path class="st7" d="M852.1,545.3c0,2.9-2.4,5.3-5.3,5.3s-5.3-2.4-5.3-5.3c0-2.9,2.4-5.3,5.3-5.3S852.1,542.4,852.1,545.3z"
									/>
							</g>
						</g>
						<g>
							<g>
								<path class="st18" d="M848.8,545.3c0,1.7-1.4,3-3,3c-1.7,0-3-1.4-3-3c0-1.7,1.4-3,3-3C847.4,542.3,848.8,543.6,848.8,545.3z
									"/>
							</g>
						</g>
					</g>
				</g>
				<g>
					<g>
						<g>
							<path class="st16" d="M940.4,631.9h-15.8c-4.2,0-7.5-3.4-7.5-7.5c0-4.2,3.4-7.5,7.5-7.5h15.8c20.5,0,37.2-16.7,37.2-37.2
								c0-4.2,3.4-7.5,7.5-7.5c4.2,0,7.5,3.4,7.5,7.5C992.7,608.4,969.2,631.9,940.4,631.9z"/>
						</g>
					</g>
				</g>
				<g>
					<g>
						<path class="st17" d="M843.2,585.5c-4.5,0-8.7,1-12.5,2.9v16.1c0,15.1,12.3,27.4,27.4,27.4h8.2c3.7-4.9,5.9-10.9,5.9-17.4
							C872.1,598.5,859.2,585.5,843.2,585.5z"/>
					</g>
				</g>
				<g>
					<g>
						<g>
							<g>
								<g>
									<g>
										<path class="st17" d="M860.3,555.6h4.1c1.2,0,1.9,1.4,1.2,2.4l-2,2.6c-0.6,0.8-1.7,0.8-2.3,0l-2-2.6
											C858.4,557,859.1,555.6,860.3,555.6z"/>
									</g>
								</g>
							</g>
						</g>
					</g>
					<g>
						<g>
							<g>
								<path class="st17" d="M862.4,565.4c-0.5,0-0.9-0.4-0.9-0.9v-7.4c0-0.5,0.4-0.9,0.9-0.9c0.5,0,0.9,0.4,0.9,0.9v7.4
									C863.2,565,862.8,565.4,862.4,565.4z"/>
							</g>
						</g>
					</g>
					<g>
						<g>
							<g>
								<path class="st17" d="M857.5,568.9c-0.3,0-0.5-0.1-0.7-0.4c-0.3-0.4-0.2-0.9,0.2-1.2l4.9-3.6c0.4-0.3,0.9-0.2,1.2,0.2
									c0.3,0.4,0.2,0.9-0.2,1.2l-4.9,3.6C857.8,568.9,857.7,568.9,857.5,568.9z"/>
							</g>
						</g>
					</g>
					<g>
						<g>
							<g>
								<path class="st17" d="M867.3,568.9c-0.2,0-0.4-0.1-0.5-0.2l-4.9-3.6c-0.4-0.3-0.5-0.8-0.2-1.2c0.3-0.4,0.8-0.5,1.2-0.2
									l4.9,3.6c0.4,0.3,0.5,0.8,0.2,1.2C867.8,568.8,867.5,568.9,867.3,568.9z"/>
							</g>
						</g>
					</g>
				</g>
				<g>
					<g>
						<path class="st17" d="M913.1,562.6c-2.6,0-5-1-6.8-2.7c-3.1,4.3-4.9,9.6-4.9,15.3c0,14.8,12,26.7,26.7,26.7
							c5.7,0,11-1.8,15.3-4.8v-4.2C943.5,576.2,929.9,562.6,913.1,562.6z"/>
					</g>
				</g>
			</g>
			<g>
				<g>
					<rect x="334.9" y="377.4" class="st19" width="344.8" height="219.5"/>
				</g>
				<g>
					<polygon class="st20" points="520.1,636.8 455.1,636.8 471.9,547.6 520.1,547.6 					"/>
				</g>
				<g>
					<path class="st19" d="M564,647.3H411.2l0,0c0-5.8,4.7-10.5,10.5-10.5h131.9C559.3,636.8,564,641.5,564,647.3L564,647.3z"/>
				</g>
				<g>
					<circle class="st21" cx="496.9" cy="478.6" r="17.1"/>
				</g>
			</g>
			<g>
				<path class="st13" d="M791,488.6L791,488.6c-32.5,0-58.9-26.4-58.9-58.9v-58.9h117.8v58.9C849.9,462.3,823.5,488.6,791,488.6z"
					/>
			</g>
			<g>
				<g>
					<path class="st13" d="M920.3,580.2l-9.8-4.1c-5.8-2.4-8.6-9.1-6.2-14.9l2.7-6.6c0.8-1.9,2.9-2.7,4.8-2l24.1,10
						c1.9,0.8,2.7,2.9,2,4.8l-2.7,6.6C932.8,579.9,926.1,582.6,920.3,580.2z"/>
				</g>
			</g>
			<g>
				<path class="st18" d="M753.4,421.8c0,2.4-1.9,4.3-4.3,4.3c-2.4,0-4.3-1.9-4.3-4.3c0-2.4,1.9-4.3,4.3-4.3
					C751.5,417.4,753.4,419.4,753.4,421.8z"/>
			</g>
			<g>
				<path class="st18" d="M808.2,421.8c0,2.4-1.9,4.3-4.3,4.3c-2.4,0-4.3-1.9-4.3-4.3c0-2.4,1.9-4.3,4.3-4.3
					C806.3,417.4,808.2,419.4,808.2,421.8z"/>
			</g>
			<g>
				<g>
					<path class="st14" d="M781.6,450c-0.1,0-0.3,0-0.4-0.1c-1.7-0.5-3.1-1.6-3.9-3.2c-0.8-1.6-1-3.4-0.4-5.1l1.9-5.7
						c0.2-0.7,1-1.1,1.7-0.9c0.7,0.2,1.1,1,0.9,1.7l-1.9,5.7c-0.3,1-0.2,2,0.2,3c0.5,0.9,1.3,1.6,2.3,1.9c0.7,0.2,1.1,1,0.9,1.7
						C782.8,449.7,782.2,450,781.6,450z"/>
				</g>
			</g>
			<g>
				<g>
					<path class="st14" d="M783.3,466.4c-2.6,0-4.9-1.2-6.3-2.3c-0.6-0.5-0.7-1.3-0.2-1.9c0.5-0.6,1.3-0.7,1.9-0.2
						c0.2,0.1,4.6,3.7,8.2,0.1c0.5-0.5,1.4-0.5,1.9,0c0.5,0.5,0.5,1.4,0,1.9C787.1,465.8,785.2,466.4,783.3,466.4z"/>
				</g>
			</g>
			<g>
				<path class="st22" d="M839.6,446.6c-6.7,0-12.1,5.4-12.1,12.1c0,4.8,2.8,8.9,6.8,10.8c5.5-5.9,9.7-12.9,12.4-20.7
					C844.6,447.5,842.2,446.6,839.6,446.6z"/>
			</g>
			<g>
				<path class="st22" d="M755.1,462.9c0-6.7-5.4-12.1-12.1-12.1c-2.3,0-4.5,0.7-6.3,1.8c3.2,7.6,7.9,14.3,13.8,19.8
					C753.3,470.2,755.1,466.8,755.1,462.9z"/>
			</g>
			<g>
				<rect x="804.1" y="631.9" class="st7" width="179.3" height="29.8"/>
			</g>
			<g>
				<g>
					<g>
						<path class="st23" d="M977.1,638.3H810.3c-0.2,0-0.4-0.2-0.4-0.4c0-0.2,0.2-0.4,0.4-0.4h166.8c0.2,0,0.4,0.2,0.4,0.4
							C977.6,638.1,977.4,638.3,977.1,638.3z"/>
					</g>
				</g>
				<g>
					<g>
						<path class="st23" d="M977.1,643.3H810.3c-0.2,0-0.4-0.2-0.4-0.4c0-0.2,0.2-0.4,0.4-0.4h166.8c0.2,0,0.4,0.2,0.4,0.4
							C977.6,643.1,977.4,643.3,977.1,643.3z"/>
					</g>
				</g>
			</g>
			<g>
				<path class="st12" d="M832.9,362.8c0,0-60.8,45.5-105.6,38.9l2.4-33.9L832.9,362.8z"/>
			</g>
			<g>
				<path class="st12" d="M807.3,359c0,0,15.5,46.4,48.3,52l1.5-48.2L807.3,359z"/>
			</g>
			<g>
				<path class="st13" d="M861.8,420.8c-5.9,6.9-14.8,8.9-19.9,4.5c-5.1-4.4-4.4-13.5,1.5-20.3c5.9-6.9,14.8-8.9,19.9-4.5
					C868.4,404.8,867.7,413.9,861.8,420.8z"/>
			</g>
			<g>
				<g>
					<g>
						<path class="st7" d="M752.8,445.4c-14.1,0-25.5-11.5-25.5-25.5c0-14.1,11.5-25.5,25.5-25.5s25.5,11.5,25.5,25.5
							C778.3,433.9,766.9,445.4,752.8,445.4z M752.8,397.9c-12.1,0-21.9,9.8-21.9,21.9c0,12.1,9.8,21.9,21.9,21.9
							s21.9-9.8,21.9-21.9C774.7,407.8,764.9,397.9,752.8,397.9z"/>
					</g>
				</g>
				<g>
					<g>
						<path class="st7" d="M807.3,445.4c-14.1,0-25.5-11.5-25.5-25.5c0-14.1,11.5-25.5,25.5-25.5c14.1,0,25.5,11.5,25.5,25.5
							C832.9,433.9,821.4,445.4,807.3,445.4z M807.3,397.9c-12.1,0-21.9,9.8-21.9,21.9c0,12.1,9.8,21.9,21.9,21.9
							c12.1,0,21.9-9.8,21.9-21.9C829.3,407.8,819.4,397.9,807.3,397.9z"/>
					</g>
				</g>
			</g>
			<g>
				<g>
					<polygon class="st24" points="313.8,618.3 267.6,618.3 262.7,517.8 318.7,517.8 					"/>
				</g>
				<g class="st10">
					<polygon class="st11" points="313.1,517.8 308.3,618.3 313.8,618.3 318.7,517.8 					"/>
				</g>
				<g class="st10">
					<polygon class="st11" points="262.8,518.7 263.6,535.1 317.9,535.1 318.7,518.7 					"/>
				</g>
				<g>
					<rect x="258.9" y="514.5" class="st25" width="63.6" height="16.4"/>
				</g>
				<g class="st10">
					<rect x="313.5" y="514.5" class="st11" width="9" height="16.4"/>
				</g>
			</g>
			<g>
				<rect x="775.4" y="502.9" class="st15" width="41.3" height="12.8"/>
			</g>
			<g>
				<rect x="249" y="665.2" class="st24" width="776.7" height="253.2"/>
			</g>
			<g class="st10">
				<rect x="249" y="671.6" class="st11" width="776.7" height="32.4"/>
			</g>
			<g>
				<path class="st5" d="M239.6,621.8h160.8v-6.1H237.4c-2.8,0-5.1,2.3-5.1,5.1v21.5c0,2.8,2.3,5.1,5.1,5.1h162.9v-6.1H239.6V621.8z
					"/>
			</g>
			<g>
				<rect x="239.8" y="621.8" class="st7" width="151.3" height="19.4"/>
			</g>
			<g class="st26">
				<path class="st7" d="M615.7,377.4H334.9v159.9c12.7,1.6,25.7,2.4,39,2.4C497.3,539.7,599.3,469.1,615.7,377.4z"/>
			</g>
			<g class="st27">
				<path class="st7" d="M646.6,647.3H214.1v35.9H249v20.8v154.1c29.3,7.8,60.4,12,92.8,12C497,870.1,625.4,773.2,646.6,647.3z"/>
			</g>
			<g>
				<rect x="214.1" y="647.3" class="st9" width="846.5" height="35.9"/>
			</g>
			<path class="st8" d="M1025.7,669.8l-53.7,25.2c0,0-32.6,45.3-2.1,56.9s-25.3,26.3-25.3,26.3v51.6h24.2l17.9,88.5h39V669.8z"/>
			<g>
				<g>
					<path class="st28" d="M1070.7,767.1c31.5,6.5,64.4,6.1,95.8-1.2c6.2-1.4,13.2-3.9,15.3-9.8c1.5-4.1,0.2-8.6-1.2-12.6
						c-4.8-13.6-11.6-26.7-14.9-40.7c-2-8.4-2.6-17.5,1.1-25.3c3.9-8.1,11.7-13.3,18.5-19.1c8.4-7.2,15.6-15.8,21.2-25.3
						c5.5-9.4,9.4-21.7,3.6-31c-2.6-4.2-6.8-7.1-11.1-9.7c-28.7-17.1-63-21.8-96.3-23.2c-12.6-0.5-25.6-0.6-36.9,6.1
						c-2.9,1.7-5.5,3.9-7.6,6.5c-10.8,13.3-4.1,27.8,1.6,40.8c4.4,10,8.3,21.8,3.4,31.6c-8.8,17.6-39.7,16.7-39.2,41.7
						c0.1,6.5,2.5,12.7,6.2,18l18.9,27.4C1055.3,750.7,1062.6,759.3,1070.7,767.1L1070.7,767.1z"/>
				</g>
				<g class="st10">
					<path class="st11" d="M1210,602c-2.6-4.2-6.8-7.1-11.1-9.7c-28.7-17.1-63-21.8-96.3-23.2c-6-0.2-12-0.4-18,0.3
						c31.5,1.7,63.5,6.8,90.4,22.9c4.2,2.5,8.5,5.5,11.1,9.7c5.8,9.3,1.9,21.6-3.6,31c-5.6,9.5-12.8,18.1-21.2,25.3
						c-6.8,5.8-14.6,11-18.5,19.1c-3.7,7.8-3.1,16.9-1.1,25.3c3.3,14.1,10,27.1,14.9,40.7c1.4,4.1,2.7,8.6,1.2,12.6
						c-2.2,6-9.1,8.4-15.3,9.8c-12.7,2.9-25.7,4.7-38.7,5.4c21,1.1,42.1-0.6,62.6-5.4c6.2-1.4,13.2-3.9,15.3-9.8
						c1.5-4.1,0.2-8.6-1.2-12.6c-4.8-13.6-11.6-26.7-14.9-40.7c-2-8.4-2.6-17.5,1.1-25.3c3.9-8.1,11.7-13.3,18.5-19.1
						c8.4-7.2,15.6-15.8,21.2-25.3C1212,623.5,1215.8,611.3,1210,602z"/>
				</g>
				<g>
					<g>
						<path class="st18" d="M1062.7,893.8c-0.7,0-1.4-0.5-1.7-1.2c-12.8-36.9-4.9-95,23.3-172.6c21-57.7,46-105.2,46.3-105.7
							c0.5-0.9,1.6-1.2,2.4-0.8c0.9,0.5,1.2,1.6,0.8,2.4c-1,1.9-99.2,189.2-69.3,275.5c0.3,0.9-0.2,2-1.1,2.3
							C1063.1,893.8,1062.9,893.8,1062.7,893.8z"/>
					</g>
				</g>
				<g>
					<path class="st3" d="M1039.9,766.5c24.9-7.7,48-20.8,67.5-38.1c3.8-3.4,7.8-7.9,7-12.9c-0.5-3.5-3.2-6.1-5.8-8.5
						c-8.7-7.8-18.6-14.4-26.4-23.1c-4.7-5.2-8.7-11.4-9.1-18.4c-0.4-7.2,3.1-14,5.7-20.7c3.2-8.4,4.9-17.2,5.2-26.2
						c0.3-8.8-1.8-19-9.5-23.4c-3.5-2-7.6-2.4-11.6-2.5c-27-1-53.1,9-77.3,21c-9.1,4.5-18.3,9.5-23.7,18.7c-1.4,2.3-2.4,4.9-2.9,7.6
						c-2.5,13.6,7.9,21.3,17,28.3c7,5.4,14.3,12.3,14.7,21.1c0.6,15.9-21.7,27.3-11.6,44.8c2.6,4.5,6.7,8,11.4,10.4l24.1,12.1
						C1022.6,760.9,1031.1,764.2,1039.9,766.5L1039.9,766.5z"/>
				</g>
				<g class="st29">
					<path class="st28" d="M1114.4,715.5c-0.5-3.5-3.2-6.1-5.8-8.5c-8.7-7.8-18.6-14.4-26.4-23.1c-4.7-5.2-8.7-11.4-9.1-18.4
						c-0.4-7.2,3.1-14,5.7-20.7c3.2-8.4,4.9-17.2,5.2-26.2c0.3-8.8-1.8-19-9.5-23.4c-3.5-2-7.6-2.4-11.6-2.5
						c-4.9-0.2-9.8,0-14.6,0.5c2.2,0.4,4.3,1,6.2,2c7.7,4.3,9.7,14.5,9.5,23.4c-0.3,8.9-2,17.8-5.2,26.2c-2.6,6.8-6.1,13.5-5.7,20.7
						c0.4,7,4.4,13.2,9.1,18.4c7.8,8.7,17.7,15.3,26.4,23.1c2.6,2.3,5.3,5,5.8,8.5c0.8,5.1-3.2,9.5-7,12.9
						c-16.9,15.1-36.6,26.9-57.8,34.8c3.4,1.2,6.8,2.3,10.3,3.3c24.9-7.7,48-20.8,67.5-38.1C1111.2,725,1115.2,720.6,1114.4,715.5z"
						/>
				</g>
				<g>
					<g>
						<path class="st18" d="M1082.8,860c-0.4,0-0.9-0.2-1.2-0.5c-23.5-21.2-40.5-65.6-50.7-131.7c-7.6-49.1-8.3-92.5-8.3-93
							c0-1,0.8-1.8,1.8-1.8c0,0,0,0,0,0c1,0,1.8,0.8,1.8,1.8c0,1.7,3.2,172.6,57.8,222c0.7,0.7,0.8,1.8,0.1,2.5
							C1083.8,859.8,1083.3,860,1082.8,860z"/>
					</g>
				</g>
				<g>
					<g>
						<polygon class="st24" points="1113.8,918.4 1004.8,918.4 986.3,796.6 1132.4,796.6 						"/>
					</g>
					<g class="st10">
						<polygon class="st11" points="1120.9,796.6 1102.4,918.4 1113.8,918.4 1132.4,796.6 						"/>
					</g>
					<g class="st10">
						<polygon class="st11" points="986.3,796.6 990.7,825.9 1127.9,825.9 1132.4,796.6 						"/>
					</g>
					<g>
						<rect x="968.5" y="785.1" class="st30" width="181.6" height="32.2"/>
					</g>
					<g class="st10">
						<rect x="1120.9" y="785.1" class="st11" width="29.2" height="32.2"/>
					</g>
				</g>
			</g>
		</g>
		<circle class="st1" cx="1260.2" cy="368.1" r="31.1"/>
		<circle class="st1" cx="634.5" cy="109.3" r="32.5"/>
		<circle class="st1" cx="82.8" cy="510.1" r="22.2"/>
		<circle class="st1" cx="1266.7" cy="278.1" r="13.8"/>
	</g>
</g>
</svg>
