<?xml version="1.0" encoding="utf-8"?>
<!-- Generator: Adobe Illustrator 16.0.0, SVG Export Plug-In . SVG Version: 6.00 Build 0)  -->
<!DOCTYPE svg PUBLIC "-//W3C//DTD SVG 1.1//EN" "http://www.w3.org/Graphics/SVG/1.1/DTD/svg11.dtd">
<svg version="1.1" id="Layer_1" xmlns="http://www.w3.org/2000/svg" xmlns:xlink="http://www.w3.org/1999/xlink" x="0px" y="0px"
	 width="1408.968px" height="986.4px" viewBox="0 0 1408.968 986.4" enable-background="new 0 0 1408.968 986.4"
	 xml:space="preserve">
<rect x="-1" y="0" fill-rule="evenodd" clip-rule="evenodd" fill="#9AD9EB" width="1408.967" height="986.4"/>
<path fill-rule="evenodd" clip-rule="evenodd" fill="#54A7BA" d="M1293.382,853.463L1293.382,853.463
	c0,20.441-16.725,37.166-37.165,37.166H180.611c-20.441,0-37.165-16.725-37.165-37.166l0,0V647.887h1149.936V853.463z"/>
<path fill-rule="evenodd" clip-rule="evenodd" fill="#63CAE1" d="M1293.382,815.463L1293.382,815.463
	c0,20.44-16.725,37.165-37.165,37.165H180.611c-20.44,0-37.165-16.724-37.165-37.165l0,0V647.887h1149.936V815.463z"/>
<path fill-rule="evenodd" clip-rule="evenodd" fill="#63CAE1" d="M911.813,431.158h-21.262c-2.238,0-4.069-1.831-4.069-4.069
	v-58.486h-27.558v66.83c0,2.237-1.83,4.069-4.068,4.069h-65.183v88.284c0,2.236-1.831,4.069-4.069,4.069H591.24
	c-2.238,0-4.069-1.832-4.069-4.069v-89.559c0-2.239,1.832-4.069,4.069-4.069h65.182v-63.812h-86.871
	c-2.238,0-4.069-1.831-4.069-4.069v-64.569h-61.74v52.919c0,2.237-1.831,4.069-4.069,4.069H398.405v0.03v42.628H529.35
	c2.237,0,4.07,2.391,4.07,5.311v116.879c0,2.92-1.832,5.311-4.07,5.311H334.986c-2.238,0-4.069-2.39-4.069-5.311v-71.189h-34.476
	c-2.238,0-4.069-1.831-4.069-4.069v-89.559c0-2.238,1.833-4.069,4.069-4.069h4.798l0-0.03v-89.559c0-2.238,1.832-4.069,4.069-4.069
	h183.907V208.08c0-2.238,1.833-4.069,4.069-4.069h97.894c2.237,0,4.069,1.833,4.069,4.069v64.569h72.197
	c2.236,0,4.07,1.833,4.07,4.069v65.086h128.961v-66.83c0-2.239,1.832-4.069,4.07-4.069h168.935V241.53
	c0-2.238,1.833-4.069,4.069-4.069h97.895c2.236,0,4.069,1.833,4.069,4.069v89.559c0,2.237-1.831,4.069-4.069,4.069h-12.966
	c0.483,0.669,0.769,1.489,0.769,2.372v89.559c0,2.237-1.831,4.069-4.069,4.069h46.998c2.236,0,4.069,1.833,4.069,4.07v89.559
	c0,2.236-1.831,4.068-4.069,4.068H911.813c-2.238,0-4.068-1.831-4.068-4.068v-89.559
	C907.744,432.989,909.576,431.158,911.813,431.158z"/>
<path fill-rule="evenodd" clip-rule="evenodd" fill="#54A7BA" d="M521.691,452.438h21.262c2.238,0,4.07-1.831,4.07-4.069v-58.486
	h27.557v66.831c0,2.237,1.831,4.069,4.068,4.069h65.184v88.284c0,2.237,1.83,4.069,4.068,4.069h194.363
	c2.238,0,4.07-1.831,4.07-4.069v-89.558c0-2.239-1.832-4.07-4.07-4.07h-65.182v-63.811h86.871c2.238,0,4.069-1.831,4.069-4.069
	v-64.569h61.74v52.919c0,2.237,1.831,4.069,4.069,4.069h101.267v0.029v42.628H904.154c-2.237,0-4.069,2.391-4.069,5.311v116.879
	c0,2.919,1.831,5.311,4.069,5.311h194.363c2.238,0,4.069-2.391,4.069-5.311v-71.189h34.476c2.238,0,4.069-1.832,4.069-4.07v-89.559
	c0-2.238-1.832-4.069-4.069-4.069h-4.798v-0.029v-89.559c0-2.239-1.832-4.069-4.069-4.069H944.289V229.36
	c0-2.238-1.833-4.07-4.069-4.07h-97.894c-2.238,0-4.07,1.833-4.07,4.07v64.569h-72.197c-2.236,0-4.069,1.833-4.069,4.069v65.086
	H633.027v-66.83c0-2.239-1.832-4.07-4.069-4.07H460.023V262.81c0-2.238-1.833-4.069-4.069-4.069h-97.895
	c-2.237,0-4.069,1.833-4.069,4.069v89.559c0,2.237,1.831,4.069,4.069,4.069h12.965c-0.483,0.669-0.769,1.489-0.769,2.372v89.559
	c0,2.237,1.832,4.069,4.07,4.069h-46.998c-2.237,0-4.069,1.833-4.069,4.069v89.559c0,2.237,1.831,4.069,4.069,4.069h194.364
	c2.238,0,4.069-1.831,4.069-4.069v-89.559C525.761,454.269,523.929,452.438,521.691,452.438z"/>
<g>
	<path fill-rule="evenodd" clip-rule="evenodd" fill="#B5D77E" d="M465.439,433.418H697.64c2.674,0,4.861-2.188,4.861-4.861V321.564
		c0-2.674-2.188-4.861-4.861-4.861H465.439c-2.672,0-4.861,2.189-4.861,4.861v106.993
		C460.578,431.23,462.765,433.418,465.439,433.418z"/>
	<path fill-rule="evenodd" clip-rule="evenodd" fill="#53C0A5" d="M475.167,325.37c2.907,0,5.286,2.378,5.286,5.286v88.383
		c0,2.907-2.379,5.286-5.286,5.286c-2.908,0-5.286-2.379-5.286-5.286v-88.383C469.881,327.749,472.259,325.37,475.167,325.37z"/>
	<path fill-rule="evenodd" clip-rule="evenodd" fill="#53C0A5" d="M494.461,325.37c2.908,0,5.286,2.378,5.286,5.286v88.383
		c0,2.907-2.378,5.286-5.286,5.286s-5.286-2.379-5.286-5.286v-88.383C489.175,327.749,491.553,325.37,494.461,325.37z"/>
	<path fill-rule="evenodd" clip-rule="evenodd" fill="#53C0A5" d="M513.754,325.37c2.908,0,5.286,2.378,5.286,5.286v88.383
		c0,2.907-2.378,5.286-5.286,5.286c-2.907,0-5.286-2.379-5.286-5.286v-88.383C508.469,327.749,510.847,325.37,513.754,325.37z"/>
	<path fill-rule="evenodd" clip-rule="evenodd" fill="#53C0A5" d="M533.049,325.37c2.907,0,5.286,2.378,5.286,5.286v88.383
		c0,2.907-2.379,5.286-5.286,5.286c-2.908,0-5.286-2.379-5.286-5.286v-88.383C527.763,327.749,530.141,325.37,533.049,325.37z"/>
	<path fill-rule="evenodd" clip-rule="evenodd" fill="#53C0A5" d="M552.572,325.37c2.906,0,5.285,2.378,5.285,5.286v88.383
		c0,2.907-2.379,5.286-5.285,5.286c-2.908,0-5.287-2.379-5.287-5.286v-88.383C547.285,327.749,549.664,325.37,552.572,325.37z"/>
	<path fill-rule="evenodd" clip-rule="evenodd" fill="#53C0A5" d="M571.865,325.37c2.908,0,5.286,2.378,5.286,5.286v88.383
		c0,2.907-2.378,5.286-5.286,5.286c-2.907,0-5.285-2.379-5.285-5.286v-88.383C566.58,327.749,568.958,325.37,571.865,325.37z"/>
	<path fill-rule="evenodd" clip-rule="evenodd" fill="#53C0A5" d="M591.16,325.37c2.906,0,5.285,2.378,5.285,5.286v88.383
		c0,2.907-2.379,5.286-5.285,5.286c-2.908,0-5.287-2.379-5.287-5.286v-88.383C585.873,327.749,588.252,325.37,591.16,325.37z"/>
	<path fill-rule="evenodd" clip-rule="evenodd" fill="#53C0A5" d="M610.453,325.37c2.908,0,5.287,2.378,5.287,5.286v88.383
		c0,2.907-2.379,5.286-5.287,5.286c-2.907,0-5.286-2.379-5.286-5.286v-88.383C605.167,327.749,607.546,325.37,610.453,325.37z"/>
	<path fill-rule="evenodd" clip-rule="evenodd" fill="#53C0A5" d="M629.747,325.37c2.907,0,5.286,2.378,5.286,5.286v88.383
		c0,2.907-2.379,5.286-5.286,5.286s-5.286-2.379-5.286-5.286v-88.383C624.461,327.749,626.84,325.37,629.747,325.37z"/>
	<path fill-rule="evenodd" clip-rule="evenodd" fill="#53C0A5" d="M649.041,325.37c2.908,0,5.286,2.378,5.286,5.286v88.383
		c0,2.907-2.378,5.286-5.286,5.286c-2.907,0-5.285-2.379-5.285-5.286v-88.383C643.756,327.749,646.134,325.37,649.041,325.37z"/>
	<path fill-rule="evenodd" clip-rule="evenodd" fill="#53C0A5" d="M668.564,325.37c2.907,0,5.285,2.378,5.285,5.286v88.383
		c0,2.907-2.378,5.286-5.285,5.286c-2.908,0-5.286-2.379-5.286-5.286v-88.383C663.278,327.749,665.656,325.37,668.564,325.37z"/>
	<path fill-rule="evenodd" clip-rule="evenodd" fill="#53C0A5" d="M687.857,325.37c2.908,0,5.287,2.378,5.287,5.286v88.383
		c0,2.907-2.379,5.286-5.287,5.286c-2.906,0-5.285-2.379-5.285-5.286v-88.383C682.572,327.749,684.951,325.37,687.857,325.37z"/>
</g>
<path fill-rule="evenodd" clip-rule="evenodd" fill="#FFFFFF" d="M532.266,115.813h-140.1c-10.845,0-19.717,8.873-19.717,19.717v0
	c0,10.845,8.873,19.717,19.717,19.717h3.443c7.135,0,12.972,5.837,12.972,12.972c0,7.135-5.837,12.972-12.972,12.972h-81.794
	c-10.845,0-19.717,8.873-19.717,19.717l0,0c0,10.845,8.873,19.717,19.717,19.717h140.1c10.845,0,19.717-8.872,19.717-19.717l0,0
	c0-10.845-8.873-19.717-19.717-19.717h-7.265c-7.135,0-12.972-5.837-12.972-12.972c0-7.135,5.837-12.972,12.972-12.972h85.617
	c10.844,0,19.717-8.873,19.717-19.717v0C551.982,124.686,543.109,115.813,532.266,115.813z"/>
<path fill-rule="evenodd" clip-rule="evenodd" fill="#FFFFFF" d="M242.986,221.146c11.289,0,20.496-9.207,20.496-20.496
	c0-11.289-9.207-20.497-20.496-20.497c-11.289,0-20.496,9.208-20.496,20.497C222.491,211.939,231.698,221.146,242.986,221.146z"/>
<path fill-rule="evenodd" clip-rule="evenodd" fill="#303B47" d="M304.418,578.464h837.001c31.871,0,57.946,26.076,57.946,57.946
	v12.877H246.472V636.41C246.472,604.539,272.548,578.464,304.418,578.464z"/>
<path opacity="0.3" fill-rule="evenodd" clip-rule="evenodd" d="M304.418,578.464h42.263c8.959,2.697,17.761,6.115,26.321,10.258
	c49.088,23.757,106.131,23.757,155.219,0c8.561-4.143,17.361-7.561,26.32-10.258H657.12c8.959,2.697,17.761,6.115,26.32,10.258
	c49.088,23.757,106.132,23.757,155.22,0c8.56-4.143,17.361-7.561,26.32-10.258H967.56c8.959,2.697,17.761,6.115,26.32,10.258
	c49.088,23.757,106.131,23.757,155.22,0c4.588-2.221,9.246-4.233,13.96-6.039c21.232,8.619,36.307,29.497,36.307,53.728v12.877
	H246.472V636.41C246.472,604.539,272.548,578.464,304.418,578.464z"/>
<g>
	<path fill-rule="evenodd" clip-rule="evenodd" fill="#E16049" d="M352.109,550.135h232.2c2.675,0,4.862-2.188,4.862-4.862V438.28
		c0-2.674-2.188-4.862-4.862-4.862h-232.2c-2.673,0-4.862,2.189-4.862,4.862v106.992
		C347.247,547.945,349.435,550.135,352.109,550.135z"/>
	<path fill-rule="evenodd" clip-rule="evenodd" fill="#DA9070" d="M361.836,442.086c2.908,0,5.286,2.378,5.286,5.286v88.383
		c0,2.907-2.378,5.286-5.286,5.286c-2.907,0-5.286-2.379-5.286-5.286v-88.383C356.551,444.465,358.929,442.086,361.836,442.086z"/>
	<path fill-rule="evenodd" clip-rule="evenodd" fill="#DA9070" d="M381.13,442.086c2.908,0,5.286,2.378,5.286,5.286v88.383
		c0,2.907-2.378,5.286-5.286,5.286c-2.907,0-5.286-2.379-5.286-5.286v-88.383C375.844,444.465,378.223,442.086,381.13,442.086z"/>
	<path fill-rule="evenodd" clip-rule="evenodd" fill="#DA9070" d="M400.424,442.086c2.908,0,5.286,2.378,5.286,5.286v88.383
		c0,2.907-2.378,5.286-5.286,5.286c-2.907,0-5.286-2.379-5.286-5.286v-88.383C395.138,444.465,397.517,442.086,400.424,442.086z"/>
	<path fill-rule="evenodd" clip-rule="evenodd" fill="#DA9070" d="M419.718,442.086c2.907,0,5.286,2.378,5.286,5.286v88.383
		c0,2.907-2.379,5.286-5.286,5.286c-2.908,0-5.286-2.379-5.286-5.286v-88.383C414.432,444.465,416.811,442.086,419.718,442.086z"/>
	<path fill-rule="evenodd" clip-rule="evenodd" fill="#DA9070" d="M439.241,442.086c2.908,0,5.286,2.378,5.286,5.286v88.383
		c0,2.907-2.378,5.286-5.286,5.286s-5.286-2.379-5.286-5.286v-88.383C433.955,444.465,436.333,442.086,439.241,442.086z"/>
	<path fill-rule="evenodd" clip-rule="evenodd" fill="#DA9070" d="M458.535,442.086c2.908,0,5.286,2.378,5.286,5.286v88.383
		c0,2.907-2.378,5.286-5.286,5.286c-2.907,0-5.286-2.379-5.286-5.286v-88.383C453.249,444.465,455.628,442.086,458.535,442.086z"/>
	<path fill-rule="evenodd" clip-rule="evenodd" fill="#DA9070" d="M477.829,442.086c2.907,0,5.286,2.378,5.286,5.286v88.383
		c0,2.907-2.379,5.286-5.286,5.286s-5.286-2.379-5.286-5.286v-88.383C472.543,444.465,474.922,442.086,477.829,442.086z"/>
	<path fill-rule="evenodd" clip-rule="evenodd" fill="#DA9070" d="M497.123,442.086c2.907,0,5.286,2.378,5.286,5.286v88.383
		c0,2.907-2.379,5.286-5.286,5.286c-2.908,0-5.286-2.379-5.286-5.286v-88.383C491.837,444.465,494.215,442.086,497.123,442.086z"/>
	<path fill-rule="evenodd" clip-rule="evenodd" fill="#DA9070" d="M516.417,442.086c2.907,0,5.286,2.378,5.286,5.286v88.383
		c0,2.907-2.379,5.286-5.286,5.286c-2.908,0-5.286-2.379-5.286-5.286v-88.383C511.131,444.465,513.509,442.086,516.417,442.086z"/>
	<path fill-rule="evenodd" clip-rule="evenodd" fill="#DA9070" d="M535.711,442.086c2.907,0,5.285,2.378,5.285,5.286v88.383
		c0,2.907-2.378,5.286-5.285,5.286c-2.908,0-5.286-2.379-5.286-5.286v-88.383C530.425,444.465,532.803,442.086,535.711,442.086z"/>
	<path fill-rule="evenodd" clip-rule="evenodd" fill="#DA9070" d="M555.234,442.086c2.906,0,5.285,2.378,5.285,5.286v88.383
		c0,2.907-2.379,5.286-5.285,5.286c-2.908,0-5.287-2.379-5.287-5.286v-88.383C549.947,444.465,552.326,442.086,555.234,442.086z"/>
	<path fill-rule="evenodd" clip-rule="evenodd" fill="#DA9070" d="M574.527,442.086c2.908,0,5.287,2.378,5.287,5.286v88.383
		c0,2.907-2.379,5.286-5.287,5.286c-2.907,0-5.285-2.379-5.285-5.286v-88.383C569.242,444.465,571.62,442.086,574.527,442.086z"/>
</g>
<path fill-rule="evenodd" clip-rule="evenodd" fill="#63CAE1" d="M330.001,610.722c49.088,23.757,106.131,23.757,155.219,0
	s106.132-23.757,155.22,0s106.132,23.757,155.22,0s106.131-23.757,155.22,0c49.088,23.757,106.131,23.757,155.219,0
	c49.089-23.757,106.132-23.757,155.22,0h-5.102c20.441,0,37.165,16.725,37.165,37.165l0,0c0,20.441-16.724,37.166-37.165,37.166
	H180.611c-20.441,0-37.165-16.725-37.165-37.166l0,0c0-38.091,47.111-37.165,31.336-37.165
	C223.87,586.965,280.914,586.965,330.001,610.722z"/>
<g>
	<path fill-rule="evenodd" clip-rule="evenodd" fill="#FDDD08" d="M594.032,550.135h116.951c2.675,0,4.862-2.188,4.862-4.862V438.28
		c0-2.674-2.189-4.862-4.862-4.862H594.032c-2.673,0-4.861,2.189-4.861,4.862v106.992
		C589.171,547.945,591.358,550.135,594.032,550.135z"/>
	<path fill-rule="evenodd" clip-rule="evenodd" fill="#F5B168" d="M705.891,447.188L705.891,447.188
		c0,2.668-2.184,4.852-4.852,4.852h-39.752c-2.668,0-4.852-2.183-4.852-4.852v0c0-2.668,2.184-4.852,4.852-4.852h39.752
		C703.707,442.336,705.891,444.519,705.891,447.188z"/>
	<path fill-rule="evenodd" clip-rule="evenodd" fill="#F5B168" d="M705.891,464.896L705.891,464.896
		c0,2.669-2.184,4.853-4.852,4.853h-39.752c-2.668,0-4.852-2.184-4.852-4.852v-0.001c0-2.668,2.184-4.851,4.852-4.851h39.752
		C703.707,460.044,705.891,462.228,705.891,464.896z"/>
	<path fill-rule="evenodd" clip-rule="evenodd" fill="#F5B168" d="M705.891,482.604L705.891,482.604
		c0,2.669-2.184,4.852-4.852,4.852h-39.752c-2.668,0-4.852-2.183-4.852-4.852l0,0c0-2.669,2.184-4.852,4.852-4.852h39.752
		C703.707,477.753,705.891,479.936,705.891,482.604z"/>
	<path fill-rule="evenodd" clip-rule="evenodd" fill="#F5B168" d="M705.891,500.313L705.891,500.313
		c0,2.668-2.184,4.852-4.852,4.852h-39.752c-2.668,0-4.852-2.184-4.852-4.852l0,0c0-2.669,2.184-4.852,4.852-4.852h39.752
		C703.707,495.461,705.891,497.644,705.891,500.313z"/>
	<path fill-rule="evenodd" clip-rule="evenodd" fill="#F5B168" d="M705.891,518.231L705.891,518.231
		c0,2.668-2.184,4.852-4.852,4.852h-39.752c-2.668,0-4.852-2.184-4.852-4.852l0,0c0-2.669,2.184-4.853,4.852-4.853h39.752
		C703.707,513.379,705.891,515.563,705.891,518.231z"/>
	<path fill-rule="evenodd" clip-rule="evenodd" fill="#F5B168" d="M705.891,535.939L705.891,535.939
		c0,2.668-2.184,4.852-4.852,4.852h-39.752c-2.668,0-4.852-2.183-4.852-4.852l0,0c0-2.669,2.184-4.852,4.852-4.852h39.752
		C703.707,531.088,705.891,533.271,705.891,535.939z"/>
	<path fill-rule="evenodd" clip-rule="evenodd" fill="#F5B168" d="M599.254,447.188L599.254,447.188
		c0,2.668,2.183,4.852,4.851,4.852h39.753c2.668,0,4.852-2.183,4.852-4.852v0c0-2.668-2.184-4.852-4.852-4.852h-39.753
		C601.436,442.336,599.254,444.519,599.254,447.188z"/>
	<path fill-rule="evenodd" clip-rule="evenodd" fill="#F5B168" d="M599.254,464.896L599.254,464.896
		c0,2.669,2.183,4.853,4.851,4.853h39.753c2.668,0,4.852-2.184,4.852-4.852v-0.001c0-2.668-2.184-4.851-4.852-4.851h-39.753
		C601.436,460.044,599.254,462.228,599.254,464.896z"/>
	<path fill-rule="evenodd" clip-rule="evenodd" fill="#F5B168" d="M599.254,482.604L599.254,482.604
		c0,2.669,2.183,4.852,4.851,4.852h39.753c2.668,0,4.852-2.183,4.852-4.852l0,0c0-2.669-2.184-4.852-4.852-4.852h-39.753
		C601.436,477.753,599.254,479.936,599.254,482.604z"/>
	<path fill-rule="evenodd" clip-rule="evenodd" fill="#F5B168" d="M599.254,500.313L599.254,500.313
		c0,2.668,2.183,4.852,4.851,4.852h39.753c2.668,0,4.852-2.184,4.852-4.852l0,0c0-2.669-2.184-4.852-4.852-4.852h-39.753
		C601.436,495.461,599.254,497.644,599.254,500.313z"/>
	<path fill-rule="evenodd" clip-rule="evenodd" fill="#F5B168" d="M599.254,518.231L599.254,518.231
		c0,2.668,2.183,4.852,4.851,4.852h39.753c2.668,0,4.852-2.184,4.852-4.852l0,0c0-2.669-2.184-4.853-4.852-4.853h-39.753
		C601.436,513.379,599.254,515.563,599.254,518.231z"/>
	<path fill-rule="evenodd" clip-rule="evenodd" fill="#F5B168" d="M599.254,535.939L599.254,535.939
		c0,2.668,2.183,4.852,4.851,4.852h39.753c2.668,0,4.852-2.183,4.852-4.852l0,0c0-2.669-2.184-4.852-4.852-4.852h-39.753
		C601.436,531.088,599.254,533.271,599.254,535.939z"/>
	<path fill-rule="evenodd" clip-rule="evenodd" fill="#E6E7E8" d="M664.906,431.756L664.906,431.756
		c0.914,0,1.662,0.749,1.662,1.663v116.716c0,0.913-0.748,1.662-1.662,1.662l0,0c-0.914,0-1.662-0.748-1.662-1.662V433.418
		C663.244,432.504,663.991,431.756,664.906,431.756z"/>
	<path fill-rule="evenodd" clip-rule="evenodd" fill="#E6E7E8" d="M640.361,431.756L640.361,431.756
		c0.916,0,1.663,0.749,1.663,1.663v116.716c0,0.913-0.749,1.662-1.662,1.662h-0.001c-0.914,0-1.662-0.748-1.662-1.662V433.418
		C638.699,432.504,639.447,431.756,640.361,431.756z"/>
	<path fill-rule="evenodd" clip-rule="evenodd" fill="#E6E7E8" d="M689.45,431.756c0.915,0,1.663,0.749,1.663,1.663v116.716
		c0,0.913-0.749,1.662-1.663,1.662s-1.663-0.748-1.663-1.662V433.418C687.787,432.504,688.535,431.756,689.45,431.756z"/>
	<path fill-rule="evenodd" clip-rule="evenodd" fill="#E6E7E8" d="M615.817,431.756L615.817,431.756
		c0.915,0,1.663,0.749,1.663,1.663v116.716c0,0.913-0.748,1.662-1.662,1.662h-0.001c-0.913,0-1.662-0.748-1.662-1.662V433.418
		C614.155,432.504,614.902,431.756,615.817,431.756z"/>
</g>
<g>
	<path fill-rule="evenodd" clip-rule="evenodd" fill="#FDDD08" d="M878.364,433.418h232.2c2.674,0,4.861-2.188,4.861-4.861V321.564
		c0-2.674-2.188-4.861-4.861-4.861h-232.2c-2.673,0-4.861,2.189-4.861,4.861v106.993C873.503,431.23,875.69,433.418,878.364,433.418
		z"/>
	<path fill-rule="evenodd" clip-rule="evenodd" fill="#F5B168" d="M888.092,325.37c2.908,0,5.286,2.378,5.286,5.286v88.383
		c0,2.907-2.378,5.286-5.286,5.286c-2.907,0-5.286-2.379-5.286-5.286v-88.383C882.806,327.749,885.185,325.37,888.092,325.37z"/>
	<path fill-rule="evenodd" clip-rule="evenodd" fill="#F5B168" d="M907.386,325.37c2.908,0,5.286,2.378,5.286,5.286v88.383
		c0,2.907-2.378,5.286-5.286,5.286c-2.907,0-5.286-2.379-5.286-5.286v-88.383C902.1,327.749,904.479,325.37,907.386,325.37z"/>
	<path fill-rule="evenodd" clip-rule="evenodd" fill="#F5B168" d="M926.68,325.37c2.907,0,5.286,2.378,5.286,5.286v88.383
		c0,2.907-2.379,5.286-5.286,5.286s-5.286-2.379-5.286-5.286v-88.383C921.394,327.749,923.772,325.37,926.68,325.37z"/>
	<path fill-rule="evenodd" clip-rule="evenodd" fill="#F5B168" d="M945.974,325.37c2.907,0,5.286,2.378,5.286,5.286v88.383
		c0,2.907-2.379,5.286-5.286,5.286s-5.286-2.379-5.286-5.286v-88.383C940.688,327.749,943.066,325.37,945.974,325.37z"/>
	<path fill-rule="evenodd" clip-rule="evenodd" fill="#F5B168" d="M965.497,325.37c2.907,0,5.286,2.378,5.286,5.286v88.383
		c0,2.907-2.379,5.286-5.286,5.286c-2.908,0-5.286-2.379-5.286-5.286v-88.383C960.211,327.749,962.589,325.37,965.497,325.37z"/>
	<path fill-rule="evenodd" clip-rule="evenodd" fill="#F5B168" d="M984.791,325.37c2.907,0,5.285,2.378,5.285,5.286v88.383
		c0,2.907-2.378,5.286-5.285,5.286c-2.908,0-5.286-2.379-5.286-5.286v-88.383C979.505,327.749,981.883,325.37,984.791,325.37z"/>
	<path fill-rule="evenodd" clip-rule="evenodd" fill="#F5B168" d="M1004.084,325.37c2.908,0,5.286,2.378,5.286,5.286v88.383
		c0,2.907-2.378,5.286-5.286,5.286c-2.907,0-5.285-2.379-5.285-5.286v-88.383C998.799,327.749,1001.177,325.37,1004.084,325.37z"/>
	<path fill-rule="evenodd" clip-rule="evenodd" fill="#F5B168" d="M1023.378,325.37c2.907,0,5.286,2.378,5.286,5.286v88.383
		c0,2.907-2.379,5.286-5.286,5.286s-5.286-2.379-5.286-5.286v-88.383C1018.092,327.749,1020.471,325.37,1023.378,325.37z"/>
	<path fill-rule="evenodd" clip-rule="evenodd" fill="#F5B168" d="M1042.672,325.37c2.907,0,5.286,2.378,5.286,5.286v88.383
		c0,2.907-2.379,5.286-5.286,5.286s-5.286-2.379-5.286-5.286v-88.383C1037.386,327.749,1039.765,325.37,1042.672,325.37z"/>
	<path fill-rule="evenodd" clip-rule="evenodd" fill="#F5B168" d="M1061.966,325.37c2.907,0,5.286,2.378,5.286,5.286v88.383
		c0,2.907-2.379,5.286-5.286,5.286s-5.286-2.379-5.286-5.286v-88.383C1056.68,327.749,1059.059,325.37,1061.966,325.37z"/>
	<path fill-rule="evenodd" clip-rule="evenodd" fill="#F5B168" d="M1081.489,325.37c2.907,0,5.286,2.378,5.286,5.286v88.383
		c0,2.907-2.379,5.286-5.286,5.286s-5.286-2.379-5.286-5.286v-88.383C1076.203,327.749,1078.582,325.37,1081.489,325.37z"/>
	<path fill-rule="evenodd" clip-rule="evenodd" fill="#F5B168" d="M1100.783,325.37c2.907,0,5.286,2.378,5.286,5.286v88.383
		c0,2.907-2.379,5.286-5.286,5.286c-2.908,0-5.286-2.379-5.286-5.286v-88.383C1095.497,327.749,1097.875,325.37,1100.783,325.37z"/>
</g>
<g>
	<path fill-rule="evenodd" clip-rule="evenodd" fill="#B5D77E" d="M752.871,550.135h232.201c2.674,0,4.861-2.188,4.861-4.862V438.28
		c0-2.674-2.188-4.862-4.861-4.862H752.871c-2.672,0-4.861,2.189-4.861,4.862v106.992
		C748.01,547.945,750.197,550.135,752.871,550.135z"/>
	<path fill-rule="evenodd" clip-rule="evenodd" fill="#53C0A5" d="M762.6,442.086c2.907,0,5.285,2.378,5.285,5.286v88.383
		c0,2.907-2.378,5.286-5.285,5.286c-2.908,0-5.286-2.379-5.286-5.286v-88.383C757.313,444.465,759.691,442.086,762.6,442.086z"/>
	<path fill-rule="evenodd" clip-rule="evenodd" fill="#53C0A5" d="M781.894,442.086c2.907,0,5.286,2.378,5.286,5.286v88.383
		c0,2.907-2.379,5.286-5.286,5.286s-5.286-2.379-5.286-5.286v-88.383C776.607,444.465,778.986,442.086,781.894,442.086z"/>
	<path fill-rule="evenodd" clip-rule="evenodd" fill="#53C0A5" d="M801.188,442.086c2.907,0,5.286,2.378,5.286,5.286v88.383
		c0,2.907-2.379,5.286-5.286,5.286c-2.908,0-5.286-2.379-5.286-5.286v-88.383C795.901,444.465,798.279,442.086,801.188,442.086z"/>
	<path fill-rule="evenodd" clip-rule="evenodd" fill="#53C0A5" d="M820.481,442.086c2.907,0,5.286,2.378,5.286,5.286v88.383
		c0,2.907-2.379,5.286-5.286,5.286s-5.286-2.379-5.286-5.286v-88.383C815.195,444.465,817.574,442.086,820.481,442.086z"/>
	<path fill-rule="evenodd" clip-rule="evenodd" fill="#53C0A5" d="M840.004,442.086c2.908,0,5.287,2.378,5.287,5.286v88.383
		c0,2.907-2.379,5.286-5.287,5.286c-2.907,0-5.285-2.379-5.285-5.286v-88.383C834.719,444.465,837.097,442.086,840.004,442.086z"/>
	<path fill-rule="evenodd" clip-rule="evenodd" fill="#53C0A5" d="M859.299,442.086c2.906,0,5.285,2.378,5.285,5.286v88.383
		c0,2.907-2.379,5.286-5.285,5.286c-2.908,0-5.287-2.379-5.287-5.286v-88.383C854.012,444.465,856.391,442.086,859.299,442.086z"/>
	<path fill-rule="evenodd" clip-rule="evenodd" fill="#53C0A5" d="M878.592,442.086c2.908,0,5.286,2.378,5.286,5.286v88.383
		c0,2.907-2.378,5.286-5.286,5.286c-2.907,0-5.286-2.379-5.286-5.286v-88.383C873.306,444.465,875.685,442.086,878.592,442.086z"/>
	<path fill-rule="evenodd" clip-rule="evenodd" fill="#53C0A5" d="M897.886,442.086c2.908,0,5.286,2.378,5.286,5.286v88.383
		c0,2.907-2.378,5.286-5.286,5.286c-2.907,0-5.286-2.379-5.286-5.286v-88.383C892.6,444.465,894.979,442.086,897.886,442.086z"/>
	<path fill-rule="evenodd" clip-rule="evenodd" fill="#53C0A5" d="M917.18,442.086c2.907,0,5.286,2.378,5.286,5.286v88.383
		c0,2.907-2.379,5.286-5.286,5.286s-5.286-2.379-5.286-5.286v-88.383C911.894,444.465,914.272,442.086,917.18,442.086z"/>
	<path fill-rule="evenodd" clip-rule="evenodd" fill="#53C0A5" d="M936.474,442.086c2.907,0,5.286,2.378,5.286,5.286v88.383
		c0,2.907-2.379,5.286-5.286,5.286s-5.286-2.379-5.286-5.286v-88.383C931.188,444.465,933.566,442.086,936.474,442.086z"/>
	<path fill-rule="evenodd" clip-rule="evenodd" fill="#53C0A5" d="M955.997,442.086c2.907,0,5.286,2.378,5.286,5.286v88.383
		c0,2.907-2.379,5.286-5.286,5.286c-2.908,0-5.286-2.379-5.286-5.286v-88.383C950.711,444.465,953.089,442.086,955.997,442.086z"/>
	<path fill-rule="evenodd" clip-rule="evenodd" fill="#53C0A5" d="M975.291,442.086c2.907,0,5.286,2.378,5.286,5.286v88.383
		c0,2.907-2.379,5.286-5.286,5.286c-2.908,0-5.286-2.379-5.286-5.286v-88.383C970.005,444.465,972.383,442.086,975.291,442.086z"/>
</g>
<g>
	<path fill-rule="evenodd" clip-rule="evenodd" fill="#E16049" d="M1018.985,550.135h116.951c2.674,0,4.861-2.188,4.861-4.862
		V438.28c0-2.674-2.188-4.862-4.861-4.862h-116.951c-2.673,0-4.862,2.189-4.862,4.862v106.992
		C1014.123,547.945,1016.311,550.135,1018.985,550.135z"/>
	<path fill-rule="evenodd" clip-rule="evenodd" fill="#DA9070" d="M1130.844,447.188L1130.844,447.188
		c0,2.668-2.184,4.852-4.852,4.852h-39.753c-2.668,0-4.852-2.183-4.852-4.852v0c0-2.668,2.184-4.852,4.852-4.852h39.753
		C1128.66,442.336,1130.844,444.519,1130.844,447.188z"/>
	<path fill-rule="evenodd" clip-rule="evenodd" fill="#DA9070" d="M1130.844,464.896L1130.844,464.896
		c0,2.669-2.184,4.853-4.852,4.853h-39.753c-2.668,0-4.852-2.184-4.852-4.852v-0.001c0-2.668,2.184-4.851,4.852-4.851h39.753
		C1128.66,460.044,1130.844,462.228,1130.844,464.896z"/>
	<path fill-rule="evenodd" clip-rule="evenodd" fill="#DA9070" d="M1130.844,482.604L1130.844,482.604
		c0,2.669-2.184,4.852-4.852,4.852h-39.753c-2.668,0-4.852-2.183-4.852-4.852l0,0c0-2.669,2.184-4.852,4.852-4.852h39.753
		C1128.66,477.753,1130.844,479.936,1130.844,482.604z"/>
	<path fill-rule="evenodd" clip-rule="evenodd" fill="#DA9070" d="M1130.844,500.313L1130.844,500.313
		c0,2.668-2.184,4.852-4.852,4.852h-39.753c-2.668,0-4.852-2.184-4.852-4.852l0,0c0-2.669,2.184-4.852,4.852-4.852h39.753
		C1128.66,495.461,1130.844,497.644,1130.844,500.313z"/>
	<path fill-rule="evenodd" clip-rule="evenodd" fill="#DA9070" d="M1130.844,518.231L1130.844,518.231
		c0,2.668-2.184,4.852-4.852,4.852h-39.753c-2.668,0-4.852-2.184-4.852-4.852l0,0c0-2.669,2.184-4.853,4.852-4.853h39.753
		C1128.66,513.379,1130.844,515.563,1130.844,518.231z"/>
	<path fill-rule="evenodd" clip-rule="evenodd" fill="#DA9070" d="M1130.844,535.939L1130.844,535.939
		c0,2.668-2.184,4.852-4.852,4.852h-39.753c-2.668,0-4.852-2.183-4.852-4.852l0,0c0-2.669,2.184-4.852,4.852-4.852h39.753
		C1128.66,531.088,1130.844,533.271,1130.844,535.939z"/>
	<path fill-rule="evenodd" clip-rule="evenodd" fill="#DA9070" d="M1024.206,447.188L1024.206,447.188
		c0,2.668,2.183,4.852,4.852,4.852h39.752c2.669,0,4.852-2.183,4.852-4.852v0c0-2.668-2.183-4.852-4.852-4.852h-39.752
		C1026.389,442.336,1024.206,444.519,1024.206,447.188z"/>
	<path fill-rule="evenodd" clip-rule="evenodd" fill="#DA9070" d="M1024.206,464.896L1024.206,464.896
		c0,2.669,2.183,4.853,4.852,4.853h39.752c2.669,0,4.852-2.184,4.852-4.852v-0.001c0-2.668-2.183-4.851-4.852-4.851h-39.752
		C1026.389,460.044,1024.206,462.228,1024.206,464.896z"/>
	<path fill-rule="evenodd" clip-rule="evenodd" fill="#DA9070" d="M1024.206,482.604L1024.206,482.604
		c0,2.669,2.183,4.852,4.852,4.852h39.752c2.669,0,4.852-2.183,4.852-4.852l0,0c0-2.669-2.183-4.852-4.852-4.852h-39.752
		C1026.389,477.753,1024.206,479.936,1024.206,482.604z"/>
	<path fill-rule="evenodd" clip-rule="evenodd" fill="#DA9070" d="M1024.206,500.313L1024.206,500.313
		c0,2.668,2.183,4.852,4.852,4.852h39.752c2.669,0,4.852-2.184,4.852-4.852l0,0c0-2.669-2.183-4.852-4.852-4.852h-39.752
		C1026.389,495.461,1024.206,497.644,1024.206,500.313z"/>
	<path fill-rule="evenodd" clip-rule="evenodd" fill="#DA9070" d="M1024.206,518.231L1024.206,518.231
		c0,2.668,2.183,4.852,4.852,4.852h39.752c2.669,0,4.852-2.184,4.852-4.852l0,0c0-2.669-2.183-4.853-4.852-4.853h-39.752
		C1026.389,513.379,1024.206,515.563,1024.206,518.231z"/>
	<path fill-rule="evenodd" clip-rule="evenodd" fill="#DA9070" d="M1024.206,535.939L1024.206,535.939
		c0,2.668,2.183,4.852,4.852,4.852h39.752c2.669,0,4.852-2.183,4.852-4.852l0,0c0-2.669-2.183-4.852-4.852-4.852h-39.752
		C1026.389,531.088,1024.206,533.271,1024.206,535.939z"/>
	<path fill-rule="evenodd" clip-rule="evenodd" fill="#E6E7E8" d="M1089.858,431.756L1089.858,431.756
		c0.915,0,1.663,0.749,1.663,1.663v116.716c0,0.913-0.749,1.662-1.663,1.662l0,0c-0.913,0-1.662-0.748-1.662-1.662V433.418
		C1088.196,432.504,1088.944,431.756,1089.858,431.756z"/>
	<path fill-rule="evenodd" clip-rule="evenodd" fill="#E6E7E8" d="M1065.314,431.756L1065.314,431.756
		c0.915,0,1.663,0.749,1.663,1.663v116.716c0,0.913-0.749,1.662-1.663,1.662l0,0c-0.914,0-1.663-0.748-1.663-1.662V433.418
		C1063.651,432.504,1064.4,431.756,1065.314,431.756z"/>
	<path fill-rule="evenodd" clip-rule="evenodd" fill="#E6E7E8" d="M1114.402,431.756L1114.402,431.756
		c0.915,0,1.663,0.749,1.663,1.663v116.716c0,0.913-0.749,1.662-1.662,1.662h-0.001c-0.913,0-1.662-0.748-1.662-1.662V433.418
		C1112.74,432.504,1113.488,431.756,1114.402,431.756z"/>
	<path fill-rule="evenodd" clip-rule="evenodd" fill="#E6E7E8" d="M1040.771,431.756c0.914,0,1.663,0.749,1.663,1.663v116.716
		c0,0.913-0.749,1.662-1.663,1.662s-1.663-0.748-1.663-1.662V433.418C1039.107,432.504,1039.855,431.756,1040.771,431.756z"/>
</g>
<g>
	<path fill-rule="evenodd" clip-rule="evenodd" fill="#F5B168" d="M587.027,261.64h232.199c2.674,0,4.861-2.188,4.861-4.861V149.786
		c0-2.674-2.188-4.862-4.861-4.862H587.027c-2.673,0-4.861,2.189-4.861,4.862v106.993
		C582.166,259.451,584.354,261.64,587.027,261.64z"/>
	<path fill-rule="evenodd" clip-rule="evenodd" fill="#FDDD08" d="M587.027,254.728h232.199c2.674,0,4.861-2.188,4.861-4.861
		V142.874c0-2.674-2.188-4.862-4.861-4.862H587.027c-2.673,0-4.861,2.189-4.861,4.862v106.993
		C582.166,252.54,584.354,254.728,587.027,254.728z"/>
	<path fill-rule="evenodd" clip-rule="evenodd" fill="#F5B168" d="M596.755,146.68c2.907,0,5.286,2.378,5.286,5.286v88.383
		c0,2.907-2.379,5.286-5.286,5.286s-5.286-2.379-5.286-5.286v-88.383C591.469,149.058,593.848,146.68,596.755,146.68z"/>
	<path fill-rule="evenodd" clip-rule="evenodd" fill="#F5B168" d="M616.049,146.68c2.908,0,5.286,2.378,5.286,5.286v88.383
		c0,2.907-2.378,5.286-5.286,5.286s-5.286-2.379-5.286-5.286v-88.383C610.763,149.058,613.141,146.68,616.049,146.68z"/>
	<path fill-rule="evenodd" clip-rule="evenodd" fill="#F5B168" d="M635.343,146.68c2.907,0,5.286,2.378,5.286,5.286v88.383
		c0,2.907-2.379,5.286-5.286,5.286s-5.286-2.379-5.286-5.286v-88.383C630.057,149.058,632.436,146.68,635.343,146.68z"/>
	<path fill-rule="evenodd" clip-rule="evenodd" fill="#F5B168" d="M654.637,146.68c2.907,0,5.286,2.378,5.286,5.286v88.383
		c0,2.907-2.379,5.286-5.286,5.286c-2.908,0-5.286-2.379-5.286-5.286v-88.383C649.351,149.058,651.729,146.68,654.637,146.68z"/>
	<path fill-rule="evenodd" clip-rule="evenodd" fill="#F5B168" d="M674.16,146.68c2.906,0,5.285,2.378,5.285,5.286v88.383
		c0,2.907-2.379,5.286-5.285,5.286c-2.908,0-5.287-2.379-5.287-5.286v-88.383C668.873,149.058,671.252,146.68,674.16,146.68z"/>
	<path fill-rule="evenodd" clip-rule="evenodd" fill="#F5B168" d="M693.453,146.68c2.908,0,5.286,2.378,5.286,5.286v88.383
		c0,2.907-2.378,5.286-5.286,5.286c-2.907,0-5.285-2.379-5.285-5.286v-88.383C688.168,149.058,690.546,146.68,693.453,146.68z"/>
	<path fill-rule="evenodd" clip-rule="evenodd" fill="#F5B168" d="M712.747,146.68c2.907,0,5.286,2.378,5.286,5.286v88.383
		c0,2.907-2.379,5.286-5.286,5.286s-5.286-2.379-5.286-5.286v-88.383C707.461,149.058,709.84,146.68,712.747,146.68z"/>
	<path fill-rule="evenodd" clip-rule="evenodd" fill="#F5B168" d="M732.041,146.68c2.907,0,5.286,2.378,5.286,5.286v88.383
		c0,2.907-2.379,5.286-5.286,5.286s-5.286-2.379-5.286-5.286v-88.383C726.755,149.058,729.134,146.68,732.041,146.68z"/>
	<path fill-rule="evenodd" clip-rule="evenodd" fill="#F5B168" d="M751.335,146.68c2.907,0,5.286,2.378,5.286,5.286v88.383
		c0,2.907-2.379,5.286-5.286,5.286s-5.286-2.379-5.286-5.286v-88.383C746.049,149.058,748.428,146.68,751.335,146.68z"/>
	<path fill-rule="evenodd" clip-rule="evenodd" fill="#F5B168" d="M770.629,146.68c2.907,0,5.286,2.378,5.286,5.286v88.383
		c0,2.907-2.379,5.286-5.286,5.286c-2.908,0-5.286-2.379-5.286-5.286v-88.383C765.343,149.058,767.721,146.68,770.629,146.68z"/>
	<path fill-rule="evenodd" clip-rule="evenodd" fill="#F5B168" d="M790.152,146.68c2.907,0,5.285,2.378,5.285,5.286v88.383
		c0,2.907-2.378,5.286-5.285,5.286c-2.908,0-5.287-2.379-5.287-5.286v-88.383C784.865,149.058,787.244,146.68,790.152,146.68z"/>
	<path fill-rule="evenodd" clip-rule="evenodd" fill="#F5B168" d="M809.445,146.68c2.908,0,5.287,2.378,5.287,5.286v88.383
		c0,2.907-2.379,5.286-5.287,5.286c-2.907,0-5.285-2.379-5.285-5.286v-88.383C804.16,149.058,806.538,146.68,809.445,146.68z"/>
</g>
<path fill-rule="evenodd" clip-rule="evenodd" fill="#FFFFFF" d="M606.563,126.856c6.161,0,11.156,4.995,11.156,11.156h-6.506
	c0-2.569-2.082-4.651-4.65-4.651c-2.57,0-4.652,2.082-4.652,4.651h-6.505C595.405,131.851,600.4,126.856,606.563,126.856z"/>
<path fill-rule="evenodd" clip-rule="evenodd" fill="#E6E7E8" d="M617.421,135.446c0.194,0.824,0.298,1.683,0.298,2.566h-6.506
	c0-0.949-0.283-1.831-0.771-2.566H617.421L617.421,135.446z M602.682,135.446L602.682,135.446c-0.487,0.735-0.771,1.618-0.771,2.566
	h-6.505c0-0.883,0.104-1.743,0.298-2.566H602.682z"/>
<path fill-rule="evenodd" clip-rule="evenodd" fill="#FFFFFF" d="M800.53,126.856c6.161,0,11.156,4.995,11.156,11.156h-6.505
	c0-2.569-2.082-4.651-4.651-4.651s-4.651,2.082-4.651,4.651h-6.505C789.374,131.851,794.368,126.856,800.53,126.856z"/>
<path fill-rule="evenodd" clip-rule="evenodd" fill="#6C5F5E" d="M607.465,134.55c-0.658,0.498-1.594,0.37-2.092-0.287
	c-0.498-0.657-0.37-1.594,0.287-2.092l101.789-77.305c0.656-0.498,1.594-0.37,2.092,0.287s0.369,1.594-0.287,2.092L607.465,134.55z"
	/>
<rect x="707.164" y="0" fill-rule="evenodd" clip-rule="evenodd" fill="#6C5F5E" width="2.513" height="25.021"/>
<path fill-rule="evenodd" clip-rule="evenodd" fill="#FFFFFF" d="M711.516,39.645c4.775,1.373,8.268,5.771,8.268,10.988
	c0,6.314-5.117,11.433-11.432,11.433c-6.262,0-11.348-5.034-11.432-11.275c-0.002-0.052-0.004-0.105-0.004-0.158
	c0-1.579,1.346-2.858,3.008-2.858c1.66,0,3.007,1.279,3.007,2.858l-0.001,0.093c0.049,2.952,2.457,5.33,5.422,5.33
	c2.994,0,5.423-2.428,5.423-5.423s-2.429-5.423-5.423-5.423c-1.641,0-2.969-1.345-2.969-3.005c0-0.046,0.001-0.093,0.003-0.139
	l-0.001-0.093v-17.26c0-1.686,1.379-3.065,3.065-3.065l0,0c1.687,0,3.065,1.379,3.065,3.065V39.645z"/>
<path fill-rule="evenodd" clip-rule="evenodd" fill="#E6E7E8" d="M719.731,49.539c0.034,0.36,0.052,0.724,0.052,1.093
	c0,6.314-5.117,11.433-11.432,11.433c-6.262,0-11.348-5.034-11.432-11.275c-0.002-0.052-0.004-0.105-0.004-0.158
	c0-0.25,0.033-0.492,0.098-0.723c0.719,5.622,5.52,9.969,11.338,9.969C714.297,59.878,719.181,55.34,719.731,49.539L719.731,49.539z
	 M713.664,49.539L713.664,49.539c0.072-0.354,0.11-0.719,0.11-1.094c0-2.995-2.429-5.423-5.423-5.423
	c-1.607,0-2.916-1.292-2.967-2.906v1.857l0.001,0.093c-0.002,0.046-0.003,0.092-0.003,0.139c0,1.66,1.328,3.005,2.969,3.005
	C710.972,45.209,713.158,47.068,713.664,49.539L713.664,49.539z M705.385,39.913L705.385,39.913v-0.127l0.001,0.093L705.385,39.913z
	"/>
<path fill-rule="evenodd" clip-rule="evenodd" fill="#6C5F5E" d="M801.491,132.212c0.634,0.531,0.718,1.475,0.187,2.109
	c-0.53,0.634-1.475,0.718-2.108,0.188l-92.179-77.305c-0.635-0.531-0.719-1.475-0.188-2.109c0.53-0.634,1.475-0.718,2.109-0.188
	L801.491,132.212z"/>
<path fill-rule="evenodd" clip-rule="evenodd" fill="#E6E7E8" d="M811.389,135.446c0.194,0.824,0.298,1.683,0.298,2.566h-6.505
	c0-0.949-0.284-1.831-0.771-2.566H811.389L811.389,135.446z M796.65,135.446L796.65,135.446c-0.488,0.735-0.771,1.618-0.771,2.566
	h-6.505c0-0.883,0.103-1.743,0.297-2.566H796.65z"/>
<path fill-rule="evenodd" clip-rule="evenodd" fill="#5C6673" d="M297.284,578.464h857.605c7.791,0,14.165-6.374,14.165-14.165l0,0
	c0-7.791-6.374-14.164-14.165-14.164H297.284c-7.79,0-14.164,6.373-14.164,14.164l0,0
	C283.12,572.09,289.494,578.464,297.284,578.464z"/>
<g>
	<path fill-rule="evenodd" clip-rule="evenodd" fill="#E16049" d="M751.689,433.418h116.951c2.674,0,4.861-2.188,4.861-4.861
		V321.564c0-2.674-2.188-4.861-4.861-4.861H751.689c-2.672,0-4.861,2.189-4.861,4.861v106.993
		C746.828,431.229,749.016,433.418,751.689,433.418z"/>
	<path fill-rule="evenodd" clip-rule="evenodd" fill="#DA9070" d="M863.549,330.471L863.549,330.471
		c0,2.668-2.184,4.853-4.853,4.853h-39.753c-2.668,0-4.852-2.184-4.852-4.852v0c0-2.668,2.184-4.852,4.852-4.852h39.753
		C861.365,325.62,863.549,327.803,863.549,330.471z"/>
	<path fill-rule="evenodd" clip-rule="evenodd" fill="#DA9070" d="M863.549,348.18L863.549,348.18c0,2.668-2.184,4.852-4.853,4.852
		h-39.753c-2.668,0-4.852-2.183-4.852-4.852v0c0-2.668,2.184-4.851,4.852-4.851h39.753
		C861.365,343.329,863.549,345.512,863.549,348.18z"/>
	<path fill-rule="evenodd" clip-rule="evenodd" fill="#DA9070" d="M863.549,365.888L863.549,365.888
		c0,2.668-2.184,4.852-4.853,4.852h-39.753c-2.668,0-4.852-2.183-4.852-4.851v0c0-2.668,2.184-4.852,4.852-4.852h39.753
		C861.365,361.037,863.549,363.22,863.549,365.888z"/>
	<path fill-rule="evenodd" clip-rule="evenodd" fill="#DA9070" d="M863.549,383.597L863.549,383.597
		c0,2.668-2.184,4.852-4.853,4.852h-39.753c-2.668,0-4.852-2.183-4.852-4.852l0,0c0-2.669,2.184-4.852,4.852-4.852h39.753
		C861.365,378.745,863.549,380.928,863.549,383.597z"/>
	<path fill-rule="evenodd" clip-rule="evenodd" fill="#DA9070" d="M863.549,401.515L863.549,401.515
		c0,2.668-2.184,4.852-4.853,4.852h-39.753c-2.668,0-4.852-2.183-4.852-4.851v0c0-2.668,2.184-4.852,4.852-4.852h39.753
		C861.365,396.664,863.549,398.847,863.549,401.515z"/>
	<path fill-rule="evenodd" clip-rule="evenodd" fill="#DA9070" d="M863.549,419.224L863.549,419.224
		c0,2.668-2.184,4.852-4.853,4.852h-39.753c-2.668,0-4.852-2.183-4.852-4.852v0c0-2.668,2.184-4.852,4.852-4.852h39.753
		C861.365,414.372,863.549,416.556,863.549,419.224z"/>
	<path fill-rule="evenodd" clip-rule="evenodd" fill="#DA9070" d="M756.91,330.471L756.91,330.471c0,2.668,2.184,4.853,4.852,4.853
		h39.753c2.668,0,4.852-2.184,4.852-4.852v0c0-2.668-2.183-4.852-4.852-4.852h-39.753C759.094,325.62,756.91,327.803,756.91,330.471
		z"/>
	<path fill-rule="evenodd" clip-rule="evenodd" fill="#DA9070" d="M756.91,348.18L756.91,348.18c0,2.668,2.184,4.852,4.852,4.852
		h39.753c2.668,0,4.852-2.183,4.852-4.852v0c0-2.668-2.183-4.851-4.852-4.851h-39.753C759.094,343.329,756.91,345.512,756.91,348.18
		z"/>
	<path fill-rule="evenodd" clip-rule="evenodd" fill="#DA9070" d="M756.91,365.888L756.91,365.888c0,2.668,2.184,4.852,4.852,4.852
		h39.753c2.668,0,4.852-2.183,4.852-4.851v0c0-2.668-2.183-4.852-4.852-4.852h-39.753C759.094,361.037,756.91,363.22,756.91,365.888
		z"/>
	<path fill-rule="evenodd" clip-rule="evenodd" fill="#DA9070" d="M756.91,383.597L756.91,383.597c0,2.668,2.184,4.852,4.852,4.852
		h39.753c2.668,0,4.852-2.183,4.852-4.852l0,0c0-2.669-2.183-4.852-4.852-4.852h-39.753
		C759.094,378.745,756.91,380.928,756.91,383.597z"/>
	<path fill-rule="evenodd" clip-rule="evenodd" fill="#DA9070" d="M756.91,401.515L756.91,401.515c0,2.668,2.184,4.852,4.852,4.852
		h39.753c2.668,0,4.852-2.183,4.852-4.851v0c0-2.668-2.183-4.852-4.852-4.852h-39.753
		C759.094,396.664,756.91,398.847,756.91,401.515z"/>
	<path fill-rule="evenodd" clip-rule="evenodd" fill="#DA9070" d="M756.91,419.224L756.91,419.224c0,2.668,2.184,4.852,4.852,4.852
		h39.753c2.668,0,4.852-2.183,4.852-4.852v0c0-2.668-2.183-4.852-4.852-4.852h-39.753
		C759.094,414.372,756.91,416.556,756.91,419.224z"/>
	<path fill-rule="evenodd" clip-rule="evenodd" fill="#E6E7E8" d="M822.563,315.04L822.563,315.04c0.915,0,1.663,0.749,1.663,1.663
		v116.716c0,0.914-0.75,1.663-1.663,1.663l0,0c-0.914,0-1.663-0.748-1.663-1.663V316.703
		C820.9,315.788,821.648,315.04,822.563,315.04z"/>
	<path fill-rule="evenodd" clip-rule="evenodd" fill="#E6E7E8" d="M798.02,315.04L798.02,315.04c0.914,0,1.662,0.749,1.662,1.663
		v116.716c0,0.914-0.748,1.663-1.662,1.663l0,0c-0.914,0-1.663-0.748-1.663-1.663V316.703
		C796.356,315.788,797.104,315.04,798.02,315.04z"/>
	<path fill-rule="evenodd" clip-rule="evenodd" fill="#E6E7E8" d="M847.107,315.04L847.107,315.04c0.914,0,1.662,0.749,1.662,1.663
		v116.716c0,0.914-0.748,1.663-1.662,1.663l0,0c-0.914,0-1.662-0.748-1.662-1.663V316.703
		C845.445,315.788,846.193,315.04,847.107,315.04z"/>
	<path fill-rule="evenodd" clip-rule="evenodd" fill="#E6E7E8" d="M773.475,315.04L773.475,315.04c0.915,0,1.663,0.749,1.663,1.663
		v116.716c0,0.914-0.749,1.663-1.663,1.663l0,0c-0.914,0-1.662-0.748-1.662-1.663V316.703
		C771.813,315.788,772.561,315.04,773.475,315.04z"/>
</g>
<rect x="909.51" y="0" fill-rule="evenodd" clip-rule="evenodd" fill="#303B47" width="62" height="316.702"/>
<rect x="909.51" y="287.765" fill-rule="evenodd" clip-rule="evenodd" fill="#151D27" width="62" height="28.938"/>
<g>
	<path fill-rule="evenodd" clip-rule="evenodd" fill="#30BCB1" d="M919.831,304.58v-22.556c-0.032-0.401-0.014-0.808,0.058-1.209
		c0.354-2.252,2.316-3.989,4.664-3.989l0,0c1.199,0,2.298,0.453,3.133,1.196l18.567,10.72c1.084,0.345,2.049,1.076,2.659,2.133v0
		c0.44,0.763,0.642,1.602,0.627,2.427c0.015,0.825-0.187,1.664-0.627,2.427v0c-0.61,1.057-1.574,1.789-2.659,2.133l-18.925,10.927
		c-0.78,0.57-1.74,0.908-2.775,0.908l0,0c-1.27,0-2.426-0.508-3.276-1.33c-0.319-0.304-0.601-0.656-0.832-1.056v0
		C919.949,306.453,919.757,305.501,919.831,304.58z"/>
	<path fill-rule="evenodd" clip-rule="evenodd" fill="#30BCB1" d="M960.024,249.07v22.557c0.032,0.401,0.015,0.807-0.057,1.209
		c-0.354,2.252-2.316,3.989-4.665,3.989l0,0c-1.199,0-2.297-0.454-3.132-1.196l-18.568-10.72c-1.084-0.344-2.048-1.076-2.658-2.133
		v0c-0.44-0.763-0.642-1.602-0.628-2.427c-0.014-0.825,0.188-1.664,0.628-2.427v0c0.61-1.057,1.574-1.789,2.658-2.133l18.926-10.926
		c0.78-0.57,1.739-0.908,2.774-0.908l0,0c1.271,0,2.426,0.508,3.277,1.331c0.319,0.303,0.601,0.656,0.831,1.055l0.001,0
		C959.906,247.197,960.1,248.149,960.024,249.07z"/>
	<path fill-rule="evenodd" clip-rule="evenodd" fill="#30BCB1" d="M919.831,240.082v-22.556c-0.032-0.401-0.014-0.807,0.058-1.209
		c0.354-2.252,2.316-3.989,4.664-3.989l0,0c1.199,0,2.298,0.453,3.133,1.196l18.567,10.72c1.084,0.344,2.049,1.076,2.659,2.133v0
		c0.44,0.763,0.642,1.602,0.627,2.427c0.015,0.825-0.187,1.664-0.627,2.427v0c-0.61,1.057-1.574,1.788-2.659,2.133l-18.925,10.926
		c-0.78,0.57-1.74,0.908-2.775,0.908l0,0c-1.27,0-2.426-0.508-3.276-1.331c-0.319-0.303-0.601-0.656-0.832-1.056l0,0
		C919.949,241.956,919.757,241.004,919.831,240.082z"/>
	<path fill-rule="evenodd" clip-rule="evenodd" fill="#30BCB1" d="M960.024,184.573v22.556c0.032,0.401,0.015,0.808-0.057,1.209
		c-0.354,2.252-2.316,3.989-4.665,3.989l0,0c-1.199,0-2.297-0.453-3.132-1.196l-18.568-10.72c-1.084-0.345-2.048-1.076-2.658-2.133
		v0c-0.44-0.763-0.642-1.602-0.628-2.427c-0.014-0.825,0.188-1.664,0.628-2.427v0c0.61-1.057,1.574-1.789,2.658-2.133l18.926-10.927
		c0.78-0.57,1.739-0.908,2.774-0.908l0,0c1.271,0,2.426,0.508,3.277,1.33c0.319,0.303,0.601,0.656,0.831,1.056l0.001,0
		C959.906,182.7,960.1,183.651,960.024,184.573z"/>
</g>
<g>
	<path fill-rule="evenodd" clip-rule="evenodd" fill="#30BCB1" d="M919.831,175.583v-22.557c-0.032-0.401-0.014-0.807,0.058-1.209
		c0.354-2.252,2.316-3.989,4.664-3.989l0,0c1.199,0,2.298,0.453,3.133,1.196l18.567,10.72c1.084,0.344,2.049,1.076,2.659,2.133v0
		c0.44,0.763,0.642,1.602,0.627,2.427c0.015,0.825-0.187,1.664-0.627,2.427v0c-0.61,1.057-1.574,1.789-2.659,2.133l-18.925,10.926
		c-0.78,0.57-1.74,0.908-2.775,0.908l0,0c-1.27,0-2.426-0.508-3.276-1.331c-0.319-0.303-0.601-0.656-0.832-1.056l0,0
		C919.949,177.456,919.757,176.504,919.831,175.583z"/>
	<path fill-rule="evenodd" clip-rule="evenodd" fill="#30BCB1" d="M960.024,120.074v22.556c0.032,0.401,0.015,0.808-0.057,1.209
		c-0.354,2.252-2.316,3.989-4.665,3.989l0,0c-1.199,0-2.297-0.453-3.132-1.196l-18.568-10.72c-1.084-0.345-2.048-1.076-2.658-2.133
		v0c-0.44-0.763-0.642-1.602-0.628-2.427c-0.014-0.825,0.188-1.664,0.628-2.427v-0.001c0.61-1.057,1.574-1.788,2.658-2.132
		l18.926-10.927c0.78-0.57,1.739-0.908,2.774-0.908l0,0c1.271,0,2.426,0.508,3.277,1.33c0.319,0.303,0.601,0.656,0.831,1.056
		l0.001,0C959.906,118.201,960.1,119.152,960.024,120.074z"/>
	<path fill-rule="evenodd" clip-rule="evenodd" fill="#30BCB1" d="M919.831,111.085V88.529c-0.032-0.401-0.014-0.808,0.058-1.209
		c0.354-2.252,2.316-3.989,4.664-3.989l0,0c1.199,0,2.298,0.453,3.133,1.196l18.567,10.72c1.084,0.345,2.049,1.076,2.659,2.133v0
		c0.44,0.763,0.642,1.602,0.627,2.427c0.015,0.825-0.187,1.664-0.627,2.426v0.001c-0.61,1.057-1.574,1.788-2.659,2.132
		l-18.925,10.927c-0.78,0.57-1.74,0.908-2.775,0.908l0,0c-1.27,0-2.426-0.508-3.276-1.33c-0.319-0.303-0.601-0.656-0.832-1.056v0
		C919.949,112.958,919.757,112.007,919.831,111.085z"/>
	<path fill-rule="evenodd" clip-rule="evenodd" fill="#30BCB1" d="M960.024,55.576v22.557c0.032,0.401,0.015,0.807-0.057,1.209
		c-0.354,2.252-2.316,3.989-4.665,3.989l0,0c-1.199,0-2.297-0.453-3.132-1.196l-18.568-10.72c-1.084-0.344-2.048-1.076-2.658-2.133
		v0c-0.44-0.763-0.642-1.602-0.628-2.427c-0.014-0.825,0.188-1.664,0.628-2.427v0c0.61-1.057,1.574-1.789,2.658-2.133l18.926-10.926
		c0.78-0.57,1.739-0.908,2.774-0.908l0,0c1.271,0,2.426,0.508,3.277,1.331c0.319,0.303,0.601,0.656,0.831,1.056h0.001
		C959.906,53.703,960.1,54.655,960.024,55.576z"/>
	<path fill-rule="evenodd" clip-rule="evenodd" fill="#30BCB1" d="M919.831,45.585V23.029c-0.032-0.4-0.014-0.807,0.058-1.209
		c0.354-2.252,2.316-3.989,4.664-3.989l0,0c1.199,0,2.298,0.454,3.133,1.196l18.567,10.72c1.084,0.344,2.049,1.076,2.659,2.133v0
		c0.44,0.763,0.642,1.602,0.627,2.427c0.015,0.825-0.187,1.664-0.627,2.427v0c-0.61,1.057-1.574,1.789-2.659,2.133l-18.925,10.926
		c-0.78,0.57-1.74,0.908-2.775,0.908l0,0c-1.27,0-2.426-0.508-3.276-1.33c-0.319-0.304-0.601-0.657-0.832-1.056v0
		C919.949,47.458,919.757,46.507,919.831,45.585z"/>
	<path fill-rule="evenodd" clip-rule="evenodd" fill="#30BCB1" d="M960.024,0v12.632c0.032,0.401,0.015,0.807-0.057,1.209
		c-0.354,2.252-2.316,3.989-4.665,3.989l0,0c-1.199,0-2.297-0.453-3.132-1.196l-18.568-10.72c-1.084-0.344-2.048-1.076-2.658-2.133
		v0c-0.44-0.763-0.642-1.602-0.628-2.427c-0.008-0.452,0.05-0.908,0.175-1.354H960.024z"/>
</g>
<path opacity="0.2" fill-rule="evenodd" clip-rule="evenodd" d="M297.284,578.464h857.605c7.791,0,14.165-6.374,14.165-14.165l0,0
	c0-1.029-0.112-2.034-0.323-3.002c-1.388,6.36-7.08,11.162-13.842,11.162H297.284c-6.761,0-12.454-4.802-13.841-11.162
	c-0.211,0.968-0.323,1.973-0.323,3.002l0,0C283.12,572.09,289.494,578.464,297.284,578.464z"/>
<path opacity="0.2" fill-rule="evenodd" clip-rule="evenodd" fill="#303B47" d="M1014.123,526.93h126.675v18.343
	c0,2.674-2.188,4.862-4.861,4.862h-116.951c-2.674,0-4.862-2.189-4.862-4.862V526.93z"/>
<path opacity="0.2" fill-rule="evenodd" clip-rule="evenodd" fill="#303B47" d="M748.01,480.729h100.904l-0.181,48.125h141.2v16.418
	c0,2.673-2.188,4.862-4.861,4.862H752.871c-2.673,0-4.861-2.189-4.861-4.862V480.729z"/>
<path opacity="0.2" fill-rule="evenodd" clip-rule="evenodd" fill="#303B47" d="M352.109,550.135h232.2
	c2.675,0,4.862-2.188,4.862-4.862c0,2.673,2.188,4.862,4.861,4.862h116.951c2.675,0,4.862-2.188,4.862-4.862V466.33H456.962
	l-0.178,57.195l-109.538,0.95v20.797C347.247,547.945,349.435,550.135,352.109,550.135z"/>
<g>
	<g>
		<path fill-rule="evenodd" clip-rule="evenodd" fill="#E6E7E8" d="M312.547,550.135V494.53c0-2.833-2.318-5.15-5.151-5.15l0,0
			c-2.833,0-5.151,2.317-5.151,5.15v55.604H312.547z"/>
		<path fill-rule="evenodd" clip-rule="evenodd" fill="#E6E7E8" d="M376.61,550.135V494.53c0-2.833-2.318-5.15-5.151-5.15l0,0
			c-2.833,0-5.151,2.317-5.151,5.15v55.604H376.61z"/>
		<path fill-rule="evenodd" clip-rule="evenodd" fill="#E6E7E8" d="M440.673,550.135V494.53c0-2.833-2.318-5.15-5.151-5.15l0,0
			c-2.833,0-5.151,2.317-5.151,5.15v55.604H440.673z"/>
		<path fill-rule="evenodd" clip-rule="evenodd" fill="#E6E7E8" d="M504.736,550.135V494.53c0-2.833-2.318-5.15-5.151-5.15l0,0
			c-2.833,0-5.15,2.317-5.15,5.15v55.604H504.736z"/>
		<path fill-rule="evenodd" clip-rule="evenodd" fill="#E6E7E8" d="M568.799,550.135V494.53c0-2.833-2.318-5.15-5.15-5.15l0,0
			c-2.834,0-5.15,2.317-5.15,5.15v55.604H568.799z"/>
		<path fill-rule="evenodd" clip-rule="evenodd" fill="#E6E7E8" d="M632.861,550.135V494.53c0-2.833-2.317-5.15-5.15-5.15l0,0
			c-2.833,0-5.15,2.317-5.15,5.15v55.604H632.861z"/>
		<path fill-rule="evenodd" clip-rule="evenodd" fill="#E6E7E8" d="M696.925,550.135V494.53c0-2.833-2.317-5.15-5.151-5.15l0,0
			c-2.832,0-5.15,2.317-5.15,5.15v55.604H696.925z"/>
		<path fill-rule="evenodd" clip-rule="evenodd" fill="#E6E7E8" d="M760.987,550.135V494.53c0-2.833-2.317-5.15-5.15-5.15h-0.001
			c-2.832,0-5.15,2.317-5.15,5.15v55.604H760.987z"/>
	</g>
	<path fill-rule="evenodd" clip-rule="evenodd" fill="#E6E7E8" d="M825.496,550.135V494.53c0-2.833-2.317-5.15-5.15-5.15l0,0
		c-2.833,0-5.15,2.317-5.15,5.15v55.604H825.496z"/>
	<path fill-rule="evenodd" clip-rule="evenodd" fill="#E6E7E8" d="M889.56,550.135V494.53c0-2.833-2.317-5.15-5.15-5.15l0,0
		c-2.833,0-5.151,2.317-5.151,5.15v55.604H889.56z"/>
	<path fill-rule="evenodd" clip-rule="evenodd" fill="#E6E7E8" d="M953.622,550.135V494.53c0-2.833-2.317-5.15-5.15-5.15l0,0
		c-2.833,0-5.15,2.317-5.15,5.15v55.604H953.622z"/>
	<path fill-rule="evenodd" clip-rule="evenodd" fill="#E6E7E8" d="M1017.686,550.135V494.53c0-2.833-2.318-5.15-5.151-5.15l0,0
		c-2.833,0-5.15,2.317-5.15,5.15v55.604H1017.686z"/>
	<path fill-rule="evenodd" clip-rule="evenodd" fill="#E6E7E8" d="M1081.748,550.135V494.53c0-2.833-2.317-5.15-5.15-5.15l0,0
		c-2.833,0-5.15,2.317-5.15,5.15v55.604H1081.748z"/>
	<path fill-rule="evenodd" clip-rule="evenodd" fill="#E6E7E8" d="M1145.812,550.135V494.53c0-2.833-2.318-5.15-5.151-5.15l0,0
		c-2.833,0-5.15,2.317-5.15,5.15v55.604H1145.812z"/>
</g>
<g>
	<g>
		<rect x="302.245" y="541.696" fill-rule="evenodd" clip-rule="evenodd" fill="#D1D3D4" width="10.302" height="8.438"/>
		<rect x="366.308" y="541.696" fill-rule="evenodd" clip-rule="evenodd" fill="#D1D3D4" width="10.302" height="8.438"/>
		<rect x="430.371" y="541.696" fill-rule="evenodd" clip-rule="evenodd" fill="#D1D3D4" width="10.302" height="8.438"/>
		<rect x="494.435" y="541.696" fill-rule="evenodd" clip-rule="evenodd" fill="#D1D3D4" width="10.301" height="8.438"/>
		<rect x="558.498" y="541.696" fill-rule="evenodd" clip-rule="evenodd" fill="#D1D3D4" width="10.301" height="8.438"/>
		<rect x="622.561" y="541.696" fill-rule="evenodd" clip-rule="evenodd" fill="#D1D3D4" width="10.301" height="8.438"/>
		<rect x="686.623" y="541.696" fill-rule="evenodd" clip-rule="evenodd" fill="#D1D3D4" width="10.302" height="8.438"/>
		<rect x="750.686" y="541.696" fill-rule="evenodd" clip-rule="evenodd" fill="#D1D3D4" width="10.302" height="8.438"/>
	</g>
	<rect x="815.195" y="541.696" fill-rule="evenodd" clip-rule="evenodd" fill="#D1D3D4" width="10.301" height="8.438"/>
	<rect x="879.258" y="541.696" fill-rule="evenodd" clip-rule="evenodd" fill="#D1D3D4" width="10.302" height="8.438"/>
	<rect x="943.321" y="541.696" fill-rule="evenodd" clip-rule="evenodd" fill="#D1D3D4" width="10.301" height="8.438"/>
	<rect x="1007.384" y="541.696" fill-rule="evenodd" clip-rule="evenodd" fill="#D1D3D4" width="10.302" height="8.438"/>
	<rect x="1071.447" y="541.696" fill-rule="evenodd" clip-rule="evenodd" fill="#D1D3D4" width="10.301" height="8.438"/>
	<rect x="1135.51" y="541.696" fill-rule="evenodd" clip-rule="evenodd" fill="#D1D3D4" width="10.302" height="8.438"/>
</g>
<path fill-rule="evenodd" clip-rule="evenodd" fill="#54A7BA" d="M1163.79,779.297h70.231c6.487,0,11.795,5.308,11.795,11.795
	s-5.308,11.795-11.795,11.795h-70.231c-6.487,0-11.795-5.308-11.795-11.795S1157.303,779.297,1163.79,779.297z"/>
<path fill-rule="evenodd" clip-rule="evenodd" fill="#54A7BA" d="M1112.189,779.297h9.632c6.487,0,11.795,5.308,11.795,11.795
	s-5.308,11.795-11.795,11.795h-9.632c-6.486,0-11.794-5.308-11.794-11.795S1105.703,779.297,1112.189,779.297z"/>
<path fill-rule="evenodd" clip-rule="evenodd" fill="#54A7BA" d="M1022.523,666.703h70.231c6.487,0,11.795,5.307,11.795,11.794
	s-5.308,11.795-11.795,11.795h-70.231c-6.487,0-11.795-5.308-11.795-11.795S1016.036,666.703,1022.523,666.703z"/>
<path fill-rule="evenodd" clip-rule="evenodd" fill="#54A7BA" d="M1233.423,647.898h9.632c6.487,0,11.795,5.307,11.795,11.794
	s-5.308,11.795-11.795,11.795h-9.632c-6.486,0-11.794-5.308-11.794-11.795S1226.937,647.898,1233.423,647.898z"/>
<path fill-rule="evenodd" clip-rule="evenodd" fill="#54A7BA" d="M771.123,810.893h117.632c6.487,0,11.795,5.307,11.795,11.794
	s-5.309,11.795-11.795,11.795H771.123c-6.486,0-11.795-5.308-11.795-11.795S764.637,810.893,771.123,810.893z"/>
<path fill-rule="evenodd" clip-rule="evenodd" fill="#54A7BA" d="M692.374,810.253h43.382c6.486,0,11.794,5.308,11.794,11.795
	s-5.308,11.794-11.794,11.794h-43.382c-6.487,0-11.794-5.307-11.794-11.794S685.887,810.253,692.374,810.253z"/>
<path fill-rule="evenodd" clip-rule="evenodd" fill="#54A7BA" d="M832.971,719.196h157.993c14.593,0,26.532,11.939,26.532,26.533
	s-11.939,26.533-26.532,26.533H832.971c-14.593,0-26.533-11.939-26.533-26.533S818.378,719.196,832.971,719.196z"/>
<g>
	<rect x="177.132" y="569.697" fill-rule="evenodd" clip-rule="evenodd" fill="#FFFFFF" width="203.571" height="92.356"/>
	<rect x="265.148" y="569.697" fill-rule="evenodd" clip-rule="evenodd" fill="#E6E7E8" width="115.555" height="92.356"/>
	<g>
		<path fill-rule="evenodd" clip-rule="evenodd" fill="#53C0A5" d="M684.915,591.52h80.54c1.381,0,2.51-1.747,2.51-3.884V502.15
			c0-2.137-1.131-3.885-2.51-3.885h-80.54c-1.38,0-2.511,1.749-2.511,3.885v85.485C682.404,589.771,683.534,591.52,684.915,591.52z"
			/>
		<path fill-rule="evenodd" clip-rule="evenodd" fill="#B5D77E" d="M762.826,509.267L762.826,509.267
			c0,2.132-1.127,3.877-2.506,3.877h-20.523c-1.377,0-2.504-1.744-2.504-3.876v-0.001c0-2.132,1.127-3.876,2.504-3.876h20.523
			C761.699,505.391,762.826,507.135,762.826,509.267z"/>
		<path fill-rule="evenodd" clip-rule="evenodd" fill="#B5D77E" d="M762.826,523.415L762.826,523.415
			c0,2.132-1.127,3.877-2.506,3.877h-20.523c-1.377,0-2.504-1.744-2.504-3.876v-0.001c0-2.132,1.127-3.876,2.504-3.876h20.523
			C761.699,519.539,762.826,521.283,762.826,523.415z"/>
		<path fill-rule="evenodd" clip-rule="evenodd" fill="#B5D77E" d="M762.826,537.564c0,2.132-1.127,3.876-2.506,3.876h-20.523
			c-1.377,0-2.504-1.744-2.504-3.876c0-2.133,1.127-3.877,2.504-3.877h20.523C761.699,533.688,762.826,535.433,762.826,537.564z"/>
		<path fill-rule="evenodd" clip-rule="evenodd" fill="#B5D77E" d="M762.826,551.713L762.826,551.713
			c0,2.132-1.127,3.877-2.506,3.877h-20.523c-1.377,0-2.504-1.745-2.504-3.877l0,0c0-2.133,1.127-3.877,2.504-3.877h20.523
			C761.699,547.836,762.826,549.581,762.826,551.713z"/>
		<path fill-rule="evenodd" clip-rule="evenodd" fill="#B5D77E" d="M762.826,566.029L762.826,566.029
			c0,2.133-1.127,3.877-2.506,3.877h-20.523c-1.377,0-2.504-1.744-2.504-3.876v-0.001c0-2.132,1.127-3.876,2.504-3.876h20.523
			C761.699,562.153,762.826,563.897,762.826,566.029z"/>
		<path fill-rule="evenodd" clip-rule="evenodd" fill="#B5D77E" d="M762.826,580.179L762.826,580.179
			c0,2.132-1.127,3.876-2.506,3.876h-20.523c-1.377,0-2.504-1.744-2.504-3.876l0,0c0-2.132,1.127-3.877,2.504-3.877h20.523
			C761.699,576.302,762.826,578.047,762.826,580.179z"/>
		<path fill-rule="evenodd" clip-rule="evenodd" fill="#B5D77E" d="M707.771,509.267L707.771,509.267
			c0,2.132,1.127,3.877,2.505,3.877h20.523c1.377,0,2.505-1.744,2.505-3.876v-0.001c0-2.132-1.127-3.876-2.505-3.876h-20.523
			C708.897,505.391,707.771,507.135,707.771,509.267z"/>
		<path fill-rule="evenodd" clip-rule="evenodd" fill="#B5D77E" d="M707.771,523.415L707.771,523.415
			c0,2.132,1.127,3.877,2.505,3.877h20.523c1.377,0,2.505-1.744,2.505-3.876v-0.001c0-2.132-1.127-3.876-2.505-3.876h-20.523
			C708.897,519.539,707.771,521.283,707.771,523.415z"/>
		<path fill-rule="evenodd" clip-rule="evenodd" fill="#B5D77E" d="M707.771,537.564c0,2.132,1.127,3.876,2.505,3.876h20.523
			c1.377,0,2.505-1.744,2.505-3.876c0-2.133-1.127-3.877-2.505-3.877h-20.523C708.897,533.688,707.771,535.433,707.771,537.564z"/>
		<path fill-rule="evenodd" clip-rule="evenodd" fill="#B5D77E" d="M707.771,551.713L707.771,551.713
			c0,2.132,1.127,3.877,2.505,3.877h20.523c1.377,0,2.505-1.745,2.505-3.877l0,0c0-2.133-1.127-3.877-2.505-3.877h-20.523
			C708.897,547.836,707.771,549.581,707.771,551.713z"/>
		<path fill-rule="evenodd" clip-rule="evenodd" fill="#B5D77E" d="M707.771,566.029L707.771,566.029
			c0,2.133,1.127,3.877,2.505,3.877h20.523c1.377,0,2.505-1.744,2.505-3.876v-0.001c0-2.132-1.127-3.876-2.505-3.876h-20.523
			C708.897,562.153,707.771,563.897,707.771,566.029z"/>
		<path fill-rule="evenodd" clip-rule="evenodd" fill="#B5D77E" d="M707.771,580.179L707.771,580.179
			c0,2.132,1.127,3.876,2.505,3.876h20.523c1.377,0,2.505-1.744,2.505-3.876l0,0c0-2.132-1.127-3.877-2.505-3.877h-20.523
			C708.897,576.302,707.771,578.047,707.771,580.179z"/>
		<path fill-rule="evenodd" clip-rule="evenodd" fill="#E6E7E8" d="M741.666,496.938c0.473,0,0.858,0.598,0.858,1.328v93.254
			c0,0.73-0.387,1.329-0.858,1.329s-0.858-0.599-0.858-1.329v-93.254C740.808,497.535,741.193,496.938,741.666,496.938z"/>
		<path fill-rule="evenodd" clip-rule="evenodd" fill="#E6E7E8" d="M728.994,496.938L728.994,496.938
			c0.473,0,0.858,0.598,0.858,1.328v93.254c0,0.73-0.386,1.329-0.858,1.329l0,0c-0.472,0-0.858-0.599-0.858-1.329v-93.254
			C728.136,497.535,728.521,496.938,728.994,496.938z"/>
		<path fill-rule="evenodd" clip-rule="evenodd" fill="#E6E7E8" d="M754.338,496.938c0.472,0,0.857,0.598,0.857,1.328v93.254
			c0,0.73-0.386,1.329-0.857,1.329c-0.473,0-0.859-0.599-0.859-1.329v-93.254C753.479,497.535,753.865,496.938,754.338,496.938z"/>
		<path fill-rule="evenodd" clip-rule="evenodd" fill="#E6E7E8" d="M716.322,496.938L716.322,496.938
			c0.473,0,0.859,0.598,0.859,1.328v93.254c0,0.73-0.387,1.329-0.859,1.329l0,0c-0.472,0-0.858-0.599-0.858-1.329v-93.254
			C715.464,497.535,715.851,496.938,716.322,496.938z"/>
	</g>
	<g>
		<path fill-rule="evenodd" clip-rule="evenodd" fill="#79ABDC" d="M577.488,685.053h80.54c1.38,0,2.51-1.748,2.51-3.885v-85.486
			c0-2.136-1.13-3.884-2.51-3.884h-80.54c-1.381,0-2.511,1.749-2.511,3.884v85.486C574.978,683.303,576.107,685.053,577.488,685.053
			z"/>
		<path fill-rule="evenodd" clip-rule="evenodd" fill="#F5B168" d="M655.398,602.799L655.398,602.799
			c0,2.132-1.127,3.877-2.504,3.877h-20.523c-1.378,0-2.506-1.744-2.506-3.876v-0.001c0-2.132,1.127-3.876,2.506-3.876h20.523
			C654.271,598.923,655.398,600.667,655.398,602.799z"/>
		<path fill-rule="evenodd" clip-rule="evenodd" fill="#F5B168" d="M655.398,616.947L655.398,616.947
			c0,2.133-1.127,3.877-2.504,3.877h-20.523c-1.378,0-2.506-1.744-2.506-3.876v-0.001c0-2.132,1.127-3.876,2.506-3.876h20.523
			C654.271,613.071,655.398,614.815,655.398,616.947z"/>
		<path fill-rule="evenodd" clip-rule="evenodd" fill="#F5B168" d="M655.398,631.097c0,2.132-1.127,3.876-2.504,3.876h-20.523
			c-1.378,0-2.506-1.744-2.506-3.876c0-2.133,1.127-3.877,2.506-3.877h20.523C654.271,627.22,655.398,628.965,655.398,631.097z"/>
		<path fill-rule="evenodd" clip-rule="evenodd" fill="#F5B168" d="M655.398,645.245L655.398,645.245
			c0,2.132-1.127,3.877-2.504,3.877h-20.523c-1.378,0-2.506-1.745-2.506-3.877l0,0c0-2.132,1.127-3.876,2.506-3.876h20.523
			C654.271,641.369,655.398,643.113,655.398,645.245z"/>
		<path fill-rule="evenodd" clip-rule="evenodd" fill="#F5B168" d="M655.398,659.562L655.398,659.562
			c0,2.132-1.127,3.877-2.504,3.877h-20.523c-1.378,0-2.506-1.744-2.506-3.876v-0.001c0-2.132,1.127-3.876,2.506-3.876h20.523
			C654.271,655.686,655.398,657.43,655.398,659.562z"/>
		<path fill-rule="evenodd" clip-rule="evenodd" fill="#F5B168" d="M655.398,673.711L655.398,673.711
			c0,2.132-1.127,3.876-2.504,3.876h-20.523c-1.378,0-2.506-1.744-2.506-3.876l0,0c0-2.133,1.127-3.877,2.506-3.877h20.523
			C654.271,669.834,655.398,671.578,655.398,673.711z"/>
		<path fill-rule="evenodd" clip-rule="evenodd" fill="#66CCEC" d="M600.344,602.799L600.344,602.799
			c0,2.132,1.127,3.877,2.505,3.877h20.523c1.378,0,2.505-1.744,2.505-3.876v-0.001c0-2.132-1.127-3.876-2.505-3.876h-20.523
			C601.471,598.923,600.344,600.667,600.344,602.799z"/>
		<path fill-rule="evenodd" clip-rule="evenodd" fill="#66CCEC" d="M600.344,616.947L600.344,616.947
			c0,2.133,1.127,3.877,2.505,3.877h20.523c1.378,0,2.505-1.744,2.505-3.876v-0.001c0-2.132-1.127-3.876-2.505-3.876h-20.523
			C601.471,613.071,600.344,614.815,600.344,616.947z"/>
		<path fill-rule="evenodd" clip-rule="evenodd" fill="#66CCEC" d="M600.344,631.097c0,2.132,1.127,3.876,2.505,3.876h20.523
			c1.378,0,2.505-1.744,2.505-3.876c0-2.133-1.127-3.877-2.505-3.877h-20.523C601.471,627.22,600.344,628.965,600.344,631.097z"/>
		<path fill-rule="evenodd" clip-rule="evenodd" fill="#66CCEC" d="M600.344,645.245L600.344,645.245
			c0,2.132,1.127,3.877,2.505,3.877h20.523c1.378,0,2.505-1.745,2.505-3.877l0,0c0-2.132-1.127-3.876-2.505-3.876h-20.523
			C601.471,641.369,600.344,643.113,600.344,645.245z"/>
		<path fill-rule="evenodd" clip-rule="evenodd" fill="#66CCEC" d="M600.344,659.562L600.344,659.562
			c0,2.132,1.127,3.877,2.505,3.877h20.523c1.378,0,2.505-1.744,2.505-3.876v-0.001c0-2.132-1.127-3.876-2.505-3.876h-20.523
			C601.471,655.686,600.344,657.43,600.344,659.562z"/>
		<path fill-rule="evenodd" clip-rule="evenodd" fill="#F5B168" d="M600.344,673.711L600.344,673.711
			c0,2.132,1.127,3.876,2.505,3.876h20.523c1.378,0,2.505-1.744,2.505-3.876l0,0c0-2.133-1.127-3.877-2.505-3.877h-20.523
			C601.471,669.834,600.344,671.578,600.344,673.711z"/>
		<path fill-rule="evenodd" clip-rule="evenodd" fill="#E6E7E8" d="M634.239,590.47c0.472,0,0.858,0.598,0.858,1.328v93.255
			c0,0.729-0.387,1.328-0.858,1.328s-0.858-0.598-0.858-1.328v-93.255C633.381,591.067,633.767,590.47,634.239,590.47z"/>
		<path fill-rule="evenodd" clip-rule="evenodd" fill="#E6E7E8" d="M621.567,590.47L621.567,590.47c0.472,0,0.858,0.598,0.858,1.328
			v93.255c0,0.729-0.387,1.328-0.858,1.328l0,0c-0.472,0-0.858-0.598-0.858-1.328v-93.255
			C620.709,591.067,621.096,590.47,621.567,590.47z"/>
		<path fill-rule="evenodd" clip-rule="evenodd" fill="#E6E7E8" d="M646.91,590.47c0.473,0,0.859,0.598,0.859,1.328v93.255
			c0,0.729-0.387,1.328-0.859,1.328c-0.471,0-0.857-0.598-0.857-1.328v-93.255C646.053,591.067,646.438,590.47,646.91,590.47z"/>
		<path fill-rule="evenodd" clip-rule="evenodd" fill="#E6E7E8" d="M608.896,590.47L608.896,590.47c0.472,0,0.858,0.598,0.858,1.328
			v93.255c0,0.729-0.387,1.328-0.857,1.328h-0.001c-0.472,0-0.858-0.598-0.858-1.328v-93.255
			C608.037,591.067,608.424,590.47,608.896,590.47z"/>
	</g>
	<g>
		<path fill-rule="evenodd" clip-rule="evenodd" fill="#66CCEC" d="M405.409,685.053h185.963c2.142,0,3.894-1.753,3.894-3.895
			v-85.688c0-2.141-1.754-3.894-3.894-3.894H405.409c-2.141,0-3.894,1.754-3.894,3.894v85.688
			C401.516,683.299,403.268,685.053,405.409,685.053z"/>
		<path fill-rule="evenodd" clip-rule="evenodd" fill="#79ABDC" d="M413.2,598.52L413.2,598.52c2.329,0,4.233,1.904,4.233,4.233
			v70.783c0,2.328-1.905,4.233-4.233,4.233l0,0c-2.329,0-4.233-1.905-4.233-4.233v-70.783
			C408.966,600.424,410.871,598.52,413.2,598.52z"/>
		<path fill-rule="evenodd" clip-rule="evenodd" fill="#79ABDC" d="M428.651,598.52L428.651,598.52c2.329,0,4.234,1.904,4.234,4.233
			v70.783c0,2.328-1.905,4.233-4.233,4.233h0c-2.328,0-4.233-1.905-4.233-4.233v-70.783
			C424.418,600.424,426.323,598.52,428.651,598.52z"/>
		<path fill-rule="evenodd" clip-rule="evenodd" fill="#79ABDC" d="M444.104,598.52L444.104,598.52c2.329,0,4.233,1.904,4.233,4.233
			v70.783c0,2.328-1.905,4.233-4.233,4.233l0,0c-2.329,0-4.233-1.905-4.233-4.233v-70.783
			C439.87,600.424,441.775,598.52,444.104,598.52z"/>
		<path fill-rule="evenodd" clip-rule="evenodd" fill="#79ABDC" d="M459.556,598.52L459.556,598.52c2.328,0,4.233,1.904,4.233,4.233
			v70.783c0,2.328-1.905,4.233-4.233,4.233l0,0c-2.329,0-4.233-1.905-4.233-4.233v-70.783
			C455.322,600.424,457.227,598.52,459.556,598.52z"/>
		<path fill-rule="evenodd" clip-rule="evenodd" fill="#79ABDC" d="M475.191,598.52L475.191,598.52c2.329,0,4.233,1.904,4.233,4.233
			v70.783c0,2.328-1.905,4.233-4.233,4.233h0c-2.328,0-4.233-1.905-4.233-4.233v-70.783
			C470.958,600.424,472.863,598.52,475.191,598.52z"/>
		<path fill-rule="evenodd" clip-rule="evenodd" fill="#79ABDC" d="M490.643,598.52L490.643,598.52c2.329,0,4.234,1.904,4.234,4.233
			v70.783c0,2.328-1.905,4.233-4.233,4.233h0c-2.328,0-4.233-1.905-4.233-4.233v-70.783
			C486.41,600.424,488.314,598.52,490.643,598.52z"/>
		<path fill-rule="evenodd" clip-rule="evenodd" fill="#79ABDC" d="M506.095,598.52L506.095,598.52c2.329,0,4.233,1.904,4.233,4.233
			v70.783c0,2.328-1.905,4.233-4.233,4.233l0,0c-2.328,0-4.233-1.905-4.233-4.233v-70.783
			C501.861,600.424,503.767,598.52,506.095,598.52z"/>
		<path fill-rule="evenodd" clip-rule="evenodd" fill="#79ABDC" d="M521.546,598.52L521.546,598.52c2.329,0,4.234,1.904,4.234,4.233
			v70.783c0,2.328-1.905,4.233-4.233,4.233h0c-2.328,0-4.233-1.905-4.233-4.233v-70.783
			C517.313,600.424,519.218,598.52,521.546,598.52z"/>
		<path fill-rule="evenodd" clip-rule="evenodd" fill="#79ABDC" d="M536.998,598.52L536.998,598.52c2.329,0,4.234,1.904,4.234,4.233
			v70.783c0,2.328-1.905,4.233-4.234,4.233l0,0c-2.328,0-4.232-1.905-4.232-4.233v-70.783
			C532.766,600.424,534.67,598.52,536.998,598.52z"/>
		<path fill-rule="evenodd" clip-rule="evenodd" fill="#79ABDC" d="M552.45,598.52L552.45,598.52c2.329,0,4.233,1.904,4.233,4.233
			v70.783c0,2.328-1.904,4.233-4.232,4.233h-0.001c-2.328,0-4.233-1.905-4.233-4.233v-70.783
			C548.217,600.424,550.122,598.52,552.45,598.52z"/>
		<path fill-rule="evenodd" clip-rule="evenodd" fill="#79ABDC" d="M568.086,598.52L568.086,598.52c2.328,0,4.234,1.904,4.234,4.233
			v70.783c0,2.328-1.906,4.233-4.234,4.233l0,0c-2.328,0-4.232-1.905-4.232-4.233v-70.783
			C563.854,600.424,565.758,598.52,568.086,598.52z"/>
		<path fill-rule="evenodd" clip-rule="evenodd" fill="#79ABDC" d="M583.537,598.52L583.537,598.52c2.33,0,4.234,1.904,4.234,4.233
			v70.783c0,2.328-1.904,4.233-4.233,4.233h-0.001c-2.328,0-4.232-1.905-4.232-4.233v-70.783
			C579.305,600.424,581.209,598.52,583.537,598.52z"/>
	</g>
	<g>
		<path fill-rule="evenodd" clip-rule="evenodd" fill="#F5B168" d="M785.02,685.053h80.54c1.381,0,2.51-1.748,2.51-3.885v-85.486
			c0-2.136-1.13-3.884-2.51-3.884h-80.54c-1.38,0-2.51,1.749-2.51,3.884v85.486C782.51,683.303,783.639,685.053,785.02,685.053z"/>
		<path fill-rule="evenodd" clip-rule="evenodd" fill="#FDDD08" d="M862.93,602.799L862.93,602.799c0,2.132-1.127,3.877-2.504,3.877
			h-20.523c-1.378,0-2.505-1.744-2.505-3.876v-0.001c0-2.132,1.127-3.876,2.505-3.876h20.523
			C861.803,598.923,862.93,600.667,862.93,602.799z"/>
		<path fill-rule="evenodd" clip-rule="evenodd" fill="#FDDD08" d="M862.93,616.947L862.93,616.947c0,2.133-1.127,3.877-2.504,3.877
			h-20.523c-1.378,0-2.505-1.744-2.505-3.876v-0.001c0-2.132,1.127-3.876,2.505-3.876h20.523
			C861.803,613.071,862.93,614.815,862.93,616.947z"/>
		<path fill-rule="evenodd" clip-rule="evenodd" fill="#F5B168" d="M862.93,631.097c0,2.132-1.127,3.876-2.504,3.876h-20.523
			c-1.378,0-2.505-1.744-2.505-3.876c0-2.133,1.127-3.877,2.505-3.877h20.523C861.803,627.22,862.93,628.965,862.93,631.097z"/>
		<path fill-rule="evenodd" clip-rule="evenodd" fill="#F5B168" d="M862.93,645.245L862.93,645.245c0,2.132-1.127,3.877-2.504,3.877
			h-20.523c-1.378,0-2.505-1.745-2.505-3.877l0,0c0-2.132,1.127-3.876,2.505-3.876h20.523
			C861.803,641.369,862.93,643.113,862.93,645.245z"/>
		<path fill-rule="evenodd" clip-rule="evenodd" fill="#F5B168" d="M862.93,659.562L862.93,659.562c0,2.132-1.127,3.877-2.504,3.877
			h-20.523c-1.378,0-2.505-1.744-2.505-3.876v-0.001c0-2.132,1.127-3.876,2.505-3.876h20.523
			C861.803,655.686,862.93,657.43,862.93,659.562z"/>
		<path fill-rule="evenodd" clip-rule="evenodd" fill="#F5B168" d="M862.93,673.711L862.93,673.711c0,2.132-1.127,3.876-2.504,3.876
			h-20.523c-1.378,0-2.505-1.744-2.505-3.876l0,0c0-2.133,1.127-3.877,2.505-3.877h20.523
			C861.803,669.834,862.93,671.578,862.93,673.711z"/>
		<path fill-rule="evenodd" clip-rule="evenodd" fill="#FDDD08" d="M807.875,602.799L807.875,602.799
			c0,2.132,1.127,3.877,2.505,3.877h20.524c1.377,0,2.504-1.744,2.504-3.876v-0.001c0-2.132-1.127-3.876-2.504-3.876H810.38
			C809.002,598.923,807.875,600.667,807.875,602.799z"/>
		<path fill-rule="evenodd" clip-rule="evenodd" fill="#FDDD08" d="M807.875,616.947L807.875,616.947
			c0,2.133,1.127,3.877,2.505,3.877h20.524c1.377,0,2.504-1.744,2.504-3.876v-0.001c0-2.132-1.127-3.876-2.504-3.876H810.38
			C809.002,613.071,807.875,614.815,807.875,616.947z"/>
		<path fill-rule="evenodd" clip-rule="evenodd" fill="#F5B168" d="M807.875,631.097c0,2.132,1.127,3.876,2.505,3.876h20.524
			c1.377,0,2.504-1.744,2.504-3.876c0-2.133-1.127-3.877-2.504-3.877H810.38C809.002,627.22,807.875,628.965,807.875,631.097z"/>
		<path fill-rule="evenodd" clip-rule="evenodd" fill="#F5B168" d="M807.875,645.245L807.875,645.245
			c0,2.132,1.127,3.877,2.505,3.877h20.524c1.377,0,2.504-1.745,2.504-3.877l0,0c0-2.132-1.127-3.876-2.504-3.876H810.38
			C809.002,641.369,807.875,643.113,807.875,645.245z"/>
		<path fill-rule="evenodd" clip-rule="evenodd" fill="#F5B168" d="M807.875,659.562L807.875,659.562
			c0,2.132,1.127,3.877,2.505,3.877h20.524c1.377,0,2.504-1.744,2.504-3.876v-0.001c0-2.132-1.127-3.876-2.504-3.876H810.38
			C809.002,655.686,807.875,657.43,807.875,659.562z"/>
		<path fill-rule="evenodd" clip-rule="evenodd" fill="#F5B168" d="M807.875,673.711L807.875,673.711
			c0,2.132,1.127,3.876,2.505,3.876h20.524c1.377,0,2.504-1.744,2.504-3.876l0,0c0-2.133-1.127-3.877-2.504-3.877H810.38
			C809.002,669.834,807.875,671.578,807.875,673.711z"/>
		<path fill-rule="evenodd" clip-rule="evenodd" fill="#E6E7E8" d="M841.771,590.47c0.472,0,0.858,0.598,0.858,1.328v93.255
			c0,0.729-0.387,1.328-0.858,1.328s-0.858-0.598-0.858-1.328v-93.255C840.912,591.067,841.299,590.47,841.771,590.47z"/>
		<path fill-rule="evenodd" clip-rule="evenodd" fill="#E6E7E8" d="M829.099,590.47L829.099,590.47c0.472,0,0.858,0.598,0.858,1.328
			v93.255c0,0.729-0.387,1.328-0.857,1.328h-0.001c-0.472,0-0.858-0.598-0.858-1.328v-93.255
			C828.24,591.067,828.627,590.47,829.099,590.47z"/>
		<path fill-rule="evenodd" clip-rule="evenodd" fill="#E6E7E8" d="M854.442,590.47c0.472,0,0.858,0.598,0.858,1.328v93.255
			c0,0.729-0.387,1.328-0.858,1.328s-0.858-0.598-0.858-1.328v-93.255C853.584,591.067,853.971,590.47,854.442,590.47z"/>
		<path fill-rule="evenodd" clip-rule="evenodd" fill="#E6E7E8" d="M816.428,590.47L816.428,590.47c0.472,0,0.857,0.598,0.857,1.328
			v93.255c0,0.729-0.387,1.328-0.857,1.328l0,0c-0.473,0-0.859-0.598-0.859-1.328v-93.255
			C815.568,591.067,815.955,590.47,816.428,590.47z"/>
	</g>
	<g>
		<path fill-rule="evenodd" clip-rule="evenodd" fill="#FDDD08" d="M611.808,685.053H797.77c2.142,0,3.895-1.753,3.895-3.895
			v-85.688c0-2.141-1.754-3.894-3.895-3.894H611.808c-2.141,0-3.894,1.754-3.894,3.894v85.688
			C607.914,683.299,609.666,685.053,611.808,685.053z"/>
		<path fill-rule="evenodd" clip-rule="evenodd" fill="#F5B168" d="M619.598,598.52L619.598,598.52c2.329,0,4.234,1.904,4.234,4.233
			v70.783c0,2.328-1.905,4.233-4.234,4.233l0,0c-2.328,0-4.232-1.905-4.232-4.233v-70.783
			C615.365,600.424,617.27,598.52,619.598,598.52z"/>
		<path fill-rule="evenodd" clip-rule="evenodd" fill="#F5B168" d="M635.05,598.52L635.05,598.52c2.329,0,4.233,1.904,4.233,4.233
			v70.783c0,2.328-1.904,4.233-4.232,4.233h-0.001c-2.328,0-4.233-1.905-4.233-4.233v-70.783
			C630.816,600.424,632.722,598.52,635.05,598.52z"/>
		<path fill-rule="evenodd" clip-rule="evenodd" fill="#F5B168" d="M650.502,598.52L650.502,598.52c2.328,0,4.233,1.904,4.233,4.233
			v70.783c0,2.328-1.905,4.233-4.233,4.233l0,0c-2.328,0-4.233-1.905-4.233-4.233v-70.783
			C646.269,600.424,648.174,598.52,650.502,598.52z"/>
		<path fill-rule="evenodd" clip-rule="evenodd" fill="#F5B168" d="M665.954,598.52L665.954,598.52c2.329,0,4.233,1.904,4.233,4.233
			v70.783c0,2.328-1.904,4.233-4.233,4.233l0,0c-2.329,0-4.233-1.905-4.233-4.233v-70.783
			C661.721,600.424,663.625,598.52,665.954,598.52z"/>
		<path fill-rule="evenodd" clip-rule="evenodd" fill="#F5B168" d="M681.59,598.52L681.59,598.52c2.328,0,4.232,1.904,4.232,4.233
			v70.783c0,2.328-1.904,4.233-4.232,4.233l0,0c-2.328,0-4.234-1.905-4.234-4.233v-70.783
			C677.355,600.424,679.262,598.52,681.59,598.52z"/>
		<path fill-rule="evenodd" clip-rule="evenodd" fill="#F5B168" d="M697.041,598.52L697.041,598.52c2.329,0,4.234,1.904,4.234,4.233
			v70.783c0,2.328-1.905,4.233-4.234,4.233l0,0c-2.328,0-4.232-1.905-4.232-4.233v-70.783
			C692.809,600.424,694.713,598.52,697.041,598.52z"/>
		<path fill-rule="evenodd" clip-rule="evenodd" fill="#F5B168" d="M712.492,598.52L712.492,598.52c2.329,0,4.234,1.904,4.234,4.233
			v70.783c0,2.328-1.905,4.233-4.233,4.233h-0.001c-2.328,0-4.232-1.905-4.232-4.233v-70.783
			C708.26,600.424,710.164,598.52,712.492,598.52z"/>
		<path fill-rule="evenodd" clip-rule="evenodd" fill="#F5B168" d="M727.945,598.52L727.945,598.52c2.328,0,4.232,1.904,4.232,4.233
			v70.783c0,2.328-1.904,4.233-4.232,4.233l0,0c-2.328,0-4.234-1.905-4.234-4.233v-70.783
			C723.711,600.424,725.617,598.52,727.945,598.52z"/>
		<path fill-rule="evenodd" clip-rule="evenodd" fill="#F5B168" d="M743.396,598.52L743.396,598.52c2.328,0,4.234,1.904,4.234,4.233
			v70.783c0,2.328-1.906,4.233-4.234,4.233l0,0c-2.328,0-4.232-1.905-4.232-4.233v-70.783
			C739.164,600.424,741.068,598.52,743.396,598.52z"/>
		<path fill-rule="evenodd" clip-rule="evenodd" fill="#F5B168" d="M758.849,598.52L758.849,598.52c2.329,0,4.233,1.904,4.233,4.233
			v70.783c0,2.328-1.904,4.233-4.232,4.233h-0.001c-2.329,0-4.233-1.905-4.233-4.233v-70.783
			C754.615,600.424,756.52,598.52,758.849,598.52z"/>
		<path fill-rule="evenodd" clip-rule="evenodd" fill="#F5B168" d="M774.484,598.52L774.484,598.52c2.328,0,4.233,1.904,4.233,4.233
			v70.783c0,2.328-1.905,4.233-4.233,4.233l0,0c-2.328,0-4.233-1.905-4.233-4.233v-70.783
			C770.251,600.424,772.156,598.52,774.484,598.52z"/>
		<path fill-rule="evenodd" clip-rule="evenodd" fill="#F5B168" d="M789.936,598.52L789.936,598.52c2.329,0,4.234,1.904,4.234,4.233
			v70.783c0,2.328-1.905,4.233-4.233,4.233h-0.001c-2.328,0-4.232-1.905-4.232-4.233v-70.783
			C785.703,600.424,787.607,598.52,789.936,598.52z"/>
	</g>
	<path fill-rule="evenodd" clip-rule="evenodd" fill="#5F5254" d="M108.493,651.214c0.178,0.605,0.356,1.208,0.535,1.81
		C108.849,652.422,108.671,651.819,108.493,651.214L108.493,651.214z M109.471,654.507L109.471,654.507
		c0.172,0.574,0.345,1.146,0.519,1.717C109.816,655.653,109.644,655.081,109.471,654.507L109.471,654.507z M110.411,657.602
		L110.411,657.602c0.218,0.709,0.436,1.414,0.656,2.118C110.848,659.016,110.629,658.31,110.411,657.602L110.411,657.602z
		 M111.377,660.709L111.377,660.709c0.229,0.726,0.457,1.448,0.688,2.168C111.834,662.157,111.605,661.435,111.377,660.709
		L111.377,660.709z M112.397,663.911L112.397,663.911c0.282,0.875,0.566,1.744,0.852,2.609
		C112.963,665.655,112.68,664.785,112.397,663.911L112.397,663.911z M113.294,666.655L113.294,666.655
		c2.073,6.269,4.249,12.303,6.575,18.075C117.542,678.957,115.368,672.924,113.294,666.655L113.294,666.655z M119.999,685.053
		L119.999,685.053c17.814,44.028,44.567,72.703,103.257,72.703h630.445c93.604,0,146.859-77.061,143.631-72.703H119.999z"/>
	<path fill-rule="evenodd" clip-rule="evenodd" fill="#C6474F" d="M101.085,624.375c5.856,22.183,11.642,42.706,18.913,60.678
		h877.333c13.32-17.972,23.368-38.495,29.225-60.678H804.775v18.64c0,10.472-8.568,19.039-19.039,19.039H256.398
		c-10.471,0-19.039-8.568-19.039-19.039v-18.64H101.085z"/>
	<path fill-rule="evenodd" clip-rule="evenodd" fill="#E16049" d="M101.085,624.375c5.856,22.183,11.642,42.706,18.914,60.678
		h748.071c13.32-17.972,23.368-38.495,29.225-60.678h-92.519v18.64c0,10.472-8.568,19.039-19.039,19.039H239.898
		c-10.47,0-19.039-8.568-19.039-19.039v-18.64H101.085z"/>
	<path fill-rule="evenodd" clip-rule="evenodd" fill="#6C5F5E" d="M108.493,651.214c0.178,0.605,0.356,1.208,0.535,1.81
		C108.849,652.422,108.671,651.819,108.493,651.214L108.493,651.214z M109.471,654.507L109.471,654.507
		c0.172,0.574,0.345,1.146,0.519,1.717C109.816,655.653,109.644,655.081,109.471,654.507L109.471,654.507z M110.411,657.602
		L110.411,657.602c0.218,0.709,0.436,1.414,0.656,2.118C110.848,659.016,110.629,658.31,110.411,657.602L110.411,657.602z
		 M111.377,660.709L111.377,660.709c0.229,0.726,0.457,1.448,0.688,2.168C111.834,662.157,111.605,661.435,111.377,660.709
		L111.377,660.709z M112.397,663.911L112.397,663.911c0.282,0.875,0.566,1.744,0.852,2.609
		C112.963,665.655,112.68,664.785,112.397,663.911L112.397,663.911z M113.294,666.655L113.294,666.655
		c2.073,6.269,4.249,12.303,6.575,18.075C117.542,678.957,115.368,672.924,113.294,666.655L113.294,666.655z M119.999,685.053
		L119.999,685.053c17.814,44.028,44.567,72.703,103.257,72.703h493.539c93.604,0,146.859-77.061,143.631-72.703H119.999z"/>
	<path fill-rule="evenodd" clip-rule="evenodd" fill="#CACFD7" d="M287.532,581.096h72.9c5.775,0,10.5,4.725,10.5,10.5l0,0
		c0,5.775-4.725,10.5-10.5,10.5h-72.9c-5.775,0-10.5-4.725-10.5-10.5l0,0C277.032,585.82,281.756,581.096,287.532,581.096z"/>
	<path fill-rule="evenodd" clip-rule="evenodd" fill="#303B47" d="M287.532,581.096h67.05c5.775,0,10.5,4.725,10.5,10.5l0,0
		c0,5.774-4.725,10.5-10.5,10.5h-67.05c-5.775,0-10.5-4.725-10.5-10.5l0,0C277.032,585.82,281.756,581.096,287.532,581.096z"/>
	<path fill-rule="evenodd" clip-rule="evenodd" fill="#CACFD7" d="M287.532,617.396h72.9c5.775,0,10.5,4.726,10.5,10.5l0,0
		c0,5.775-4.725,10.5-10.5,10.5h-72.9c-5.775,0-10.5-4.725-10.5-10.5l0,0C277.032,622.121,281.756,617.396,287.532,617.396z"/>
	<path fill-rule="evenodd" clip-rule="evenodd" fill="#303B47" d="M287.532,617.396h67.05c5.775,0,10.5,4.726,10.5,10.5l0,0
		c0,5.775-4.725,10.5-10.5,10.5h-67.05c-5.775,0-10.5-4.725-10.5-10.5l0,0C277.032,622.121,281.756,617.396,287.532,617.396z"/>
	<path fill-rule="evenodd" clip-rule="evenodd" fill="#CACFD7" d="M206.265,581.096H194.34c-5.774,0-10.5,4.726-10.5,10.5l0,0
		c0,5.774,4.725,10.5,10.5,10.5h11.925c5.775,0,10.5-4.725,10.5-10.5l0,0C216.765,585.82,212.039,581.096,206.265,581.096z"/>
	<path fill-rule="evenodd" clip-rule="evenodd" fill="#303B47" d="M206.265,581.096h-6.076c-5.774,0-10.5,4.726-10.5,10.5l0,0
		c0,5.774,4.725,10.5,10.5,10.5h6.076c5.775,0,10.5-4.725,10.5-10.5l0,0C216.765,585.82,212.039,581.096,206.265,581.096z"/>
	<path fill-rule="evenodd" clip-rule="evenodd" fill="#CACFD7" d="M247.965,581.096H236.04c-5.774,0-10.5,4.726-10.5,10.5l0,0
		c0,5.774,4.725,10.5,10.5,10.5h11.925c5.775,0,10.5-4.725,10.5-10.5l0,0C258.465,585.82,253.739,581.096,247.965,581.096z"/>
	<path fill-rule="evenodd" clip-rule="evenodd" fill="#303B47" d="M247.965,581.096h-6.075c-5.774,0-10.5,4.726-10.5,10.5l0,0
		c0,5.774,4.725,10.5,10.5,10.5h6.075c5.775,0,10.5-4.725,10.5-10.5l0,0C258.465,585.82,253.739,581.096,247.965,581.096z"/>
	<path fill-rule="evenodd" clip-rule="evenodd" fill="#FFFFFF" d="M304.033,569.697v-92.204c0-2.833-2.318-5.151-5.15-5.151h0
		c-2.833,0-5.15,2.318-5.15,5.151v92.204H304.033z"/>
	<rect x="293.731" y="561.259" fill-rule="evenodd" clip-rule="evenodd" fill="#CACFD7" width="10.301" height="8.438"/>
	<path fill-rule="evenodd" clip-rule="evenodd" fill="#FFFFFF" d="M202.333,569.697v-92.204c0-2.833-2.318-5.151-5.151-5.151l0,0
		c-2.833,0-5.151,2.318-5.151,5.151v92.204H202.333z"/>
	<rect x="192.031" y="561.259" fill-rule="evenodd" clip-rule="evenodd" fill="#E6E7E8" width="10.302" height="8.438"/>
	<g>
		<path fill-rule="evenodd" clip-rule="evenodd" fill="#B5D77E" d="M512.479,591.577h185.962c2.141,0,3.894-1.752,3.894-3.894
			v-85.688c0-2.142-1.753-3.894-3.894-3.894H512.479c-2.141,0-3.894,1.754-3.894,3.894v85.688
			C508.585,589.824,510.337,591.577,512.479,591.577z"/>
		<path fill-rule="evenodd" clip-rule="evenodd" fill="#53C0A5" d="M520.269,505.045L520.269,505.045
			c2.329,0,4.234,1.904,4.234,4.233v70.783c0,2.328-1.905,4.233-4.233,4.233h0c-2.328,0-4.233-1.905-4.233-4.233v-70.783
			C516.036,506.949,517.941,505.045,520.269,505.045z"/>
		<path fill-rule="evenodd" clip-rule="evenodd" fill="#53C0A5" d="M535.721,505.045L535.721,505.045
			c2.329,0,4.234,1.904,4.234,4.233v70.783c0,2.328-1.905,4.233-4.234,4.233l0,0c-2.328,0-4.232-1.905-4.232-4.233v-70.783
			C531.488,506.949,533.393,505.045,535.721,505.045z"/>
		<path fill-rule="evenodd" clip-rule="evenodd" fill="#53C0A5" d="M551.174,505.045L551.174,505.045
			c2.328,0,4.232,1.904,4.232,4.233v70.783c0,2.328-1.904,4.233-4.232,4.233l0,0c-2.329,0-4.234-1.905-4.234-4.233v-70.783
			C546.939,506.949,548.845,505.045,551.174,505.045z"/>
		<path fill-rule="evenodd" clip-rule="evenodd" fill="#53C0A5" d="M566.625,505.045L566.625,505.045
			c2.328,0,4.233,1.904,4.233,4.233v70.783c0,2.328-1.905,4.233-4.233,4.233l0,0c-2.328,0-4.233-1.905-4.233-4.233v-70.783
			C562.392,506.949,564.297,505.045,566.625,505.045z"/>
		<path fill-rule="evenodd" clip-rule="evenodd" fill="#53C0A5" d="M582.26,505.045L582.26,505.045c2.33,0,4.234,1.904,4.234,4.233
			v70.783c0,2.328-1.904,4.233-4.233,4.233h-0.001c-2.328,0-4.232-1.905-4.232-4.233v-70.783
			C578.027,506.949,579.932,505.045,582.26,505.045z"/>
		<path fill-rule="evenodd" clip-rule="evenodd" fill="#53C0A5" d="M597.713,505.045L597.713,505.045
			c2.328,0,4.232,1.904,4.232,4.233v70.783c0,2.328-1.904,4.233-4.232,4.233l0,0c-2.328,0-4.234-1.905-4.234-4.233v-70.783
			C593.479,506.949,595.385,505.045,597.713,505.045z"/>
		<path fill-rule="evenodd" clip-rule="evenodd" fill="#53C0A5" d="M613.164,505.045L613.164,505.045
			c2.329,0,4.234,1.904,4.234,4.233v70.783c0,2.328-1.905,4.233-4.234,4.233l0,0c-2.328,0-4.232-1.905-4.232-4.233v-70.783
			C608.932,506.949,610.836,505.045,613.164,505.045z"/>
		<path fill-rule="evenodd" clip-rule="evenodd" fill="#53C0A5" d="M628.616,505.045L628.616,505.045
			c2.329,0,4.233,1.904,4.233,4.233v70.783c0,2.328-1.904,4.233-4.232,4.233h-0.001c-2.328,0-4.233-1.905-4.233-4.233v-70.783
			C624.383,506.949,626.288,505.045,628.616,505.045z"/>
		<path fill-rule="evenodd" clip-rule="evenodd" fill="#53C0A5" d="M644.068,505.045L644.068,505.045
			c2.328,0,4.233,1.904,4.233,4.233v70.783c0,2.328-1.905,4.233-4.233,4.233l0,0c-2.328,0-4.233-1.905-4.233-4.233v-70.783
			C639.835,506.949,641.74,505.045,644.068,505.045z"/>
		<path fill-rule="evenodd" clip-rule="evenodd" fill="#53C0A5" d="M659.52,505.045L659.52,505.045c2.329,0,4.234,1.904,4.234,4.233
			v70.783c0,2.328-1.905,4.233-4.233,4.233h-0.001c-2.328,0-4.232-1.905-4.232-4.233v-70.783
			C655.287,506.949,657.191,505.045,659.52,505.045z"/>
		<path fill-rule="evenodd" clip-rule="evenodd" fill="#53C0A5" d="M675.155,505.045L675.155,505.045
			c2.329,0,4.233,1.904,4.233,4.233v70.783c0,2.328-1.904,4.233-4.232,4.233h-0.001c-2.328,0-4.233-1.905-4.233-4.233v-70.783
			C670.922,506.949,672.827,505.045,675.155,505.045z"/>
		<path fill-rule="evenodd" clip-rule="evenodd" fill="#53C0A5" d="M690.607,505.045L690.607,505.045
			c2.329,0,4.234,1.904,4.234,4.233v70.783c0,2.328-1.905,4.233-4.234,4.233l0,0c-2.328,0-4.232-1.905-4.232-4.233v-70.783
			C686.375,506.949,688.279,505.045,690.607,505.045z"/>
	</g>
	<g>
		<path fill-rule="evenodd" clip-rule="evenodd" fill="#FDDD08" d="M411.258,591.52h93.443c2.136,0,3.884-1.747,3.884-3.884V502.15
			c0-2.137-1.749-3.885-3.884-3.885h-93.443c-2.135,0-3.884,1.749-3.884,3.885v85.485
			C407.374,589.771,409.122,591.52,411.258,591.52z"/>
		<path fill-rule="evenodd" clip-rule="evenodd" fill="#F5B168" d="M500.632,509.267L500.632,509.267
			c0,2.132-1.744,3.877-3.876,3.877h-31.762c-2.132,0-3.876-1.744-3.876-3.876v-0.001c0-2.132,1.745-3.876,3.876-3.876h31.762
			C498.888,505.391,500.632,507.135,500.632,509.267z"/>
		<path fill-rule="evenodd" clip-rule="evenodd" fill="#F5B168" d="M500.632,523.415L500.632,523.415
			c0,2.132-1.744,3.877-3.876,3.877h-31.762c-2.132,0-3.876-1.744-3.876-3.876v-0.001c0-2.132,1.745-3.876,3.876-3.876h31.762
			C498.888,519.539,500.632,521.283,500.632,523.415z"/>
		<path fill-rule="evenodd" clip-rule="evenodd" fill="#F5B168" d="M500.632,537.564c0,2.132-1.744,3.876-3.876,3.876h-31.762
			c-2.132,0-3.876-1.744-3.876-3.876c0-2.133,1.745-3.877,3.876-3.877h31.762C498.888,533.688,500.632,535.433,500.632,537.564z"/>
		<path fill-rule="evenodd" clip-rule="evenodd" fill="#F5B168" d="M500.632,551.713L500.632,551.713
			c0,2.132-1.744,3.877-3.876,3.877h-31.762c-2.132,0-3.876-1.745-3.876-3.877l0,0c0-2.133,1.745-3.877,3.876-3.877h31.762
			C498.888,547.836,500.632,549.581,500.632,551.713z"/>
		<path fill-rule="evenodd" clip-rule="evenodd" fill="#F5B168" d="M500.632,566.029L500.632,566.029
			c0,2.133-1.744,3.877-3.876,3.877h-31.762c-2.132,0-3.876-1.744-3.876-3.876v-0.001c0-2.132,1.745-3.876,3.876-3.876h31.762
			C498.888,562.153,500.632,563.897,500.632,566.029z"/>
		<path fill-rule="evenodd" clip-rule="evenodd" fill="#F5B168" d="M500.632,580.179L500.632,580.179
			c0,2.132-1.744,3.876-3.876,3.876h-31.762c-2.132,0-3.876-1.744-3.876-3.876l0,0c0-2.132,1.745-3.877,3.876-3.877h31.762
			C498.888,576.302,500.632,578.047,500.632,580.179z"/>
		<path fill-rule="evenodd" clip-rule="evenodd" fill="#F5B168" d="M415.43,509.267L415.43,509.267c0,2.132,1.745,3.877,3.876,3.877
			h31.762c2.131,0,3.876-1.744,3.876-3.876v-0.001c0-2.132-1.744-3.876-3.876-3.876h-31.762
			C417.174,505.391,415.43,507.135,415.43,509.267z"/>
		<path fill-rule="evenodd" clip-rule="evenodd" fill="#F5B168" d="M415.43,523.415L415.43,523.415c0,2.132,1.745,3.877,3.876,3.877
			h31.762c2.131,0,3.876-1.744,3.876-3.876v-0.001c0-2.132-1.744-3.876-3.876-3.876h-31.762
			C417.174,519.539,415.43,521.283,415.43,523.415z"/>
		<path fill-rule="evenodd" clip-rule="evenodd" fill="#F5B168" d="M415.43,537.564c0,2.132,1.745,3.876,3.876,3.876h31.762
			c2.131,0,3.876-1.744,3.876-3.876c0-2.133-1.744-3.877-3.876-3.877h-31.762C417.174,533.688,415.43,535.433,415.43,537.564z"/>
		<path fill-rule="evenodd" clip-rule="evenodd" fill="#F5B168" d="M415.43,551.713L415.43,551.713c0,2.132,1.745,3.877,3.876,3.877
			h31.762c2.131,0,3.876-1.745,3.876-3.877l0,0c0-2.133-1.744-3.877-3.876-3.877h-31.762
			C417.174,547.836,415.43,549.581,415.43,551.713z"/>
		<path fill-rule="evenodd" clip-rule="evenodd" fill="#F5B168" d="M415.43,566.029L415.43,566.029c0,2.133,1.745,3.877,3.876,3.877
			h31.762c2.131,0,3.876-1.744,3.876-3.876v-0.001c0-2.132-1.744-3.876-3.876-3.876h-31.762
			C417.174,562.153,415.43,563.897,415.43,566.029z"/>
		<path fill-rule="evenodd" clip-rule="evenodd" fill="#F5B168" d="M415.43,580.179L415.43,580.179c0,2.132,1.745,3.876,3.876,3.876
			h31.762c2.131,0,3.876-1.744,3.876-3.876l0,0c0-2.132-1.744-3.877-3.876-3.877h-31.762
			C417.174,576.302,415.43,578.047,415.43,580.179z"/>
		<path fill-rule="evenodd" clip-rule="evenodd" fill="#E6E7E8" d="M467.886,496.938c0.73,0,1.328,0.598,1.328,1.328v93.254
			c0,0.73-0.598,1.329-1.328,1.329c-0.73,0-1.329-0.599-1.329-1.329v-93.254C466.557,497.535,467.155,496.938,467.886,496.938z"/>
		<path fill-rule="evenodd" clip-rule="evenodd" fill="#E6E7E8" d="M448.275,496.938L448.275,496.938
			c0.731,0,1.329,0.598,1.329,1.328v93.254c0,0.73-0.598,1.329-1.328,1.329h0c-0.73,0-1.328-0.599-1.328-1.329v-93.254
			C446.947,497.535,447.544,496.938,448.275,496.938z"/>
		<path fill-rule="evenodd" clip-rule="evenodd" fill="#E6E7E8" d="M487.496,496.938L487.496,496.938
			c0.73,0,1.329,0.598,1.329,1.328v93.254c0,0.73-0.599,1.329-1.329,1.329l0,0c-0.73,0-1.329-0.599-1.329-1.329v-93.254
			C486.167,497.535,486.765,496.938,487.496,496.938z"/>
		<path fill-rule="evenodd" clip-rule="evenodd" fill="#E6E7E8" d="M428.665,496.938L428.665,496.938
			c0.731,0,1.329,0.598,1.329,1.328v93.254c0,0.73-0.599,1.329-1.328,1.329h0c-0.73,0-1.328-0.599-1.328-1.329v-93.254
			C427.336,497.535,427.934,496.938,428.665,496.938z"/>
	</g>
	<path opacity="0.2" fill-rule="evenodd" clip-rule="evenodd" fill="#303B47" d="M410.923,591.577h93.424
		c2.141,0,3.894-1.752,3.894-3.894v-7.505H407.029v7.505C407.029,589.824,408.781,591.577,410.923,591.577z"/>
	<path opacity="0.2" fill-rule="evenodd" clip-rule="evenodd" fill="#303B47" d="M670.303,591.577h27.794h65.63
		c2.141,0,3.893-1.752,3.893-3.894v-7.505H701.99h-35.581H508.24v7.505c0,2.141,1.752,3.894,3.894,3.894H670.303z"/>
	<g>
		<path fill-rule="evenodd" clip-rule="evenodd" fill="#5F5254" d="M312.703,694.799h-11.926c-5.774,0-10.5,4.726-10.5,10.5l0,0
			c0,5.774,4.725,10.5,10.5,10.5h11.926c5.775,0,10.5-4.726,10.5-10.5l0,0C323.203,699.523,318.477,694.799,312.703,694.799z"/>
		<path fill-rule="evenodd" clip-rule="evenodd" fill="#FDDD08" d="M312.703,694.799h-6.076c-5.774,0-10.5,4.726-10.5,10.5l0,0
			c0,5.774,4.725,10.5,10.5,10.5h6.076c5.774,0,10.5-4.726,10.5-10.5l0,0C323.203,699.523,318.477,694.799,312.703,694.799z"/>
	</g>
	<g>
		<path fill-rule="evenodd" clip-rule="evenodd" fill="#5F5254" d="M368.465,694.799H356.54c-5.774,0-10.5,4.726-10.5,10.5l0,0
			c0,5.774,4.725,10.5,10.5,10.5h11.925c5.775,0,10.5-4.726,10.5-10.5l0,0C378.965,699.523,374.239,694.799,368.465,694.799z"/>
		<path fill-rule="evenodd" clip-rule="evenodd" fill="#FDDD08" d="M368.465,694.799h-6.075c-5.774,0-10.5,4.726-10.5,10.5l0,0
			c0,5.774,4.725,10.5,10.5,10.5h6.075c5.775,0,10.5-4.726,10.5-10.5l0,0C378.965,699.523,374.239,694.799,368.465,694.799z"/>
	</g>
	<g>
		<path fill-rule="evenodd" clip-rule="evenodd" fill="#5F5254" d="M424.375,694.799H412.45c-5.774,0-10.5,4.726-10.5,10.5l0,0
			c0,5.774,4.725,10.5,10.5,10.5h11.925c5.775,0,10.5-4.726,10.5-10.5l0,0C434.875,699.523,430.149,694.799,424.375,694.799z"/>
		<path fill-rule="evenodd" clip-rule="evenodd" fill="#FDDD08" d="M424.375,694.799H418.3c-5.774,0-10.5,4.726-10.5,10.5l0,0
			c0,5.774,4.725,10.5,10.5,10.5h6.075c5.775,0,10.5-4.726,10.5-10.5l0,0C434.875,699.523,430.149,694.799,424.375,694.799z"/>
	</g>
	<g>
		<path fill-rule="evenodd" clip-rule="evenodd" fill="#5F5254" d="M480.138,694.799h-11.925c-5.774,0-10.5,4.726-10.5,10.5l0,0
			c0,5.774,4.725,10.5,10.5,10.5h11.925c5.775,0,10.5-4.726,10.5-10.5l0,0C490.638,699.523,485.912,694.799,480.138,694.799z"/>
		<path fill-rule="evenodd" clip-rule="evenodd" fill="#FDDD08" d="M480.138,694.799h-6.076c-5.774,0-10.5,4.726-10.5,10.5l0,0
			c0,5.774,4.725,10.5,10.5,10.5h6.076c5.775,0,10.5-4.726,10.5-10.5l0,0C490.638,699.523,485.912,694.799,480.138,694.799z"/>
	</g>
	<g>
		<path fill-rule="evenodd" clip-rule="evenodd" fill="#5F5254" d="M536.149,694.799h-11.925c-5.775,0-10.5,4.726-10.5,10.5l0,0
			c0,5.774,4.725,10.5,10.5,10.5h11.925c5.774,0,10.5-4.726,10.5-10.5l0,0C546.649,699.523,541.924,694.799,536.149,694.799z"/>
		<path fill-rule="evenodd" clip-rule="evenodd" fill="#FDDD08" d="M536.149,694.799h-6.075c-5.775,0-10.5,4.726-10.5,10.5l0,0
			c0,5.774,4.725,10.5,10.5,10.5h6.075c5.774,0,10.5-4.726,10.5-10.5l0,0C546.649,699.523,541.924,694.799,536.149,694.799z"/>
	</g>
	<g>
		<path fill-rule="evenodd" clip-rule="evenodd" fill="#5F5254" d="M591.912,694.799h-11.926c-5.773,0-10.5,4.726-10.5,10.5l0,0
			c0,5.774,4.726,10.5,10.5,10.5h11.926c5.775,0,10.5-4.726,10.5-10.5l0,0C602.412,699.523,597.686,694.799,591.912,694.799z"/>
		<path fill-rule="evenodd" clip-rule="evenodd" fill="#FDDD08" d="M591.912,694.799h-6.076c-5.773,0-10.499,4.726-10.499,10.5l0,0
			c0,5.774,4.726,10.5,10.499,10.5h6.076c5.775,0,10.5-4.726,10.5-10.5l0,0C602.412,699.523,597.686,694.799,591.912,694.799z"/>
	</g>
	<g>
		<path fill-rule="evenodd" clip-rule="evenodd" fill="#5F5254" d="M648.018,694.799h-11.925c-5.774,0-10.5,4.726-10.5,10.5l0,0
			c0,5.774,4.726,10.5,10.5,10.5h11.925c5.775,0,10.5-4.726,10.5-10.5l0,0C658.518,699.523,653.792,694.799,648.018,694.799z"/>
		<path fill-rule="evenodd" clip-rule="evenodd" fill="#FDDD08" d="M648.018,694.799h-6.074c-5.775,0-10.5,4.726-10.5,10.5l0,0
			c0,5.774,4.725,10.5,10.5,10.5h6.074c5.775,0,10.5-4.726,10.5-10.5l0,0C658.518,699.523,653.792,694.799,648.018,694.799z"/>
	</g>
	<g>
		<path fill-rule="evenodd" clip-rule="evenodd" fill="#5F5254" d="M703.78,694.799h-11.925c-5.774,0-10.5,4.726-10.5,10.5l0,0
			c0,5.774,4.725,10.5,10.5,10.5h11.925c5.775,0,10.5-4.726,10.5-10.5l0,0C714.28,699.523,709.555,694.799,703.78,694.799z"/>
		<path fill-rule="evenodd" clip-rule="evenodd" fill="#FDDD08" d="M703.78,694.799h-6.075c-5.774,0-10.5,4.726-10.5,10.5l0,0
			c0,5.774,4.726,10.5,10.5,10.5h6.075c5.774,0,10.5-4.726,10.5-10.5l0,0C714.28,699.523,709.555,694.799,703.78,694.799z"/>
	</g>
	<g>
		<path fill-rule="evenodd" clip-rule="evenodd" fill="#5F5254" d="M256.94,694.799h-11.925c-5.774,0-10.5,4.726-10.5,10.5l0,0
			c0,5.774,4.725,10.5,10.5,10.5h11.925c5.775,0,10.5-4.726,10.5-10.5l0,0C267.44,699.523,262.714,694.799,256.94,694.799z"/>
		<path fill-rule="evenodd" clip-rule="evenodd" fill="#FDDD08" d="M256.94,694.799h-6.076c-5.774,0-10.5,4.726-10.5,10.5l0,0
			c0,5.774,4.725,10.5,10.5,10.5h6.076c5.774,0,10.5-4.726,10.5-10.5l0,0C267.44,699.523,262.714,694.799,256.94,694.799z"/>
	</g>
	<path fill-rule="evenodd" clip-rule="evenodd" fill="#303B47" d="M168.892,661.646c2.974,0,5.4-2.426,5.4-5.4
		c0-2.974-2.426-5.399-5.4-5.399s-5.4,2.426-5.4,5.399C163.492,659.221,165.918,661.646,168.892,661.646z"/>
	<path fill-rule="evenodd" clip-rule="evenodd" fill="#303B47" d="M204.591,661.646c2.974,0,5.4-2.426,5.4-5.4
		c0-2.974-2.426-5.399-5.4-5.399s-5.4,2.426-5.4,5.399C199.191,659.221,201.617,661.646,204.591,661.646z"/>
	<path fill-rule="evenodd" clip-rule="evenodd" fill="#303B47" d="M135.741,661.646c2.974,0,5.4-2.426,5.4-5.4
		c0-2.974-2.426-5.399-5.4-5.399s-5.4,2.426-5.4,5.399C130.341,659.221,132.767,661.646,135.741,661.646z"/>
	<path fill-rule="evenodd" clip-rule="evenodd" fill="#E6E7E8" d="M103.785,629.966H234.66c3.075,0,5.59-2.516,5.59-5.591l0,0
		c0-3.074-2.515-5.59-5.59-5.59H103.785c-3.074,0-5.59,2.516-5.59,5.59l0,0C98.195,627.45,100.71,629.966,103.785,629.966z"/>
	<path fill-rule="evenodd" clip-rule="evenodd" fill="#E6E7E8" d="M895.719,629.966h127.971c3.074,0,5.59-2.516,5.59-5.591l0,0
		c0-3.074-2.516-5.59-5.59-5.59H895.719c-3.074,0-5.59,2.516-5.59,5.59l0,0C890.129,627.449,892.645,629.966,895.719,629.966z"/>
	<path fill-rule="evenodd" clip-rule="evenodd" fill="#FFFFFF" d="M805.719,629.966h90c3.074,0,5.59-2.516,5.59-5.591l0,0
		c0-3.074-2.516-5.59-5.59-5.59h-90c-3.074,0-5.59,2.517-5.59,5.59l0,0C800.129,627.449,802.645,629.966,805.719,629.966z"/>
	<path fill-rule="evenodd" clip-rule="evenodd" fill="#FFFFFF" d="M103.785,629.966h117.075c3.075,0,5.59-2.516,5.59-5.591l0,0
		c0-3.074-2.516-5.59-5.59-5.59H103.785c-3.074,0-5.59,2.516-5.59,5.59l0,0C98.195,627.449,100.71,629.966,103.785,629.966z"/>
	<rect x="380.703" y="654.593" fill-rule="evenodd" clip-rule="evenodd" fill="#C6474F" width="20.813" height="7.461"/>
	<path opacity="0.2" fill-rule="evenodd" clip-rule="evenodd" fill="#303B47" d="M785.736,662.054H401.515v-9.866h400.887
		C799.148,658.057,792.887,662.054,785.736,662.054z"/>
	<path opacity="0.2" fill-rule="evenodd" clip-rule="evenodd" fill="#303B47" d="M256.398,662.054h124.305v-9.866H239.732
		C242.986,658.057,249.248,662.054,256.398,662.054z"/>
</g>
<path fill-rule="evenodd" clip-rule="evenodd" fill="#63CAE1" d="M329.512,742.146c39.596,19.164,85.61,19.164,125.207,0
	c39.597-19.163,85.611-19.163,125.208,0c39.597,19.164,85.61,19.164,125.207,0c39.596-19.163,85.61-19.163,125.207,0
	c39.597,19.164,85.61,19.164,125.207,0c39.597-19.163,85.61-19.163,125.207,0h-4.115c16.489,0,29.979,13.491,29.979,29.979l0,0
	c0,16.489-13.49,29.979-29.979,29.979H209.006c-16.489,0-29.979-13.49-29.979-29.979l0,0c0-30.726,38.002-29.979,25.277-29.979
	C243.9,722.983,289.915,722.983,329.512,742.146z"/>
<path fill-rule="evenodd" clip-rule="evenodd" fill="#54A7BA" d="M335.523,779.297h70.231c6.487,0,11.795,5.308,11.795,11.795
	s-5.308,11.795-11.795,11.795h-70.231c-6.487,0-11.794-5.308-11.794-11.795S329.037,779.297,335.523,779.297z"/>
<path fill-rule="evenodd" clip-rule="evenodd" fill="#54A7BA" d="M451.623,779.297h9.632c6.487,0,11.794,5.308,11.794,11.795
	s-5.308,11.795-11.794,11.795h-9.632c-6.487,0-11.794-5.308-11.794-11.795S445.136,779.297,451.623,779.297z"/>
<path fill-rule="evenodd" clip-rule="evenodd" fill="#FFFFFF" d="M1143.102,152.388H951.18c-8.663,0-15.751,7.088-15.751,15.751v0
	c0,8.663,7.087,15.751,15.751,15.751h50.834c5.699,0,10.362,4.663,10.362,10.363c0,5.7-4.663,10.363-10.362,10.363h-11.455
	c-8.663,0-15.752,7.088-15.752,15.751v0c0,8.663,7.088,15.751,15.752,15.751h109.019c8.663,0,15.751-7.088,15.751-15.751v0
	c0-8.663-7.088-15.751-15.751-15.751h-24.872c-5.699,0-10.362-4.663-10.362-10.363c0-5.7,4.663-10.363,10.362-10.363h68.396
	c8.663,0,15.751-7.088,15.751-15.751v0C1158.853,159.476,1151.765,152.388,1143.102,152.388z"/>
<path fill-rule="evenodd" clip-rule="evenodd" fill="#FFFFFF" d="M1150.265,238.043c9.019,0,16.374-7.355,16.374-16.374
	s-7.355-16.374-16.374-16.374c-9.018,0-16.373,7.355-16.373,16.374S1141.247,238.043,1150.265,238.043z"/>
</svg>
