<?xml version="1.0" encoding="utf-8"?>
<!-- Generator: Adobe Illustrator 22.1.0, SVG Export Plug-In . SVG Version: 6.00 Build 0)  -->
<svg version="1.1" xmlns="http://www.w3.org/2000/svg" xmlns:xlink="http://www.w3.org/1999/xlink" x="0px" y="0px" width="2000px"
	 height="2000px" viewBox="0 0 2000 2000" style="enable-background:new 0 0 2000 2000;" xml:space="preserve">
<style type="text/css">
	.st0{fill:#FFF2EE;}
	.st1{fill:#DADAEE;}
	.st2{fill:#BFC8EE;}
	.st3{fill:#ACBBEE;}
	.st4{fill:url(#SVGID_1_);}
	.st5{fill:#EAA48C;}
	.st6{fill:#F1F2F2;}
	.st7{fill:#A1B9FF;}
	.st8{fill:#E6E7E8;}
	.st9{fill:#ED8383;}
	.st10{fill:#7798ED;}
	.st11{fill:url(#SVGID_2_);}
	.st12{fill:url(#SVGID_3_);}
	.st13{fill:url(#SVGID_4_);}
	.st14{fill:url(#SVGID_5_);}
	.st15{fill:url(#SVGID_6_);}
	.st16{fill:url(#SVGID_7_);}
	.st17{fill:url(#SVGID_8_);}
	.st18{fill:url(#SVGID_9_);}
	.st19{fill:url(#SVGID_10_);}
	.st20{fill:#F5C1AC;}
	.st21{fill:url(#SVGID_11_);}
	.st22{fill:url(#SVGID_12_);}
	.st23{fill:#FFFFFF;}
	.st24{fill:url(#SVGID_13_);}
	.st25{fill:url(#SVGID_14_);}
	.st26{fill:url(#SVGID_15_);}
	.st27{fill:url(#SVGID_16_);}
	.st28{fill:#1F2D4C;}
	.st29{fill:url(#SVGID_17_);}
	.st30{fill:url(#SVGID_18_);}
	.st31{fill:url(#SVGID_19_);}
	.st32{fill:url(#SVGID_20_);}
	.st33{fill:url(#SVGID_21_);}
	.st34{fill:url(#SVGID_22_);}
	.st35{fill:#D1D3D4;}
	.st36{fill:#BCBEC0;}
	.st37{fill:url(#SVGID_23_);}
	.st38{fill:#557DC4;}
	.st39{fill:url(#SVGID_24_);}
	.st40{fill:#F9A7A7;}
	.st41{fill:url(#SVGID_25_);}
</style>
<g id="Layer_2">
</g>
<g id="Layer_1">
	<g>
		<rect class="st0" width="2000" height="2000"/>
		<g>
			<g>
				<path class="st1" d="M1733.4,1427.1c-11.5,12.4-23.4,24.5-35.4,36.1c4.9,33.5,6.6,67-3.6,99.9c-9.1,29.7-25.5,56.5-47.4,78.5
					c-38.1,38-88.4,59.3-138.1,77.3c-47.5,17.2-96.5,30.6-146.1,40.3c-74.9,14.6-151.1,21.8-227.4,21.8c-30.3,0-60.7-1.1-90.9-3.4
					c-23.5-1.8-46.9-4.1-70.3-7c-11.2-1-22.4-2.2-33.6-3.7c66.6,17.9,133.8,33,202.7,41.7c36.9,4.7,74.3,7.3,111.8,7.3
					c63.4,0,126.8-7.6,187.3-25.8c98.6-29.6,191.9-87.9,247.6-176.2c29.4-46.6,44.2-100.5,44.4-155.5
					C1734.6,1447.9,1734.2,1437.5,1733.4,1427.1 M165.2,643c-14,15.4-26.3,32.5-35.9,52.1c-47.4,96.8-25.7,204.6,7.3,302.1
					c17.5,51.7,36.8,103.3,45.3,157.4c6.6,60.4-2.4,120.7-7,180.9c-4.3,55.3-3.5,112.7,12.9,166.2c17.8,58.2,53.6,108.4,106.2,140
					c46,27.7,101.5,40.3,155,40.3c2.4,0,4.8,0,7.2-0.1c16.1-0.3,32.1-1.7,47.9-3.8c18.9-2.6,37.8-3.8,56.8-3.8
					c17.1,0,34.2,1,51.2,3.1c-11.5-4.7-23-9.7-34.3-14.8c-9.8-4.5-19.4-9.4-28.7-14.7c-40.7-11.7-80.3-27.2-116.1-49.7
					c-11.8-7.4-23.2-15.5-34-24.1c-32.3-6-63.8-15.6-92.8-31.9c-28.7-16.2-52.9-39.3-70.9-66.8c-18.6-28.6-26.8-61.1-31-94.4
					c-7.2-57.1,7-115.8,27.1-168.9c20-52.7,44.9-104.3,54.2-160.2c1.9-19,1.7-38-0.3-56.9c-7.2-43.9-22.6-85.9-39.6-126.9
					c-19.3-45.4-39.7-90.3-56-136.9C179.5,702.1,171.2,672.8,165.2,643 M1706,448.5c5,14.1,9.4,28.4,13.2,42.9
					c4.4,16.8,8.1,33.8,11.2,50.9c27.1,9.4,52.7,25.5,72,46.4c23.3,25.3,39,55,49.9,87.4c9.5,28.2,13.8,58.5,15.6,88.1
					c1.9,30.8-1.3,61.8-6.7,92.1c-5.4,30.1-15.6,58.3-27.7,86.3c-1.6,3.6-3.2,7.1-4.9,10.6c9.7,25,18.7,50.2,25.7,76
					c34.2-68.3,48.8-145.6,42.1-221.9c-7.3-82.4-34.4-161.6-79.6-231C1785.8,528.4,1748.2,486.2,1706,448.5 M837.8,198.5
					c-24.8,0-49.5,0.5-74.1,1.5c-63.7,2.7-130.8,11.9-188.2,41.2c70.2,18.7,118.2,40.1,156.9,40.9c11.3,0.2,21.7,0.3,31.3,0.3
					c65,0,96.7-5.2,172.7-15c56.3-7.9,113.9-33.9,171.4-54.4c-38.9-4.4-77.9-7.5-116.9-9.7C940.1,200.5,888.9,198.5,837.8,198.5"/>
				<path class="st1" d="M871,1753.9c8.5,2.1,17.1,3.9,25.6,5.6c14.6,2.9,29.3,5.3,44,7.3c-2.4-0.6-4.8-1.3-7.1-1.9
					C912.6,1761.7,891.8,1758,871,1753.9 M1854.5,1029.2c-3,6-6.2,11.9-9.5,17.7c-33.3,58.9-79.6,110.2-107.6,172.1
					c-6.1,15.7-10.8,31.8-13.6,48.4c-1.1,10.6-1.6,21.3-1.5,31.9c0.3,42.8,8.2,85.1,11.1,127.7c75.7-82,135-181.8,135.6-295.6
					C1869.3,1096.4,1863.5,1062.4,1854.5,1029.2 M486.8,227.9c-19.7,0-39.5,1.5-59,3.2c-46.4,4.1-92.2,14.6-132.5,39
					c-35.6,21.6-64.7,51.6-87.4,86.3c-42.8,65.2-58.8,147.9-51.7,224.9c1.9,20.8,5,41.3,9.1,61.7c33.4-36.6,76.9-63.5,118.7-91.4
					c12.3-38.3,30.6-75.5,54.5-107.7c29.8-40.2,64.6-74.9,107.6-101.2c8.8-5.4,17.8-10.3,27-14.7c18.8-23.3,39.5-44.3,64-62.8
					c12.2-9.2,25-17.1,38.4-23.9c-9.3-2.5-18.9-4.9-29-7.2C526.9,229.5,506.9,227.9,486.8,227.9 M1277.2,184.2
					c-21.3,0-42.5,0.9-63.4,2.7c-35.1,2.9-70.5,13.5-106.1,26.2c40.9,4.6,81.6,10.5,122,17.9c150.4,27.8,300.7,81.5,423.7,174.4
					c18.2,13.7,35.7,28.1,52.6,43.1c-18.9-53-47.1-102.6-87.1-142.7C1529.4,216,1401.3,184.2,1277.2,184.2"/>
				<path class="st2" d="M933.5,1764.9c2.4,0.6,4.8,1.3,7.1,1.9c11.2,1.5,22.3,2.8,33.6,3.7C960.6,1768.8,947,1767,933.5,1764.9
					 M1828.7,953.2c-9.5,19.9-21.1,38.7-34.5,56.2c-18.7,24.4-39.1,46.8-60.6,68.7c-15.9,16.3-31.8,32.5-46.2,50.2
					c-8.7,12.1-16.5,24.7-22.9,38.2c-5.3,14.2-9.2,28.9-11.8,43.9c-2.5,24.8-1.8,49.8,1,74.6c1.5,9.8,3.3,19.5,5.3,29.2
					c10.4,49.3,30.9,96.4,38.5,146.2c0.1,1,0.3,1.9,0.4,2.9c12.1-11.6,24-23.7,35.4-36.1c-3-42.6-10.9-84.9-11.1-127.7
					c-0.1-10.7,0.4-21.3,1.5-31.9c2.8-16.6,7.5-32.7,13.6-48.4c28-61.9,74.3-113.2,107.6-172.1c3.3-5.8,6.5-11.8,9.5-17.7
					C1847.5,1003.5,1838.5,978.2,1828.7,953.2 M283.9,551.5c-41.9,27.9-85.3,54.8-118.7,91.4c6,29.8,14.2,59.1,24.4,88
					c16.3,46.6,36.7,91.5,56,136.9c17.1,41,32.5,83,39.6,126.9c2,19,2.2,38,0.3,56.9c-9.3,55.9-34.2,107.5-54.2,160.2
					c-20.1,53.1-34.3,111.9-27.1,168.9c4.2,33.3,12.4,65.8,31,94.4c18,27.6,42.1,50.7,70.9,66.8c29,16.3,60.4,25.8,92.8,31.9
					c-42.4-34-75.9-77.3-94.4-129.5c-22.3-62.8-13-132.2,4.2-194.8c14.8-53.6,35.6-105.8,44.5-160.8c1.9-18.5,2.1-36.9,0.3-55.4
					c-1.4-8.2-3.1-16.4-5-24.5c-11.2-45.4-30.5-88.2-47.2-131.7c-19-49.5-31.2-99.7-36.1-152.6c-4.8-51.8-0.1-105.5,13.6-155.6
					C280.3,563.2,282.1,557.3,283.9,551.5 M1107.7,213c-57.5,20.5-115.1,46.4-171.4,54.4c-76,9.9-107.7,15-172.7,15
					c-9.6,0-20-0.1-31.3-0.3c-38.7-0.8-86.7-22.2-156.9-40.9c-13.4,6.8-26.2,14.7-38.4,23.9c-24.5,18.5-45.2,39.4-64,62.8
					c38.8-18.7,80.7-28.9,123.8-33.6c12.8-1.4,25.7-2,38.7-2c38.8,0,78,5.8,115.4,14.7c51.2,12.1,100.3,32.3,147.7,54.8
					c85.1,40.4,164.8,91.3,251.3,128.8c66.2,27.2,135.2,47.3,206,57.8c28.7,3.5,57.7,5.3,86.6,5.3c25.8,0,51.5-1.5,77.1-4.5
					c46.1-6.9,92.4-18,138.9-18c18.9,0,37.9,1.8,56.8,6.5c5.1,1.3,10.2,2.8,15.2,4.5c-3.2-17.1-6.8-34-11.2-50.9
					c-3.8-14.5-8.2-28.8-13.2-42.9c-16.8-15.1-34.4-29.4-52.6-43.1c-123-92.8-273.3-146.5-423.7-174.4
					C1189.3,223.5,1148.6,217.6,1107.7,213"/>
				<path class="st1" d="M612,1677.4c38,15.6,77,28.8,116.2,40.7c46.9,14.3,94.6,26.3,142.8,35.8c-41-9.9-81.4-24.1-119.8-42.6
					c-28.7-8.4-57.5-16.5-86.4-23.9C647.4,1682.9,629.8,1679.6,612,1677.4"/>
				<path class="st2" d="M398.9,1573.9c10.8,8.7,22.2,16.7,34,24.1c35.8,22.5,75.4,38,116.1,49.7c9.3,5.3,18.9,10.2,28.7,14.7
					c11.3,5.2,22.7,10.1,34.3,14.8c17.8,2.2,35.4,5.5,52.8,10c28.9,7.4,57.7,15.5,86.4,23.9c-34.6-16.6-67.5-36.6-97.7-59.9
					c-50.8-39.2-111.7-62.9-175.6-68c-0.4,0-0.7-0.1-1.1-0.1C450.8,1581.3,424.6,1578.7,398.9,1573.9 M1698,1463.2
					c-10.1,9.7-20.3,19.1-30.6,28.2c-109,96.1-231.4,177.5-367.4,229.8c-67.1,25.8-137.1,42.1-208.6,49.1
					c-19.8,1.9-39.6,2.8-59.5,2.8c-19.2,0-38.5-0.9-57.6-2.5c23.4,2.9,46.8,5.3,70.3,7c30.3,2.3,60.6,3.4,90.9,3.4
					c76.2,0,152.4-7.2,227.4-21.8c49.6-9.7,98.6-23,146.1-40.3c49.7-18,100-39.3,138.1-77.3c22-21.9,38.3-48.8,47.4-78.5
					C1704.6,1530.3,1702.9,1496.7,1698,1463.2 M1730.5,542.2c9,48.3,14.1,97.4,20.4,146.1c1.8,13.3,3.8,26.5,5.9,39.7
					c5.1,31.1,11.6,62.1,20.8,92.2c10.3,33.5,23.7,65.8,37,98.2c4.8,11.5,9.5,23.1,14,34.8c1.7-3.5,3.3-7.1,4.9-10.6
					c12.1-28,22.4-56.2,27.7-86.3c5.4-30.4,8.6-61.3,6.7-92.1c-1.8-29.5-6.1-59.9-15.6-88.1c-11-32.5-26.6-62.1-49.9-87.4
					C1783.2,567.7,1757.6,551.6,1730.5,542.2"/>
				<path class="st2" d="M751.2,1711.3c38.4,18.4,78.8,32.7,119.8,42.6c20.8,4.1,41.6,7.8,62.5,11c-34.3-9.3-68.4-19.4-102.6-29.7
					C804.4,1727.1,777.8,1719.1,751.2,1711.3 M473,327.9c-9.2,4.4-18.2,9.3-27,14.7c-42.9,26.3-77.7,61-107.6,101.2
					c-23.9,32.2-42.1,69.4-54.5,107.7c13.2-8.8,26.2-17.7,38.8-27c19.1-15.4,36.2-32.7,51.7-51.8c8.7-11.7,17-23.7,25-35.9
					c18.4-28.2,35.5-57.2,55.2-84.6C460.5,343.9,466.7,335.7,473,327.9"/>
				<path class="st3" d="M635.5,292.2c-13,0-25.9,0.6-38.7,2c-43.1,4.7-85,14.9-123.8,33.6c-6.4,7.9-12.5,16-18.5,24.4
					c-19.6,27.4-36.7,56.4-55.2,84.6c-8,12.2-16.2,24.2-25,35.9c-15.4,19.1-32.5,36.4-51.7,51.8c-12.5,9.3-25.6,18.2-38.8,27
					c-1.9,5.8-3.6,11.6-5.2,17.5c-13.7,50.1-18.4,103.9-13.6,155.6c4.9,52.9,17.1,103.1,36.1,152.6c16.7,43.5,36.1,86.3,47.2,131.7
					c2,8.1,3.7,16.3,5,24.5c1.8,18.5,1.6,36.9-0.3,55.4c-8.9,55-29.7,107.2-44.5,160.8c-17.3,62.7-26.5,132.1-4.2,194.8
					c18.5,52.2,52,95.5,94.4,129.5c25.7,4.8,51.9,7.4,77.8,9.4c0.4,0,0.7,0.1,1.1,0.1c63.9,5,124.8,28.8,175.6,68
					c30.2,23.3,63.2,43.3,97.7,59.9c26.6,7.8,53.2,15.8,79.7,23.8c34.2,10.3,68.3,20.4,102.6,29.7c13.5,2.1,27.1,4,40.7,5.7
					c19.2,1.7,38.4,2.5,57.6,2.5c19.9,0,39.7-0.9,59.5-2.8c71.5-6.9,141.5-23.3,208.6-49.1c136-52.2,258.4-133.7,367.4-229.8
					c10.3-9.1,20.6-18.5,30.6-28.2c-0.1-1-0.3-1.9-0.4-2.9c-7.6-49.9-28-96.9-38.5-146.2c-2-9.7-3.8-19.4-5.3-29.2
					c-2.8-24.8-3.5-49.7-1-74.6c2.6-15,6.4-29.7,11.8-43.9c6.4-13.4,14.1-26.1,22.9-38.2c14.4-17.6,30.3-33.9,46.2-50.2
					c21.5-22,41.9-44.3,60.6-68.7c13.4-17.6,25-36.3,34.5-56.2c-4.5-11.7-9.3-23.2-14-34.8c-13.3-32.3-26.8-64.7-37-98.2
					c-9.3-30.2-15.7-61.1-20.8-92.2c-2.2-13.2-4.1-26.5-5.9-39.7c-6.3-48.7-11.4-97.8-20.4-146.1c-5-1.7-10.1-3.2-15.2-4.5
					c-19-4.7-37.9-6.5-56.8-6.5c-46.4,0-92.7,11.1-138.9,18c-25.6,3.1-51.4,4.5-77.1,4.5c-28.9,0-57.8-1.8-86.6-5.3
					c-70.8-10.5-139.8-30.6-206-57.8c-86.5-37.6-166.2-88.4-251.3-128.8c-47.4-22.5-96.5-42.7-147.7-54.8
					C713.5,298,674.3,292.2,635.5,292.2"/>
			</g>
			<g>
				<linearGradient id="SVGID_1_" gradientUnits="userSpaceOnUse" x1="1147.3125" y1="488.4722" x2="1147.3125" y2="455.7911">
					<stop  offset="0" style="stop-color:#FFFFFF"/>
					<stop  offset="1" style="stop-color:#F1F2F2"/>
				</linearGradient>
				<path class="st4" d="M1593.7,1040.2H700.9c-18.5,0-33.5-15-33.5-33.5v-547c0-18.5,15-33.5,33.5-33.5h892.8
					c18.5,0,33.5,15,33.5,33.5v547C1627.2,1025.2,1612.2,1040.2,1593.7,1040.2z"/>
				<path class="st5" d="M1630.5,451.6H664.1c-8.9,0-16.1-7.2-16.1-16.1v-3.3c0-8.9,7.2-16.1,16.1-16.1h966.3
					c8.9,0,16.1,7.2,16.1,16.1v3.3C1646.6,444.4,1639.4,451.6,1630.5,451.6z"/>
				<g>
					<rect x="728.9" y="522.9" class="st6" width="222.1" height="14"/>
					<rect x="728.9" y="547.6" class="st6" width="143.1" height="14"/>
					<rect x="728.9" y="576.3" class="st7" width="108.5" height="14"/>
					<rect x="728.9" y="603.4" class="st7" width="151.8" height="14"/>
				</g>
				<g>
					<circle class="st8" cx="1040.9" cy="696.3" r="137.7"/>
					<path class="st7" d="M1096.2,570.2l-55.3,126.2l128.1-50.7C1155.8,612.4,1130,584.9,1096.2,570.2z"/>
					<path class="st9" d="M1107.4,816.9c34.5-19,60.6-52.6,68.7-94.3c5.2-26.8,2.3-53.3-7.1-77h0l-128.1,50.7L1107.4,816.9z"/>
				</g>
				<g>
					<rect x="1232.8" y="596.9" class="st8" width="16" height="16.8"/>
					<rect x="1232.8" y="630.4" class="st7" width="16" height="16.8"/>
					<rect x="1232.8" y="663.8" class="st9" width="16" height="16.8"/>
					<rect x="1261.4" y="596.9" class="st8" width="99.5" height="16.8"/>
					<rect x="1261.4" y="630.4" class="st7" width="99.5" height="16.8"/>
					<rect x="1261.4" y="663.8" class="st9" width="99.5" height="16.8"/>
				</g>
				<polygon class="st8" points="1209.2,566.2 1245.1,507.7 1257.6,549.8 1274.7,529.8 1284,550.5 1309,525.9 1328.9,553.3 
					1351.7,537 1376.7,566.2 				"/>
				<g>
					<rect x="1428" y="599.6" class="st8" width="16" height="16.8"/>
					<rect x="1428" y="633.1" class="st7" width="16" height="16.8"/>
					<rect x="1428" y="666.6" class="st9" width="16" height="16.8"/>
					<rect x="1456.5" y="599.6" class="st8" width="70.1" height="16.8"/>
					<rect x="1456.5" y="633.1" class="st7" width="112.4" height="16.8"/>
					<rect x="1456.5" y="666.6" class="st9" width="96.5" height="16.8"/>
				</g>
				<polygon class="st8" points="1580.9,566.2 1545.8,507.7 1533.6,549.8 1516.9,529.8 1507.9,550.5 1483.5,525.9 1464.1,553.3 
					1441.8,537 1417.5,566.2 				"/>
				<g>
					<rect x="1219.3" y="761.9" class="st7" width="179.1" height="4.4"/>
					<rect x="1219.3" y="777.4" class="st7" width="183.6" height="4.4"/>
					<rect x="1219.3" y="792.8" class="st7" width="162.2" height="4.4"/>
					<rect x="1219.3" y="808.2" class="st7" width="160.2" height="4.4"/>
					<rect x="1219.3" y="823.7" class="st7" width="165.1" height="4.4"/>
					<rect x="1219.3" y="839.1" class="st7" width="168.1" height="4.4"/>
					<rect x="1219.3" y="854.5" class="st7" width="153.4" height="4.4"/>
				</g>
				<g>
					<rect x="675.4" y="777" class="st6" width="187.6" height="13.2"/>
					<rect x="675.4" y="805.6" class="st6" width="207.4" height="13.2"/>
					<rect x="675.4" y="834.3" class="st6" width="207.4" height="13.2"/>
					<rect x="675.4" y="863" class="st6" width="209.6" height="13.2"/>
					<rect x="675.4" y="891.6" class="st6" width="232.8" height="13.2"/>
					<rect x="675.4" y="920.3" class="st6" width="247.1" height="13.2"/>
					<rect x="675.4" y="949" class="st6" width="258.3" height="13.2"/>
					<rect x="675.4" y="977.6" class="st6" width="281.2" height="13.2"/>
				</g>
				<g>
					<rect x="1011.8" y="899.9" class="st7" width="29.2" height="94.4"/>
					<rect x="1049.8" y="869.6" class="st10" width="29.2" height="124.7"/>
					<rect x="1087.8" y="876.2" class="st8" width="29.2" height="118.1"/>
					<rect x="1125.9" y="858.7" class="st6" width="29.2" height="135.6"/>
					<rect x="1163.9" y="886.6" class="st9" width="29.2" height="107.7"/>
				</g>
			</g>
			<g>
				<linearGradient id="SVGID_2_" gradientUnits="userSpaceOnUse" x1="723.8754" y1="673.6821" x2="681.8095" y2="648.3542">
					<stop  offset="0" style="stop-color:#2C3E66"/>
					<stop  offset="1" style="stop-color:#1F2D4C"/>
				</linearGradient>
				<path class="st11" d="M721.5,666.5c-2-13.5-10.5-24.5-14.3-37.2c1.2-6.7,2.7-13.4,1.7-20.3c-1.8-12.5-10.4-22.3-14.6-34
					c-4.7-12.9-4.7-27-8.4-40.2c-6.4-22.4-23.9-39.2-46.4-45c-2.1-0.5-3.8,0.2-4.9,1.4c-21.6,4.9-36.3,22.3-46.2,41.3
					c-11.7,22.7-22,47-31.2,70.9c-9.1,23.9-15.3,49.7-11.9,75.3c2.5,18.9,10.1,39,32.7,36.6c12.5-1.4,26-10.8,37.9-2.8
					c9.1,6.1,14.4,16.3,23.8,22.1c14.8,9.2,36.3,7,43.3-10.8c2.5-6.3,2.5-13,8.1-17.6c4.1-3.4,9.5-4.7,13.9-7.5
					c5.6-3.5,9.4-8.3,11-14.2C720.4,680.2,722.7,674.6,721.5,666.5z M709.8,647.2c3.3,7,7.5,14.6,7.9,22.5c0.1,2.4-0.2,4.5-0.9,6.4
					c-0.7-10.4-6.9-18.9-9.6-28.7c-0.8-2.8-1.1-5.6-1-8.3C707.3,641.8,708.5,644.5,709.8,647.2z"/>
				<linearGradient id="SVGID_3_" gradientUnits="userSpaceOnUse" x1="629.4592" y1="1759.5491" x2="630.1092" y2="1720.5696">
					<stop  offset="0" style="stop-color:#A1B9FF"/>
					<stop  offset="1" style="stop-color:#7798ED"/>
				</linearGradient>
				<polygon class="st12" points="619.6,1695.2 632.2,1774.5 639.4,1774.5 641.3,1706.6 				"/>
				<linearGradient id="SVGID_4_" gradientUnits="userSpaceOnUse" x1="504.3584" y1="1768.6903" x2="504.9901" y2="1730.8071">
					<stop  offset="0" style="stop-color:#A1B9FF"/>
					<stop  offset="1" style="stop-color:#7798ED"/>
				</linearGradient>
				<polygon class="st13" points="517.4,1698.1 502.2,1774.5 493.5,1774.5 493.5,1711.3 				"/>
				<linearGradient id="SVGID_5_" gradientUnits="userSpaceOnUse" x1="811.3947" y1="724.3394" x2="749.2534" y2="792.7051">
					<stop  offset="0" style="stop-color:#ED8383"/>
					<stop  offset="1" style="stop-color:#E26969"/>
				</linearGradient>
				<path class="st14" d="M647.9,697c0,0,25.5-10.7,62.5,52c29.6,50.1,47.3,107.7,57.4,135.2c2.2,6,10.5,6.6,13.5,1
					c15-27.5,50.9-92,83.2-140.8c42.1-63.7,48.3-27.5,75-45.9c0,0,5.1,13-23.1,19.7c0,0,61.7,0,71.9-9.8c10.3-9.8,12.3-6.2,6.2,5.7
					c-5.7,11-26.2,32.2-89,36.8c-9.1,0.7-17,6.5-20.4,14.9c-18.1,45.8-75.9,186.6-100.8,191.3c-46.2,8.8-79.7-74.1-79.7-74.1
					L647.9,697z"/>
				<linearGradient id="SVGID_6_" gradientUnits="userSpaceOnUse" x1="753.5655" y1="817.6794" x2="670.6902" y2="838.4407">
					<stop  offset="0" style="stop-color:#F5C1AC"/>
					<stop  offset="1" style="stop-color:#EAA48C"/>
				</linearGradient>
				<path class="st15" d="M805,842.7c-9.9,17.4-18.2,32.4-23.7,42.4c-3.1,5.6-11.3,5-13.5-1c-10.1-27.4-27.9-85.1-57.4-135.2
					c-37-62.7-62.5-52-62.5-52l56.7,186c0,0,33.6,82.8,79.7,74.1c13-2.5,35-42,55.5-85.7C821.2,869.1,810.6,854.6,805,842.7z"/>
				<linearGradient id="SVGID_7_" gradientUnits="userSpaceOnUse" x1="595.6261" y1="1251.2826" x2="576.7806" y2="1484.5642">
					<stop  offset="0" style="stop-color:#3358A9"/>
					<stop  offset="1" style="stop-color:#244D89"/>
				</linearGradient>
				<path class="st16" d="M674.9,1486.7c-13.5-47.2-30.9-93.1-51.8-137.6c-2.8-6-11.8-6.5-16.1-2.1c-37.9,39.1-47.9,92.5-55,144.5
					c-20-2.8-39.7-8.3-58.5-16.6c-12-5.3-22.5,12.4-10.4,17.7c58.3,25.8,124.8,28.7,184.7,6.4c0.6-0.2,1.1-0.5,1.6-0.8
					C673.6,1496.5,676.6,1492.3,674.9,1486.7z"/>
				<linearGradient id="SVGID_8_" gradientUnits="userSpaceOnUse" x1="867.3706" y1="1679.0189" x2="259.1021" y2="871.611">
					<stop  offset="0" style="stop-color:#ED8383"/>
					<stop  offset="1" style="stop-color:#E26969"/>
				</linearGradient>
				<path class="st17" d="M652.8,635.3c0,0-26.6,53-7.2,60.6c26.1,10.3,37.9,74.5,53.4,95.1c14.4,19.2,21.4,54.9-6.2,70.7
					c-4.2,2.4-7.1,6.7-7.9,11.5c-4.1,24.4-13.7,94.6,5,124.9c55.8,90.8,44.9,166.8,32.5,316.9c0,0-41.5,315.5-41.4,337.1
					c0.1,21.6,17.7,60.9,46.5,73.2s41.9,31.8,27.5,37.9c-14.4,6.2-66.8,0.5-71.9-3.6c-5.1-4.1-4.6-45.2-43.7-53.4
					c-39.1-8.2-14.2-31.9-0.9-57.6s-30.9-165.5-6.2-352.5L612.6,1118c0,0-16.3,156.7-23,195.5c-13.4,77.4-77.9,261-78.9,306.2
					c-1,45.2,20,73.7-1.6,89.1c-21.6,15.4-43.3,15.4-48.4,43.2c-5.1,27.7-6.2,26.7-41.1,27.7s-74.2,5.1-35.2-23.6
					c39.1-28.8,80.4-55.2,87.6-188.8s17.9-225.1,20-279.5s-30.8-132.6,30.5-286.3c45.2-113.3-26.4-195.3-26.4-195.3l34.4-118.5
					c0,0,39.1,8.2,49.3-4.1s17.5-66.8,17.5-66.8L652.8,635.3z"/>
				
					<linearGradient id="SVGID_9_" gradientUnits="userSpaceOnUse" x1="508.2915" y1="1163.6733" x2="462.8907" y2="1103.4088" gradientTransform="matrix(0.9576 -0.1735 0.1727 0.953 -25.837 -408.6226)">
					<stop  offset="0" style="stop-color:#ED8383"/>
					<stop  offset="1" style="stop-color:#E26969"/>
				</linearGradient>
				<path class="st18" d="M666.8,659.3c16-2.8,17.8-23.9,16.4-50l-2.5-31.1c-0.6-6.7-1.1-13.4-1.4-19.9c-2.2-44-40.9-56.4-40.9-56.4
					c-93.5,14.7-76.9,83.3-62.4,119.8C590.5,658.3,645.7,663.1,666.8,659.3z"/>
				<linearGradient id="SVGID_10_" gradientUnits="userSpaceOnUse" x1="642.5328" y1="909.4469" x2="534.7945" y2="766.4363">
					<stop  offset="0" style="stop-color:#F5C1AC"/>
					<stop  offset="1" style="stop-color:#EAA48C"/>
				</linearGradient>
				<path class="st19" d="M528.9,983.1c38.7,4.7,110.9,12.3,158,9.3c-14.5-32.6-5.8-96.2-2-119.2c0.8-4.8,3.6-9.1,7.9-11.5
					c27.6-15.8,20.6-51.5,6.2-70.7c-15.4-20.6-27.2-84.8-53.4-95.1c-3.5-1.4-5.5-4.2-6.4-8c-1.1,6.3-8.6,14.3-8.6,14.3
					s-38.6-19.5-48.6-22c-0.7,1.3-1.4,2.4-2.2,3.3c-10.3,12.3-49.3,4.1-49.3,4.1l-34.4,118.5C496.1,806.2,559.9,879.4,528.9,983.1z"
					/>
				<polygon class="st20" points="568.2,689.4 582.5,678.5 630.7,702.3 616.8,724 				"/>
				<polygon class="st20" points="630.7,702.3 639.2,687.9 650.7,697.1 649.3,719.1 				"/>
				<linearGradient id="SVGID_11_" gradientUnits="userSpaceOnUse" x1="778.3384" y1="1321.2233" x2="438.657" y2="1153.2747">
					<stop  offset="0" style="stop-color:#3358A9"/>
					<stop  offset="1" style="stop-color:#244D89"/>
				</linearGradient>
				<path class="st21" d="M689.8,998.1c-5.6-9.1-8.6-21.8-10-35.8c-47.5,15.4-110.6,5.1-145.3-2.8c-2.4,13.4-6.2,27.5-12,42.1
					c-61.4,153.8-28.5,231.9-30.5,286.3c-1.5,38.5-7.2,95.5-13,172.7l-1.6,21.8c1,0.7,2.1,1.3,3.4,1.8
					c29.7,10.3,60.6,15.8,91.6,16.6c2.2,0.1,4-1.5,4.3-3.7c3.9-27,19-120.7,19-119.2c0,1.5-0.5,92,2.9,118.5
					c0.3,2.2,2.3,3.9,4.5,3.7c33.6-2.5,66.8-10.3,98.3-23.5l2.8-22.4c9.4-73.5,18-139.3,18-139.3
					C734.7,1164.9,745.7,1088.8,689.8,998.1z"/>
				<g>
					
						<linearGradient id="SVGID_12_" gradientUnits="userSpaceOnUse" x1="1113.3391" y1="1111.0533" x2="985.9225" y2="1048.0548" gradientTransform="matrix(0.634 0.7734 -0.7734 0.634 721.0908 -351.4281)">
						<stop  offset="0" style="stop-color:#A1B9FF"/>
						<stop  offset="1" style="stop-color:#7798ED"/>
					</linearGradient>
					<path class="st22" d="M511.6,1230L426,1125.6c-0.9-1.1-0.7-2.7,0.4-3.6l148.1-121.4c1.1-0.9,2.7-0.7,3.6,0.4l85.6,104.4
						c0.9,1.1,0.7,2.7-0.4,3.6l-148.1,121.4C514.1,1231.3,512.5,1231.1,511.6,1230z"/>
					<path class="st23" d="M512.8,1209.1l-66.1-80.6c-0.9-1.1-0.7-2.7,0.4-3.6l126.6-103.8c1.1-0.9,2.7-0.7,3.6,0.4l66.1,80.6
						c0.9,1.1,0.7,2.7-0.4,3.6l-126.6,103.8C515.3,1210.4,513.7,1210.2,512.8,1209.1z"/>
					<path class="st20" d="M622.8,1084.4l-31.7-38.6c-0.5-0.6-0.4-1.6,0.2-2.1l13.4-11c0.6-0.5,1.6-0.4,2.1,0.2l31.7,38.6
						c0.5,0.6,0.4,1.6-0.2,2.1l-13.4,11C624.3,1085.2,623.3,1085.1,622.8,1084.4z"/>
					
						<rect x="551.8" y="1078.6" transform="matrix(0.634 0.7734 -0.7734 0.634 1050.6014 -59.8598)" class="st8" width="73.5" height="2.6"/>
					
						<rect x="542.1" y="1086.6" transform="matrix(0.634 0.7734 -0.7734 0.634 1053.2097 -49.4088)" class="st8" width="73.5" height="2.6"/>
					
						<rect x="532.3" y="1094.6" transform="matrix(0.634 0.7734 -0.7734 0.634 1055.8181 -38.9578)" class="st8" width="73.5" height="2.6"/>
					
						<rect x="522.6" y="1102.6" transform="matrix(0.634 0.7734 -0.7734 0.634 1058.4264 -28.5068)" class="st8" width="73.5" height="2.6"/>
					
						<rect x="512.9" y="1110.5" transform="matrix(0.634 0.7734 -0.7734 0.634 1061.0348 -18.0559)" class="st8" width="73.5" height="2.6"/>
					
						<rect x="503.1" y="1118.5" transform="matrix(0.634 0.7734 -0.7734 0.634 1063.6431 -7.6049)" class="st8" width="73.5" height="2.6"/>
					
						<rect x="493.4" y="1126.5" transform="matrix(0.634 0.7734 -0.7734 0.634 1066.2513 2.8461)" class="st8" width="73.5" height="2.6"/>
					
						<rect x="483.6" y="1134.5" transform="matrix(0.634 0.7734 -0.7734 0.634 1068.8597 13.297)" class="st8" width="73.5" height="2.6"/>
					
						<rect x="473.9" y="1142.5" transform="matrix(0.634 0.7734 -0.7734 0.634 1071.468 23.748)" class="st8" width="73.5" height="2.6"/>
					
						<rect x="464.2" y="1150.4" transform="matrix(0.634 0.7734 -0.7734 0.634 1074.0764 34.199)" class="st8" width="73.5" height="2.6"/>
				</g>
				<linearGradient id="SVGID_13_" gradientUnits="userSpaceOnUse" x1="590.8181" y1="994.3534" x2="526.2306" y2="908.6207">
					<stop  offset="0" style="stop-color:#ED8383"/>
					<stop  offset="1" style="stop-color:#E26969"/>
				</linearGradient>
				<path class="st24" d="M530.5,687.7c0,0-39.1-9.9-58.9,34.6c-19.9,44.5-95.2,144.6-91.8,169.9s93.9,131.5,100,149.4
					c6.2,17.8,11,58.9,24.7,60.3s48.9-18.5,48.8-28.8c-0.1-10.3-20.7-43.2-40.5-54.8c-19.9-11.6-37-86.5-70.6-134.3l82.2-118.5
					L530.5,687.7z"/>
				<linearGradient id="SVGID_14_" gradientUnits="userSpaceOnUse" x1="379.7224" y1="851.0324" x2="522.8597" y2="803.4474">
					<stop  offset="0" style="stop-color:#F5C1AC"/>
					<stop  offset="1" style="stop-color:#EAA48C"/>
				</linearGradient>
				<path class="st25" d="M418.2,955.4c14-0.4,33.4-5.4,49.2-25.9c-7.4-16-15.6-31.9-25.2-45.5l82.2-118.5l6.2-77.8
					c0,0-39.1-9.9-58.9,34.6s-95.2,144.6-91.8,169.9C381.3,903,398.5,928.4,418.2,955.4z"/>
				<linearGradient id="SVGID_15_" gradientUnits="userSpaceOnUse" x1="449.5625" y1="1656.5706" x2="439.1938" y2="1784.9216">
					<stop  offset="0" style="stop-color:#A1B9FF"/>
					<stop  offset="1" style="stop-color:#7798ED"/>
				</linearGradient>
				<path class="st26" d="M455.4,1729.3c-7.4,19.1-41.8,3.9-41.8,3.9c-9.5,8.7-19.5,15.7-29.3,22.9c-39.1,28.8,0.2,24.7,35.2,23.6
					s36,0,41.1-27.7c5.1-27.7,26.8-27.7,48.4-43.2c13.9-9.9,10.1-25.3,6-47C515,1661.9,468.8,1694.8,455.4,1729.3z"/>
				<linearGradient id="SVGID_16_" gradientUnits="userSpaceOnUse" x1="685.5474" y1="1725.3333" x2="733.5139" y2="1758.098">
					<stop  offset="0" style="stop-color:#A1B9FF"/>
					<stop  offset="1" style="stop-color:#7798ED"/>
				</linearGradient>
				<path class="st27" d="M684,1768.9c5.1,4.1,58.3,11.9,70.2,1.7c18-15.3,3.3-31.1-22.4-43.5c-7,3.6-21.6,5.5-32,0.5
					c-38.8-18.5-61.3-79.1-61.3-79.1c-13.3,25.7-38.2,49.3,0.9,57.6S678.9,1764.8,684,1768.9z"/>
				<path class="st28" d="M642.5,506.7c8.5,16.6,27.1,23.5,33.5,41.8c6,17.2,6.3,35.5,14.6,51.9c3,5.9,11.9,0.7,8.9-5.2
					c-8.5-16.8-8-36.3-15.2-53.5c-3.1-7.4-7.4-13.8-13.3-19.3c-7.1-6.7-15.1-12-19.7-20.9C648.4,495.6,639.5,500.8,642.5,506.7
					L642.5,506.7z"/>
				<linearGradient id="SVGID_17_" gradientUnits="userSpaceOnUse" x1="572.2706" y1="671.4401" x2="580.3207" y2="531.5961">
					<stop  offset="0" style="stop-color:#2C3E66"/>
					<stop  offset="1" style="stop-color:#1F2D4C"/>
				</linearGradient>
				<path class="st29" d="M649.3,506.5c-0.8-2.8-1.7-5.6-2.7-8.3c-0.5-1.3-1.8-1.6-2.8-1.2c-0.2-0.4-0.5-0.8-0.7-1.2
					c-0.6-1.3-1.3-2.5-2-3.8c-1.5-2.5-4-2.8-6-1.9c-0.2-0.1-0.5-0.1-0.8-0.2c-26.1-3.1-52.8,6.6-69.7,27.1
					c-8.9,10.8-13.5,23.7-18.3,36.6c-5.6,14.9-12.4,25.9-24,36.8c-7.9,7.4-13.9,16-11.1,27.3c1.5,6.2,5.6,11.2,8,17
					c-5.6,12.7-19.3,21.1-20.9,35.6c-0.7,6.9,2.2,13.4,7.6,16.5c3,4,7.1,6.8,10.7,10.2c7.3,6.8,3,13.4,3.8,22.1
					c1.2,13.7,15.3,21.9,27.6,24.3c15,2.9,30.3-1,42.5-10.1c1.6-1.2,2.2-2.8,2.1-4.4c1.5-4.1-4.5-8.6-8.7-5.1
					c-5.6-6.5-2.5-20.5,0.3-29.1c1.5-2.4,3-4.8,4.1-7.4c3.7-8.6,3.1-16.9-1.3-25.1c-2.5-4.7-7.6-9.7-8.6-15.1
					c-0.1-0.3-0.1-0.7-0.1-1c7.8-3.9,18.2-6.5,23.2-13.1c6-7.9,5.4-17.6,3.1-26.8c0.9-12.6-8.3-24.2-0.5-35.7
					c13.4-6.5,30.9-5.9,41-18.6c3-3.8,5-7.9,6.2-12.1C657.5,529,654.6,517.1,649.3,506.5z M503.2,666.4c2.2-6.8,7.4-12.1,11.8-17.5
					c2-2.4,3.7-4.8,5.3-7.4c-0.4,5.8-4.6,10.2-9,15.1c-4.1,4.6-7.7,9.9-8.8,15.5C502.3,670.2,502.6,668.2,503.2,666.4z M647.5,518.5
					c1,7.1,0.9,14.1-1,20.4c-2.5,3.5-6.5,6.4-12.3,8.6c-0.5,0.2-1,0.3-1.5,0.5c0.2-0.2,0.5-0.4,0.7-0.6
					C642.1,539.7,646.8,529.3,647.5,518.5z M573.6,714.3c0-2.8,1.8-6.3,3.5-9c-1.1,7.4-0.9,15.1,2.9,20.3
					C575.8,725.7,573.6,717.8,573.6,714.3z M599.3,628.4c-4.2,7.6-12.4,9.1-19.8,12c2.7-4.2,8.6-6.9,12.3-10
					c4.6-3.8,8.1-8.6,10.2-14.1C602.2,620.5,601.5,624.6,599.3,628.4z M626.4,559.2c-5.7,2-11.4,3.3-16.9,5.1
					c4.2-3.7,9.1-6.6,13.9-9.6c6.4-1.6,12.8-3,18.3-6C638.3,553.1,633.4,556.8,626.4,559.2z"/>
			</g>
			<g>
				<linearGradient id="SVGID_18_" gradientUnits="userSpaceOnUse" x1="917.6858" y1="1495.1733" x2="965.5086" y2="1495.1733">
					<stop  offset="0" style="stop-color:#3358A9"/>
					<stop  offset="1" style="stop-color:#244D89"/>
				</linearGradient>
				<rect x="917.7" y="1209.8" class="st30" width="47.8" height="570.8"/>
				<linearGradient id="SVGID_19_" gradientUnits="userSpaceOnUse" x1="1580.8503" y1="1495.1733" x2="1628.6731" y2="1495.1733">
					<stop  offset="0" style="stop-color:#3358A9"/>
					<stop  offset="1" style="stop-color:#244D89"/>
				</linearGradient>
				<rect x="1580.9" y="1209.8" class="st31" width="47.8" height="570.8"/>
				<linearGradient id="SVGID_20_" gradientUnits="userSpaceOnUse" x1="1269.6511" y1="1174.5367" x2="1269.6511" y2="1231.3284">
					<stop  offset="0" style="stop-color:#F5C1AC"/>
					<stop  offset="1" style="stop-color:#EAA48C"/>
				</linearGradient>
				<path class="st32" d="M1653,1209.8H886.3c-7.5,0-13.5-6-13.5-13.5V1162c0-7.5,6-13.5,13.5-13.5H1653c7.5,0,13.5,6,13.5,13.5
					v34.3C1666.5,1203.7,1660.5,1209.8,1653,1209.8z"/>
				<g>
					<linearGradient id="SVGID_21_" gradientUnits="userSpaceOnUse" x1="950.8637" y1="1138.7133" x2="1295.5117" y2="1138.7133">
						<stop  offset="0" style="stop-color:#FFFFFF"/>
						<stop  offset="1" style="stop-color:#E6E7E8"/>
					</linearGradient>
					<path class="st33" d="M960.7,1148.5h322.7c6.7,0,12.1-5.4,12.1-12.1v-7.5H960.7c-5.4,0-9.8,4.4-9.8,9.8l0,0
						C950.9,1144.1,955.2,1148.5,960.7,1148.5z"/>
					<linearGradient id="SVGID_22_" gradientUnits="userSpaceOnUse" x1="1137.3612" y1="1008.1445" x2="1393.8066" y2="1131.7245">
						<stop  offset="0" style="stop-color:#FFFFFF"/>
						<stop  offset="1" style="stop-color:#E6E7E8"/>
					</linearGradient>
					<path class="st34" d="M1341.2,951.3l-209.5-0.2c-9,0-16.9,5.9-19.5,14.6l-47.8,163.3h231.5l52.8-167.4
						C1350.3,956.5,1346.5,951.3,1341.2,951.3z"/>
					
						<ellipse transform="matrix(0.7295 -0.684 0.684 0.7295 -384.0707 1107.7097)" class="st35" cx="1208.3" cy="1039.4" rx="15" ry="11"/>
					<path class="st36" d="M1219.3,1036.6c-2.4,7.2-10,12.9-17,12.6c-3.1-0.1-5.5-1.3-7-3.3c1,3.8,4.1,6.3,8.6,6.5
						c6.9,0.2,14.5-5.4,17-12.6c1.4-4,0.8-7.7-1.1-10.2C1220.2,1031.7,1220.1,1034,1219.3,1036.6z"/>
				</g>
				<g>
					<g>
						<linearGradient id="SVGID_23_" gradientUnits="userSpaceOnUse" x1="1512.1455" y1="830.215" x2="1613.9348" y2="975.4548">
							<stop  offset="0.2831" style="stop-color:#3358A9"/>
							<stop  offset="0.9313" style="stop-color:#244D89"/>
						</linearGradient>
						<path class="st37" d="M1543,946.5c-4.2,6.8-8.7,13.6-9.9,21.7c-2.5,16.6,5.9,31.8,15.7,44.5c2.3,3,4.7,5.8,7.1,8.7
							c0.1,1.7,1.5,3.4,3.7,2.8c13.7-3.7,22.9-15.5,28.1-28.1c6.4-15.4,7-32.5,13-48c5.6-14.4,15.5-27.9,14.7-44
							c-0.7-14-8.4-26-13.3-38.8c-2.3-6.1-4-12.5-3.3-19.1c0.8-7.2,5.5-14.8,0.7-21.7c-5.1-7.3-13.9-3.2-20.2-0.1
							c-6.7,3.3-13.3,6.9-18.9,11.9c-25.9,23.1-7.4,59.3-9.7,88.2C1550.1,932.6,1547.3,939.7,1543,946.5z"/>
						<path class="st38" d="M1558,985.3c-1.3-2.8-2.8-5.4-4.5-8c-2.1-3.2-7.3-0.2-5.2,3c3.2,4.8,5.6,9.9,7.1,15.4
							c-3.7,16.2-6.1,32.7-5,49.5c1.1,15,4.9,29.8,12.9,42.7c2,3.3,7.2,0.3,5.2-3c-14.4-23.2-14.3-51.9-9.4-78
							c0.5-2.6,1-5.2,1.6-7.8c0.8-0.6,1.3-1.7,1-3c0-0.2-0.1-0.4-0.1-0.6c2-8.8,4.4-17.5,6.8-26.2c0.3-0.2,0.6-0.4,0.9-0.7
							c11.3-12.1,20.8-25.8,28.1-40.6c1.7-3.4-3.5-6.5-5.2-3c-5.6,11.4-12.5,22-20.6,31.8c3.3-12.5,6.1-25,7.6-37.9
							c1.8-16.3,1.2-33.1-3.8-48.8c-1.2-3.7-6.9-2.1-5.8,1.6c3.3,10.4,4.6,21,4.5,31.7c-1.5-3.1-2.9-6.3-4.4-9.4
							c-1.6-3.5-6.8-0.5-5.2,3c3,6.4,5.9,12.7,8.9,19.1c-1.4,14.7-4.9,29.3-8.7,43.4C1562.7,968,1560.2,976.6,1558,985.3z"/>
					</g>
					<g>
						<linearGradient id="SVGID_24_" gradientUnits="userSpaceOnUse" x1="1474.2822" y1="742.8733" x2="1511.1606" y2="1007.8509">
							<stop  offset="0.2831" style="stop-color:#ED8383"/>
							<stop  offset="1" style="stop-color:#E26969"/>
						</linearGradient>
						<path class="st39" d="M1437.8,889.7c0.8,11.4,6.4,20.5,12.5,29.9c3.1,4.7,6.1,9.5,7.7,15c1.4,4.8,1.7,9.8,1.6,14.8
							c-0.3,10.1-2.4,20-2.7,30c-0.3,10.3,1.9,20.5,8,29c13.2,18.2,36.7,23.6,57.9,20c10.9-1.8,22.4-5.1,30.9-12.4
							c7.6-6.5,11.3-15.8,11.4-25.6c0.3-22.9-16.6-39.6-31.3-54.9c-8.1-8.5-16.3-17.8-20.4-29c-2-5.4-2.9-11-2.5-16.8
							c0.3-5.4,1.5-10.6,2.1-16c0.6-5.4,0.7-10.9-0.7-16.2c-1.4-5-4.1-9.5-7.4-13.6c-6.8-8.4-15.5-15.3-19.4-25.6
							c-4-10.6-4.4-22.1-7.3-32.9c-2.3-8.8-7.7-23.1-18.7-23.4c-4.7-0.1-8.8,2.7-10.2,7.2c-0.3,0.9-0.2,1.8,0.1,2.4
							c-10.6,15.5-6.1,37.2-4.7,54.9c0.9,11.3-0.8,21.9-3.3,33C1439.5,869.3,1437.1,879.5,1437.8,889.7z"/>
						<path class="st40" d="M1501,867.9c0.5-4.6-6.6-6.1-7-1.5c-1.8,16.6-5.9,32.9-12.4,48.3c-1.8-8.1-3.2-16.4-4.3-24.6
							c-2.9-20.5-4.3-41.2-5.7-61.8c-0.3-4.6-7.5-4.3-7.2,0.3c2.4,36.4,5,73.3,15.5,108.4c5.2,17.4,12.7,33.7,21.7,49.4
							c0.1,0.2,0.2,0.3,0.3,0.5c-6.8-3.7-13.5-7.4-20.3-11.1c-4.1-2.2-7.3,4.2-3.3,6.4c8.4,4.6,16.9,9.2,25.3,13.8
							c1.4,0.7,2.6,0.5,3.6-0.2c7.3,12.2,14.9,24.3,21.2,37.1c8.3,17.1,14.1,35.7,12.9,54.9c-0.3,4.6,6.9,4.3,7.2-0.3
							c2.1-35.2-17.6-66.2-35-95.1c-9.3-15.5-17.9-31.3-23.8-48.5c-2-5.9-3.8-11.9-5.4-17.9c0.2-0.2,0.4-0.5,0.6-0.9
							C1493.3,907,1498.9,887.7,1501,867.9z"/>
					</g>
					<linearGradient id="SVGID_25_" gradientUnits="userSpaceOnUse" x1="1550.2269" y1="1042.4747" x2="1550.2269" y2="1125.7544">
						<stop  offset="0" style="stop-color:#A1B9FF"/>
						<stop  offset="1" style="stop-color:#7798ED"/>
					</linearGradient>
					<path class="st41" d="M1550.2,1042.5h-32.3c-4.9,0-8.7,4.3-8.1,9.1l11,90.5c0.5,4.1,4,7.2,8.1,7.2h21.3h21.3
						c4.1,0,7.6-3.1,8.1-7.2l11-90.5c0.6-4.9-3.2-9.1-8.1-9.1H1550.2z"/>
				</g>
			</g>
		</g>
	</g>
</g>
</svg>
